{"glyphs":{"0":{"ha":867,"x_min":49,"x_max":818,"o":"m 433 -4 q 234 51 321 -4 q 98 211 147 107 q 49 461 49 315 q 97 722 49 619 q 231 876 144 825 q 433 925 318 926 q 633 871 546 926 q 769 711 719 815 q 818 461 818 607 q 769 207 818 311 q 633 49 719 103 q 433 -4 546 -4 m 432 136 q 563 178 511 136 q 641 294 615 219 q 667 464 667 368 q 641 632 667 560 q 563 744 615 704 q 432 785 511 785 q 303 744 354 785 q 226 630 251 703 q 200 461 200 557 q 226 293 200 367 q 303 178 251 219 q 432 136 354 136 z "},"1":{"ha":461,"x_min":74,"x_max":318,"o":"m 74 915 l 318 915 l 318 0 l 172 0 l 172 775 l 74 775 l 74 915 z "},"2":{"ha":765,"x_min":56,"x_max":704,"o":"m 75 0 q 242 169 161 88 q 388 328 324 251 q 489 479 451 406 q 526 621 526 553 q 503 715 526 678 q 441 769 479 751 q 360 786 403 786 q 266 763 301 786 q 214 705 231 739 q 197 639 197 671 q 211 557 197 593 q 251 494 225 521 l 161 413 q 104 473 128 433 q 68 556 81 513 q 56 635 56 600 q 93 777 56 711 q 204 885 131 843 q 383 926 278 926 q 538 885 472 926 q 640 778 603 844 q 676 632 676 711 q 631 456 676 542 q 515 286 585 369 q 374 119 446 203 l 308 140 l 704 140 l 704 0 l 75 0 z "},"3":{"ha":728,"x_min":71,"x_max":640,"o":"m 611 915 l 372 521 l 288 563 q 368 579 324 579 q 468 567 419 581 q 556 522 517 554 q 617 437 594 490 q 640 304 640 383 q 596 136 640 207 q 478 27 551 65 q 315 -11 404 -11 q 181 17 249 -11 q 71 89 114 44 l 144 208 q 215 153 169 178 q 313 129 261 129 q 438 178 385 129 q 490 313 490 228 q 446 433 490 389 q 324 478 401 478 q 257 472 283 478 q 208 458 231 467 l 203 464 l 411 794 l 456 775 l 128 775 l 128 915 l 611 915 z "},"4":{"ha":747,"x_min":17,"x_max":699,"o":"m 17 218 l 17 219 l 579 926 l 581 926 l 581 329 l 699 329 l 699 218 l 581 218 l 581 0 l 435 0 l 435 218 l 17 218 m 443 600 l 229 322 l 208 329 l 435 329 l 435 622 l 443 600 z "},"5":{"ha":725,"x_min":85,"x_max":643,"o":"m 339 -11 q 196 17 265 -11 q 85 85 126 44 l 161 199 q 235 148 189 168 q 328 128 282 128 q 447 174 400 128 q 493 296 493 221 q 449 427 493 375 q 319 479 406 479 q 231 466 272 479 q 144 426 190 453 l 143 426 l 143 915 l 583 915 l 583 775 l 269 775 l 269 556 l 250 586 q 301 597 274 593 q 354 601 328 601 q 513 560 449 601 q 610 450 578 518 q 643 300 643 382 q 603 142 643 213 q 495 30 564 71 q 339 -11 426 -11 z "},"6":{"ha":761,"x_min":50,"x_max":706,"o":"m 383 -11 q 215 33 290 -11 q 94 160 139 78 q 50 358 50 243 q 85 528 50 447 q 178 679 119 608 q 313 812 238 750 q 468 925 388 874 l 565 819 q 377 696 453 765 q 261 554 301 626 q 214 418 221 482 l 178 424 q 276 546 215 503 q 432 589 336 589 q 565 551 503 589 q 667 448 628 514 q 706 297 706 382 q 660 133 706 203 q 541 26 614 64 q 383 -11 468 -11 m 378 119 q 503 167 451 119 q 556 296 556 215 q 503 420 556 374 q 378 467 451 467 q 288 447 328 467 q 224 392 247 426 q 200 315 200 357 l 200 289 q 224 206 200 244 q 288 143 247 167 q 378 119 328 119 z "},"7":{"ha":683,"x_min":44,"x_max":647,"o":"m 647 915 l 285 0 l 121 0 l 443 796 l 493 775 l 44 775 l 44 915 l 647 915 z "},"8":{"ha":728,"x_min":36,"x_max":693,"o":"m 36 290 q 63 411 36 360 q 130 498 89 463 q 211 551 171 533 q 146 617 172 579 q 119 715 119 656 q 151 824 119 776 q 239 899 183 872 q 364 926 294 926 q 488 899 433 926 q 576 826 543 872 q 608 722 608 781 q 582 618 608 657 q 515 551 556 579 q 598 497 557 532 q 666 411 639 463 q 693 290 693 360 q 649 142 693 211 q 531 31 606 74 q 363 -11 457 -11 q 195 31 269 -11 q 78 142 121 74 q 36 290 36 211 l 36 290 m 185 296 q 208 204 185 246 q 273 137 232 163 q 363 111 314 111 q 455 137 413 111 q 522 204 497 163 q 547 296 547 246 q 524 387 547 346 q 459 453 500 428 q 368 479 418 478 q 278 456 319 481 q 210 390 236 432 q 185 296 185 349 l 185 296 m 261 699 q 294 629 261 658 q 367 600 326 600 q 438 629 407 600 q 469 699 469 658 q 439 774 469 744 q 367 804 408 804 q 293 774 325 804 q 261 699 261 744 l 261 699 z "},"9":{"ha":749,"x_min":50,"x_max":706,"o":"m 325 297 q 192 335 256 297 q 90 438 129 372 q 50 589 50 504 q 96 762 50 689 q 216 874 142 835 q 374 913 290 913 q 543 871 468 913 q 662 756 618 829 q 706 589 706 683 q 665 390 706 479 q 558 228 625 301 q 411 94 492 156 q 250 -19 331 33 l 153 88 q 353 209 268 144 q 486 340 438 274 q 540 464 535 406 l 581 463 q 483 340 540 382 q 325 297 425 297 m 379 421 q 507 467 457 421 q 557 582 557 513 l 557 610 q 531 696 556 657 q 467 758 507 735 q 379 782 428 782 q 253 732 304 782 q 201 599 201 682 q 253 469 201 517 q 379 421 306 421 z "}," ":{"ha":181,"x_min":0,"x_max":0,"o":""}," ":{"ha":181,"x_min":0,"x_max":0,"o":""},"ء":{"ha":722,"x_min":35,"x_max":688,"o":"m 219 64 l 219 161 q 242 289 218 233 q 306 376 265 344 q 401 408 347 408 q 492 390 458 408 q 544 345 526 371 q 568 297 563 319 q 531 317 558 304 q 464 329 503 329 q 399 305 431 329 q 368 231 368 281 q 388 174 368 193 q 434 147 407 154 q 483 139 461 139 l 529 139 l 531 64 l 219 64 m 35 0 l 118 139 l 688 139 l 604 0 l 35 0 z "},"ٴ":{"ha":722,"x_min":35,"x_max":688,"o":"m 219 619 l 219 717 q 242 844 218 789 q 306 932 265 900 q 401 964 347 964 q 492 945 458 964 q 544 901 526 926 q 568 853 563 875 q 531 872 558 860 q 464 885 503 885 q 399 860 431 885 q 368 786 368 836 q 388 729 368 749 q 434 702 407 710 q 483 694 461 694 l 529 694 l 531 619 l 219 619 m 35 556 l 118 694 l 688 694 l 604 556 l 35 556 z "},"ا":{"ha":306,"x_min":35,"x_max":306,"o":"m 306 81 q 267 28 297 50 q 198 -1 238 7 q 122 -1 158 -10 q 60 34 85 7 q 35 111 35 61 l 35 1081 l 174 1111 l 174 111 q 189 76 174 86 q 226 65 204 65 q 271 69 249 64 q 306 81 293 75 z "},"ٮ":{"ha":1181,"x_min":35,"x_max":1146,"o":"m 35 0 l 118 139 l 1007 139 l 1007 0 l 35 0 m 840 0 l 840 139 l 1007 139 l 1007 386 l 1146 417 l 1146 32 q 1132 8 1146 15 q 1104 1 1118 1 q 1090 0 1090 0 l 840 0 z "},"ح":{"ha":715,"x_min":35,"x_max":681,"o":"m 183 -278 q 79 -208 124 -258 q 35 -83 35 -157 q 54 13 35 -25 q 103 75 74 50 q 164 118 133 100 q 118 159 143 132 q 71 216 93 186 q 35 268 49 246 l 113 417 q 217 277 161 340 q 329 176 274 214 q 432 139 385 139 l 681 139 l 597 0 l 275 0 q 233 -13 257 0 q 192 -49 210 -26 q 175 -100 175 -71 q 201 -172 175 -144 q 269 -210 228 -199 q 358 -224 311 -222 q 447 -219 404 -225 q 515 -204 489 -214 q 425 -264 483 -242 q 301 -290 367 -286 q 183 -278 236 -293 z "},"د":{"ha":1208,"x_min":35,"x_max":1174,"o":"m 35 0 l 118 139 l 1035 139 q 1012 238 1036 197 q 910 278 988 278 l 188 278 l 371 583 l 385 574 l 313 417 l 910 417 q 1048 393 996 417 q 1127 329 1100 369 q 1164 239 1154 289 q 1174 135 1174 189 q 1174 32 1174 82 q 1160 8 1174 15 q 1132 1 1146 1 q 1118 0 1118 0 l 35 0 z "},"ر":{"ha":313,"x_min":-118,"x_max":278,"o":"m -118 -208 q 12 -226 -39 -229 q 90 -204 63 -224 q 128 -156 118 -185 q 139 -97 139 -126 l 139 386 l 278 417 l 278 -83 q 247 -203 278 -157 q 165 -272 215 -250 q 60 -292 115 -293 q -42 -269 6 -290 q -118 -208 -90 -247 z "},"س":{"ha":1208,"x_min":35,"x_max":1174,"o":"m 590 139 l 757 139 l 757 386 l 896 417 l 896 139 l 1035 139 l 1035 386 l 1174 417 l 1174 32 q 1160 8 1174 15 q 1132 1 1146 1 q 1118 0 1118 0 l 590 0 l 590 139 m 300 -278 q 163 -247 215 -278 q 82 -171 110 -217 q 44 -78 54 -125 q 35 0 35 -32 q 60 117 35 61 q 126 216 86 172 q 210 288 167 260 q 207 238 213 261 q 182 188 201 214 q 208 167 197 181 q 222 139 218 154 q 222 107 226 124 q 188 123 203 118 q 154 125 174 128 q 96 81 115 121 q 76 0 76 40 q 97 -98 76 -53 q 165 -171 117 -143 q 300 -199 214 -199 q 410 -167 371 -199 q 464 -78 449 -136 q 479 56 479 -21 l 479 386 l 618 417 l 618 0 q 582 -141 618 -78 q 476 -241 546 -204 q 300 -278 406 -278 z "},"ص":{"ha":1625,"x_min":35,"x_max":1590,"o":"m 479 333 l 479 525 l 618 556 l 618 333 l 479 333 m 300 -278 q 163 -247 215 -278 q 82 -171 110 -217 q 44 -78 54 -125 q 35 0 35 -32 q 60 117 35 61 q 126 216 86 172 q 210 288 167 260 q 207 238 213 261 q 182 188 201 214 q 208 167 197 181 q 222 139 218 154 q 222 107 226 124 q 188 123 203 118 q 154 125 174 128 q 96 81 115 121 q 76 0 76 40 q 97 -98 76 -53 q 165 -171 117 -143 q 300 -199 214 -199 q 410 -167 371 -199 q 464 -78 449 -136 q 479 56 479 -21 l 479 386 l 618 417 l 618 0 q 582 -141 618 -78 q 476 -241 546 -204 q 300 -278 406 -278 m 542 0 l 542 139 l 1451 139 q 1428 238 1453 197 q 1326 278 1404 278 l 542 278 l 542 417 l 1326 417 q 1465 393 1413 417 q 1544 329 1517 369 q 1581 239 1571 289 q 1590 135 1590 189 q 1590 32 1590 82 q 1576 8 1590 15 q 1549 1 1563 1 q 1535 0 1535 0 l 542 0 z "},"ط":{"ha":1403,"x_min":35,"x_max":1368,"o":"m 257 69 l 257 1081 l 396 1111 l 396 69 l 257 69 m 35 0 l 118 139 l 479 139 l 479 0 l 35 0 m 319 0 l 319 139 l 1229 139 q 1206 238 1231 197 q 1104 278 1182 278 l 319 278 l 319 417 l 1104 417 q 1242 393 1190 417 q 1322 329 1294 369 q 1358 239 1349 289 q 1368 135 1368 189 q 1368 32 1368 82 q 1354 8 1368 15 q 1326 1 1340 1 q 1313 0 1313 0 l 319 0 z "},"ع":{"ha":514,"x_min":26,"x_max":514,"o":"m 183 -278 q 78 -208 124 -258 q 33 -82 33 -158 q 53 1 33 -31 q 97 58 72 33 q 41 140 56 93 q 35 235 26 188 q 69 324 43 283 q 134 391 94 365 q 221 417 174 417 q 285 404 256 417 q 340 369 315 392 q 379 311 364 346 q 314 348 349 338 q 250 353 279 358 q 190 319 215 347 q 165 256 165 290 q 184 194 165 221 q 232 153 203 168 q 289 139 261 139 l 472 139 l 389 0 l 275 0 q 233 -13 257 0 q 192 -49 210 -26 q 175 -100 175 -71 q 201 -172 175 -144 q 269 -210 228 -199 q 356 -224 310 -222 q 445 -219 403 -225 q 514 -204 488 -214 q 451 -253 490 -233 q 364 -282 411 -272 q 270 -291 317 -292 q 183 -278 224 -290 z "},"ڡ":{"ha":1181,"x_min":35,"x_max":1146,"o":"m 35 0 l 118 139 l 604 139 l 604 0 l 35 0 m 563 0 l 563 139 l 1007 139 l 1007 317 l 1146 417 l 1146 32 q 1132 8 1146 15 q 1104 1 1118 1 q 1090 0 1090 0 l 563 0 m 939 208 q 835 236 882 208 q 759 312 788 264 q 731 417 731 360 q 759 522 731 475 q 835 597 788 569 q 939 625 882 625 q 1043 597 996 625 q 1118 522 1090 569 q 1146 417 1146 475 q 1118 312 1146 360 q 1043 236 1090 264 q 939 208 996 208 m 939 347 q 988 367 968 347 q 1008 417 1008 388 q 988 466 1008 446 q 939 486 968 486 q 890 466 910 486 q 869 417 869 446 q 890 367 869 388 q 939 347 910 347 z "},"ٯ":{"ha":715,"x_min":35,"x_max":681,"o":"m 342 -299 q 204 -272 263 -299 q 108 -201 146 -244 q 53 -106 71 -157 q 35 -7 35 -54 q 67 158 35 85 q 149 275 99 231 q 151 224 151 249 q 131 174 150 200 q 166 165 142 175 q 197 115 190 154 q 149 117 168 119 q 115 106 131 115 q 86 60 96 93 q 76 -7 76 28 q 107 -105 76 -60 q 197 -178 138 -150 q 342 -206 256 -206 q 495 -153 449 -206 q 542 14 542 -101 l 542 108 l 681 208 l 681 69 q 676 3 681 47 q 653 -92 671 -40 q 599 -190 636 -143 q 500 -268 563 -237 q 342 -299 438 -299 m 475 0 q 371 28 418 0 q 296 103 324 56 q 268 208 268 151 q 296 314 268 267 q 371 389 324 361 q 475 417 418 417 q 578 389 532 417 q 653 314 625 361 q 681 208 681 267 q 653 103 681 151 q 578 28 625 56 q 475 0 532 0 m 475 139 q 524 159 504 139 q 544 208 544 179 q 524 258 544 238 q 475 278 504 278 q 426 258 446 278 q 406 208 406 238 q 426 159 406 179 q 475 139 446 139 z "},"ك":{"ha":1403,"x_min":35,"x_max":1368,"o":"m 35 0 l 118 139 l 1229 139 q 1206 238 1231 197 q 1104 278 1182 278 l 229 278 l 368 417 l 1104 417 q 1242 393 1190 417 q 1322 329 1294 369 q 1358 239 1349 289 q 1368 135 1368 189 q 1368 32 1368 82 q 1354 8 1368 15 q 1326 1 1340 1 q 1313 0 1313 0 l 35 0 m 444 308 l 353 401 l 814 856 l 814 626 q 795 641 806 642 q 778 633 785 640 l 444 308 z "},"ل":{"ha":653,"x_min":35,"x_max":618,"o":"m 479 56 l 479 1081 l 618 1111 l 618 0 l 479 56 m 300 -278 q 163 -247 215 -278 q 82 -171 110 -217 q 44 -78 54 -125 q 35 0 35 -32 q 60 117 35 61 q 126 216 86 172 q 210 288 167 260 q 207 238 213 261 q 182 188 201 214 q 208 167 197 181 q 222 139 218 154 q 222 107 226 124 q 188 123 203 118 q 154 125 174 128 q 96 81 115 121 q 76 0 76 40 q 97 -98 76 -53 q 165 -171 117 -143 q 300 -199 214 -199 q 410 -167 371 -199 q 464 -78 449 -136 q 479 56 479 -21 l 479 386 l 618 417 l 618 0 q 582 -141 618 -78 q 476 -241 546 -204 q 300 -278 406 -278 z "},"م":{"ha":851,"x_min":35,"x_max":817,"o":"m 35 0 l 151 194 q 193 153 165 167 q 246 139 221 139 l 528 139 l 611 0 l 35 0 m 611 0 q 507 28 554 0 q 432 103 460 56 q 404 208 404 151 q 430 310 404 264 q 500 385 456 356 q 597 417 544 414 q 615 458 604 444 q 638 485 626 472 q 773 358 729 428 q 817 208 817 288 q 789 103 817 151 q 715 28 761 56 q 611 0 668 0 m 611 139 q 660 159 640 139 q 681 208 681 179 q 660 258 681 238 q 611 278 640 278 q 562 258 582 278 q 542 208 542 238 q 562 159 542 179 q 611 139 582 139 z "},"ں":{"ha":639,"x_min":35,"x_max":604,"o":"m 307 -283 q 172 -252 225 -283 q 90 -174 119 -221 q 47 -80 60 -128 q 35 0 35 -32 q 60 117 35 61 q 126 216 86 172 q 210 288 167 260 q 207 238 213 261 q 182 188 201 214 q 208 167 197 181 q 222 139 218 154 q 222 107 226 124 q 188 123 203 118 q 154 125 174 128 q 96 81 115 121 q 76 0 76 40 q 99 -91 76 -47 q 172 -162 122 -135 q 300 -189 221 -189 q 413 -156 371 -189 q 473 -72 456 -122 q 486 28 490 -21 q 467 106 483 68 q 430 173 450 143 q 396 219 410 203 l 468 364 q 563 215 521 300 q 604 7 604 129 q 568 -137 604 -71 q 466 -244 532 -204 q 307 -283 400 -283 z "},"ه":{"ha":485,"x_min":35,"x_max":450,"o":"m 311 444 l 311 621 l 450 688 l 450 519 q 415 480 438 496 q 365 455 392 464 q 311 444 338 446 m 311 649 l 311 1081 l 450 1111 l 450 715 l 311 649 m 450 208 l 243 417 q 290 417 261 417 q 351 422 319 417 q 409 440 382 426 q 450 481 436 454 l 450 208 m 243 0 q 139 28 186 0 q 63 103 92 56 q 35 208 35 151 q 63 314 35 267 q 139 389 92 361 q 243 417 186 417 q 347 389 300 417 q 422 314 394 361 q 450 208 450 267 q 422 103 450 151 q 347 28 394 56 q 243 0 300 0 m 243 139 q 292 159 272 139 q 313 208 313 179 q 292 258 313 238 q 243 278 272 278 q 194 258 214 278 q 174 208 174 238 q 194 159 174 179 q 243 139 214 139 z "},"ھ":{"ha":693,"x_min":35,"x_max":658,"o":"m 451 0 q 348 28 394 0 q 274 103 301 56 q 246 208 246 151 q 275 322 246 271 l 629 322 q 651 268 644 299 q 658 208 658 238 q 631 103 658 151 q 556 28 603 56 q 451 0 508 0 m 246 117 l 246 422 l 293 422 l 293 117 l 246 117 m 450 138 q 499 158 479 138 q 519 207 519 178 q 499 256 519 236 q 450 276 479 276 q 401 256 421 276 q 381 207 381 236 q 401 158 381 178 q 450 138 421 138 m 353 0 l 353 139 l 519 139 l 519 392 l 658 422 l 658 32 q 644 8 658 15 q 617 1 631 1 q 603 0 603 0 l 353 0 m 450 353 q 499 373 479 353 q 519 422 519 393 q 499 472 519 451 q 450 492 479 492 q 401 472 421 492 q 381 422 381 451 q 401 373 381 393 q 450 353 421 353 m 275 315 q 253 366 261 339 q 246 422 246 393 q 274 528 246 481 q 348 603 301 575 q 451 631 394 631 q 556 603 508 631 q 631 528 603 575 q 658 422 658 481 q 628 315 658 365 l 275 315 m 658 422 l 451 631 q 499 631 469 631 q 559 635 528 631 q 617 654 590 640 q 658 694 644 668 l 658 422 m 35 0 l 151 194 q 193 153 165 167 q 246 139 221 139 l 371 139 l 451 0 l 35 0 z "},"و":{"ha":485,"x_min":35,"x_max":450,"o":"m 54 -183 q 184 -201 133 -204 q 263 -179 235 -199 q 301 -131 290 -160 q 311 -72 311 -101 l 311 178 l 450 208 l 450 -58 q 419 -178 450 -132 q 338 -247 388 -225 q 233 -267 288 -268 q 130 -244 178 -265 q 54 -183 82 -222 m 450 208 l 243 417 q 290 417 261 417 q 351 422 319 417 q 409 440 382 426 q 450 481 436 454 l 450 208 m 243 0 q 139 28 186 0 q 63 103 92 56 q 35 208 35 151 q 63 314 35 267 q 139 389 92 361 q 243 417 186 417 q 347 389 300 417 q 422 314 394 361 q 450 208 450 267 q 422 103 450 151 q 347 28 394 56 q 243 0 300 0 m 243 139 q 292 159 272 139 q 313 208 313 179 q 292 258 313 238 q 243 278 272 278 q 194 258 214 278 q 174 208 174 238 q 194 159 174 179 q 243 139 214 139 z "},"ى":{"ha":1007,"x_min":35,"x_max":972,"o":"m 546 -278 l 225 282 q 171 456 168 381 q 214 587 174 531 q 310 685 254 643 q 376 742 353 717 q 400 821 400 767 l 871 0 l 711 0 l 382 569 q 319 480 331 542 q 346 350 307 418 l 704 -278 l 546 -278 m 729 0 l 688 139 l 761 139 q 814 153 786 139 q 856 194 842 167 l 972 0 l 729 0 m 35 -278 l 151 -83 q 193 -125 165 -111 q 246 -139 221 -139 l 528 -139 l 611 -278 l 35 -278 z "},"ے":{"ha":1451,"x_min":32,"x_max":1417,"o":"m 410 -278 l 89 282 q 35 456 32 381 q 78 587 38 531 q 174 685 118 643 q 240 742 217 717 q 264 821 264 767 l 735 0 l 575 0 l 246 569 q 183 480 194 542 q 210 350 171 418 l 568 -278 l 410 -278 m 444 -278 l 444 -139 l 1333 -139 l 1417 -278 l 444 -278 m 593 0 l 551 139 l 625 139 q 678 153 650 139 q 719 194 706 167 l 836 0 l 593 0 z "},"ە":{"ha":485,"x_min":35,"x_max":450,"o":"m 450 208 l 243 417 q 290 417 261 417 q 351 422 319 417 q 409 440 382 426 q 450 481 436 454 l 450 208 m 243 0 q 139 28 186 0 q 63 103 92 56 q 35 208 35 151 q 63 314 35 267 q 139 389 92 361 q 243 417 186 417 q 347 389 300 417 q 422 314 394 361 q 450 208 450 267 q 422 103 450 151 q 347 28 394 56 q 243 0 300 0 m 243 139 q 292 159 272 139 q 313 208 313 179 q 292 258 313 238 q 243 278 272 278 q 194 258 214 278 q 174 208 174 238 q 194 159 174 179 q 243 139 214 139 z "},"ـ":{"ha":417,"x_min":-28,"x_max":444,"o":"m -28 0 l -28 139 l 444 139 l 444 0 l -28 0 z "},"٠":{"ha":694,"x_min":250,"x_max":444,"o":"m 347 319 q 278 348 307 319 q 250 417 250 376 q 278 485 250 457 q 347 514 307 514 q 416 485 388 514 q 444 417 444 457 q 416 348 444 376 q 347 319 388 319 z "},"۰":{"ha":694,"x_min":250,"x_max":444,"o":"m 347 319 q 278 348 307 319 q 250 417 250 376 q 278 485 250 457 q 347 514 307 514 q 416 485 388 514 q 444 417 444 457 q 416 348 444 376 q 347 319 388 319 z "},"١":{"ha":694,"x_min":278,"x_max":417,"o":"m 278 0 l 278 803 l 417 833 l 417 0 l 278 0 z "},"۱":{"ha":694,"x_min":278,"x_max":417,"o":"m 278 0 l 278 803 l 417 833 l 417 0 l 278 0 z "},"٢":{"ha":694,"x_min":153,"x_max":542,"o":"m 153 0 l 153 569 q 177 708 153 656 q 242 787 201 760 q 333 824 282 814 q 438 833 383 833 q 542 833 492 833 l 542 694 l 431 694 q 360 685 392 694 q 310 649 329 675 q 292 569 292 622 l 292 0 l 153 0 z "},"٣":{"ha":694,"x_min":28,"x_max":667,"o":"m 69 417 l 69 556 l 278 556 l 278 801 l 417 833 l 417 556 l 528 556 l 528 803 l 667 833 l 667 449 q 653 425 667 432 q 625 417 639 418 q 611 417 611 417 l 69 417 m 28 0 l 28 803 l 167 833 l 167 0 l 28 0 z "},"۳":{"ha":694,"x_min":28,"x_max":667,"o":"m 69 417 l 69 556 l 278 556 l 278 801 l 417 833 l 417 556 l 528 556 l 528 803 l 667 833 l 667 449 q 653 425 667 432 q 625 417 639 418 q 611 417 611 417 l 69 417 m 28 0 l 28 803 l 167 833 l 167 0 l 28 0 z "},"٤":{"ha":694,"x_min":83,"x_max":611,"o":"m 186 0 q 128 15 151 0 q 94 53 106 31 q 83 99 83 76 q 101 165 83 133 q 136 215 118 197 l 290 371 l 168 467 q 130 509 150 481 q 110 578 110 538 q 127 639 110 614 q 174 686 144 664 l 415 864 l 499 753 l 206 538 l 208 615 l 485 382 l 211 93 l 192 139 l 611 139 l 611 0 l 186 0 z "},"٥":{"ha":694,"x_min":142,"x_max":553,"o":"m 347 69 q 244 97 290 69 q 169 173 197 125 q 142 278 142 221 l 142 556 q 169 661 142 614 q 244 736 197 708 q 347 764 290 764 q 451 736 404 764 q 525 661 497 708 q 553 556 553 614 l 553 278 q 525 173 553 221 q 451 97 497 125 q 347 69 404 69 m 197 69 q 183 70 197 69 q 156 78 169 71 q 142 101 142 85 l 142 390 l 347 69 l 197 69 m 278 208 l 347 208 q 397 228 376 208 q 417 278 417 249 l 417 625 l 347 625 q 298 605 318 625 q 278 556 278 585 l 278 208 m 553 556 l 347 764 q 394 765 365 764 q 454 772 422 765 q 513 792 486 778 q 553 833 539 807 l 553 556 z "},"۵":{"ha":694,"x_min":142,"x_max":553,"o":"m 347 69 q 244 97 290 69 q 169 173 197 125 q 142 278 142 221 l 142 556 q 169 661 142 614 q 244 736 197 708 q 347 764 290 764 q 451 736 404 764 q 525 661 497 708 q 553 556 553 614 l 553 278 q 525 173 553 221 q 451 97 497 125 q 347 69 404 69 m 197 69 q 183 70 197 69 q 156 78 169 71 q 142 101 142 85 l 142 390 l 347 69 l 197 69 m 278 208 l 347 208 q 397 228 376 208 q 417 278 417 249 l 417 625 l 347 625 q 298 605 318 625 q 278 556 278 585 l 278 208 m 553 556 l 347 764 q 394 765 365 764 q 454 772 422 765 q 513 792 486 778 q 553 833 539 807 l 553 556 z "},"٦":{"ha":694,"x_min":111,"x_max":583,"o":"m 446 0 l 446 694 l 142 694 l 111 833 l 551 833 q 576 819 569 833 q 583 792 582 806 q 583 778 583 778 l 583 0 l 446 0 z "},"٧":{"ha":694,"x_min":74,"x_max":621,"o":"m 410 0 l 276 36 l 496 850 l 621 785 l 410 0 m 285 0 l 285 26 l 410 26 l 410 0 l 285 0 m 285 0 l 74 785 l 199 850 l 418 36 l 285 0 z "},"٨":{"ha":694,"x_min":61,"x_max":633,"o":"m 489 0 l 275 797 l 408 833 l 633 0 l 489 0 m 61 0 l 283 833 l 419 797 l 206 0 l 61 0 m 283 807 l 283 833 l 408 833 l 408 807 l 283 807 z "},"۸":{"ha":694,"x_min":61,"x_max":633,"o":"m 489 0 l 275 797 l 408 833 l 633 0 l 489 0 m 61 0 l 283 833 l 419 797 l 206 0 l 61 0 m 283 807 l 283 833 l 408 833 l 408 807 l 283 807 z "},"٩":{"ha":694,"x_min":83,"x_max":611,"o":"m 472 0 l 472 342 q 434 338 457 340 q 383 336 411 336 q 229 367 297 336 q 122 456 161 399 q 83 594 83 514 q 119 727 83 668 q 216 820 154 786 q 354 854 278 854 q 487 822 429 854 q 578 734 544 790 q 611 604 611 678 l 611 0 l 472 0 m 472 481 l 472 604 q 438 687 472 661 q 351 713 403 713 q 256 677 292 713 q 221 592 221 642 q 270 503 221 531 q 388 475 319 475 q 440 478 417 475 q 472 481 464 481 z "},"۹":{"ha":694,"x_min":83,"x_max":611,"o":"m 472 0 l 472 342 q 434 338 457 340 q 383 336 411 336 q 229 367 297 336 q 122 456 161 399 q 83 594 83 514 q 119 727 83 668 q 216 820 154 786 q 354 854 278 854 q 487 822 429 854 q 578 734 544 790 q 611 604 611 678 l 611 0 l 472 0 m 472 481 l 472 604 q 438 687 472 661 q 351 713 403 713 q 256 677 292 713 q 221 592 221 642 q 270 503 221 531 q 388 475 319 475 q 440 478 417 475 q 472 481 464 481 z "},"۲":{"ha":694,"x_min":97,"x_max":597,"o":"m 139 486 l 139 625 l 458 625 l 458 803 l 597 833 l 597 518 q 583 494 597 501 q 556 487 569 488 q 542 486 542 486 l 139 486 m 97 0 l 97 803 l 236 833 l 236 0 l 97 0 z "},"۴":{"ha":694,"x_min":28,"x_max":667,"o":"m 261 481 l 261 578 q 284 706 261 650 q 349 793 307 761 q 443 825 390 825 q 534 806 500 825 q 586 762 568 788 q 610 714 604 736 q 572 733 600 721 q 506 746 544 746 q 441 722 472 746 q 410 647 410 697 q 429 590 410 610 q 476 563 449 569 q 525 556 503 556 l 571 556 l 572 481 l 261 481 m 69 417 l 69 556 l 667 556 l 636 417 l 69 417 m 28 0 l 28 803 l 167 833 l 167 0 l 28 0 z "},"۶":{"ha":694,"x_min":83,"x_max":611,"o":"m 83 0 q 88 65 83 14 q 108 187 92 115 q 163 338 125 258 q 267 486 200 417 q 194 563 215 518 q 178 655 174 608 q 208 742 183 701 q 273 808 233 783 q 360 833 313 833 q 453 806 411 833 q 518 728 496 779 q 453 765 488 754 q 389 769 418 775 q 329 735 354 764 q 304 672 304 707 q 324 608 304 638 q 372 563 343 578 q 428 556 401 547 l 611 611 l 558 472 q 387 394 465 449 q 247 269 308 339 q 144 128 185 199 q 83 0 103 57 z "},"۷":{"ha":694,"x_min":74,"x_max":621,"o":"m 410 0 l 276 36 l 496 850 l 621 785 l 410 0 m 285 0 l 285 26 l 410 26 l 410 0 l 285 0 m 285 0 l 74 785 l 199 850 l 418 36 l 285 0 z "},"۔":{"ha":401,"x_min":43,"x_max":363,"o":"m 43 0 l 126 139 l 363 139 l 279 0 l 43 0 z "},"،":{"ha":285,"x_min":69,"x_max":250,"o":"m 250 308 q 185 251 208 285 q 156 185 161 217 q 164 138 151 154 l 124 143 q 170 160 142 163 q 222 138 199 158 q 244 82 244 117 q 221 22 244 44 q 163 0 197 0 q 106 20 126 0 q 77 70 85 40 q 69 129 69 100 q 81 197 69 157 q 122 279 92 236 q 213 358 153 322 l 250 308 z "},"؛":{"ha":285,"x_min":69,"x_max":250,"o":"m 169 0 q 113 24 136 0 q 89 81 89 47 q 113 138 89 114 q 169 161 136 161 q 226 138 203 161 q 250 81 250 114 q 226 24 250 47 q 169 0 203 0 m 250 571 q 185 513 208 547 q 156 448 161 479 q 164 400 151 417 l 124 406 q 170 423 142 425 q 222 400 199 421 q 244 344 244 379 q 221 285 244 307 q 163 263 197 263 q 106 283 126 263 q 77 333 85 303 q 69 392 69 363 q 81 459 69 419 q 122 542 92 499 q 213 621 153 585 l 250 571 z "},"؟":{"ha":663,"x_min":33,"x_max":649,"o":"m 268 260 l 268 314 q 254 403 268 369 q 217 463 240 438 q 165 513 194 488 q 74 618 114 558 q 35 769 33 678 q 72 894 36 833 q 170 996 108 956 q 310 1036 232 1036 q 425 1016 375 1038 q 511 962 475 994 q 571 894 547 929 q 610 857 586 872 q 649 836 635 842 l 497 736 q 485 779 496 753 q 467 819 475 806 q 408 881 443 856 q 324 906 372 906 q 210 864 257 906 q 163 757 163 822 q 181 684 163 715 q 228 628 200 653 q 285 581 257 604 q 342 524 315 554 q 384 452 368 494 q 400 344 400 410 l 400 260 l 268 260 m 335 0 q 278 24 301 0 q 254 81 254 47 q 278 138 254 114 q 335 161 301 161 q 392 138 368 161 q 415 81 415 114 q 392 24 415 47 q 335 0 368 0 z "},"◌":{"ha":813,"x_min":64,"x_max":750,"o":"m 700 286 q 665 300 679 286 q 651 338 651 314 q 665 375 651 363 q 700 388 679 388 q 735 375 719 388 q 750 338 750 363 q 736 300 750 314 q 700 286 722 286 m 258 21 q 225 34 239 21 q 211 74 211 47 q 225 110 211 97 q 258 122 239 122 q 294 110 279 122 q 308 74 308 97 q 294 34 308 47 q 258 21 281 21 m 150 135 q 117 149 132 135 q 103 185 103 163 q 117 224 103 210 q 150 238 132 238 q 186 224 172 238 q 200 185 200 210 q 187 149 200 163 q 150 135 174 135 m 406 -17 q 372 -3 386 -17 q 358 35 358 10 q 372 72 358 58 q 406 85 386 85 q 442 72 428 85 q 456 35 456 58 q 442 -3 456 10 q 406 -17 428 -17 m 111 286 q 78 300 93 286 q 64 338 64 314 q 78 375 64 363 q 111 388 93 388 q 148 375 133 388 q 163 338 163 363 q 149 300 163 314 q 111 286 135 286 m 553 21 q 520 34 535 21 q 506 74 506 47 q 520 110 506 97 q 553 122 535 122 q 588 110 574 122 q 603 74 603 97 q 553 21 603 21 m 150 439 q 117 453 132 439 q 103 492 103 467 q 117 529 103 517 q 150 542 132 542 q 186 529 172 542 q 200 492 200 517 q 150 439 200 439 m 663 135 q 628 149 643 135 q 614 185 614 163 q 628 224 614 210 q 663 238 643 238 q 697 224 683 238 q 711 185 711 210 q 663 135 711 135 m 258 553 q 225 567 239 553 q 211 603 211 581 q 225 642 211 629 q 258 654 239 654 q 294 642 279 654 q 308 603 308 629 q 294 567 308 581 q 258 553 281 553 m 406 589 q 372 603 386 589 q 358 642 358 617 q 372 678 358 665 q 406 692 386 692 q 442 678 428 692 q 456 642 456 665 q 442 603 456 617 q 406 589 428 589 m 663 439 q 628 452 643 439 q 614 490 614 465 q 628 527 614 514 q 663 540 643 540 q 697 527 683 540 q 711 490 711 514 q 663 439 711 439 m 553 551 q 520 566 535 551 q 506 603 506 581 q 520 641 506 628 q 553 654 535 654 q 588 641 574 654 q 603 603 603 628 q 590 566 603 581 q 553 551 576 551 z "},"ؕ":{"ha":0,"x_min":0,"x_max":417,"o":"m 0 0 l 33 69 l 347 69 q 341 109 346 93 q 304 125 336 125 l 114 125 l 114 194 l 311 194 q 376 176 354 194 q 407 128 399 157 q 416 69 415 100 q 417 13 417 38 q 406 1 417 3 q 394 0 394 0 l 0 0 m 89 28 l 89 404 l 158 417 l 158 28 l 89 28 z "},"ٰ":{"ha":0,"x_min":0,"x_max":96,"o":"m 29 0 l 29 215 q 22 231 29 225 q 0 229 14 236 l 96 324 l 96 0 l 29 0 z "},"ٖ":{"ha":0,"x_min":0,"x_max":96,"o":"m 29 -319 l 29 -104 q 22 -89 29 -94 q 0 -90 14 -83 l 96 4 l 96 -319 l 29 -319 z "},"ٔ":{"ha":0,"x_min":0,"x_max":375,"o":"m 101 13 l 101 58 q 103 101 101 85 q 110 138 104 117 q 147 206 121 179 q 228 233 174 233 q 274 222 247 233 q 315 178 301 210 q 279 189 307 182 q 232 190 251 196 q 200 170 210 185 q 189 142 190 156 q 188 124 188 129 q 202 85 188 96 q 237 72 217 74 q 274 69 257 69 l 310 69 l 311 13 l 101 13 m 0 0 l 42 69 l 375 69 l 333 0 l 0 0 z "},"ٕ":{"ha":0,"x_min":0,"x_max":375,"o":"m 101 -221 l 101 -175 q 103 -133 101 -149 q 110 -96 104 -117 q 147 -27 121 -54 q 228 0 174 0 q 274 -12 247 0 q 315 -56 301 -24 q 279 -44 307 -51 q 232 -43 251 -37 q 200 -63 210 -49 q 189 -91 190 -78 q 188 -110 188 -104 q 202 -149 188 -137 q 237 -162 217 -160 q 274 -164 257 -164 l 310 -164 l 311 -221 l 101 -221 m 0 -233 l 42 -164 l 375 -164 l 333 -233 l 0 -233 z "},"ً":{"ha":0,"x_min":0,"x_max":383,"o":"m 71 89 l 47 131 l 360 311 l 383 269 l 71 89 m 24 168 l 0 210 l 313 390 l 336 349 l 24 168 z "},"ٌ":{"ha":0,"x_min":0,"x_max":356,"o":"m 32 88 l 0 271 l 46 279 l 79 97 l 32 88 m 285 217 q 195 206 243 193 q 122 263 147 219 q 109 356 97 307 q 163 428 121 404 q 256 441 207 454 q 332 383 306 428 q 342 291 356 340 q 285 217 329 242 m 79 97 l 56 139 l 264 258 l 285 217 l 79 97 m 264 258 q 299 303 292 274 q 290 360 306 333 q 247 395 275 388 q 189 388 218 403 q 156 344 163 374 q 164 286 150 314 q 208 251 179 260 q 264 258 238 243 z "},"ٍ":{"ha":0,"x_min":0,"x_max":383,"o":"m 71 -24 l 47 18 l 360 199 l 383 157 l 71 -24 m 24 56 l 0 97 l 313 278 l 336 236 l 24 56 z "},"َ":{"ha":0,"x_min":0,"x_max":336,"o":"m 24 89 l 0 131 l 313 311 l 336 269 l 24 89 z "},"ُ":{"ha":0,"x_min":0,"x_max":300,"o":"m 229 208 q 140 198 188 185 q 67 254 92 211 q 53 347 42 299 q 107 419 65 396 q 201 433 151 446 q 276 375 250 419 q 287 283 300 332 q 229 208 274 233 m 24 89 l 0 131 l 208 250 l 229 208 l 24 89 m 208 250 q 243 295 236 265 q 235 351 250 325 q 191 387 219 379 q 133 379 163 394 q 101 335 107 365 q 108 278 94 306 q 153 243 124 251 q 208 250 182 235 z "},"ِ":{"ha":0,"x_min":0,"x_max":336,"o":"m 24 56 l 0 97 l 313 278 l 336 236 l 24 56 z "},"ّ":{"ha":0,"x_min":0,"x_max":361,"o":"m 257 103 q 187 133 217 103 q 157 206 157 164 l 204 206 q 221 167 204 183 q 258 150 238 150 q 297 167 281 150 q 314 206 314 183 l 361 206 q 331 133 361 164 q 257 103 301 103 m 100 103 q 30 133 60 103 q 0 206 0 164 l 47 206 q 64 167 47 183 q 101 150 81 150 q 140 167 124 150 q 157 206 157 183 l 204 206 q 174 133 204 164 q 100 103 144 103 m 0 206 l 0 278 l 47 278 l 47 206 l 0 206 m 157 206 l 157 278 l 204 278 l 204 206 l 157 206 m 314 206 l 314 278 l 361 278 l 361 206 l 314 206 z "},"ْ":{"ha":0,"x_min":0,"x_max":275,"o":"m 136 103 q 40 144 81 103 q 0 242 0 185 q 40 340 0 299 q 136 381 81 381 q 234 340 193 381 q 275 242 275 299 q 234 144 275 185 q 136 103 193 103 m 138 151 q 203 178 176 151 q 229 243 229 204 q 203 308 229 282 q 138 336 178 335 q 72 310 99 338 q 46 243 46 282 q 72 178 46 204 q 138 151 99 151 z "},"ٓ":{"ha":0,"x_min":0,"x_max":438,"o":"m 0 -53 q 35 -28 32 -49 q 39 22 39 -7 l 39 100 l 108 111 l 108 22 q 94 -33 108 -15 q 61 -55 81 -50 q 24 -57 42 -60 q 0 -53 7 -54 m 64 0 l 64 69 l 325 69 l 325 0 l 64 0 m 299 0 l 299 69 l 347 69 q 369 75 358 69 q 385 92 379 81 l 438 0 l 299 0 z "},"ۤ":{"ha":0,"x_min":0,"x_max":438,"o":"m 0 -53 q 35 -28 32 -49 q 39 22 39 -7 l 39 100 l 108 111 l 108 22 q 94 -33 108 -15 q 61 -55 81 -50 q 24 -57 42 -60 q 0 -53 7 -54 m 64 0 l 64 69 l 325 69 l 325 0 l 64 0 m 299 0 l 299 69 l 347 69 q 369 75 358 69 q 385 92 379 81 l 438 0 l 299 0 z "},"ٚ":{"ha":0,"x_min":0,"x_max":344,"o":"m 0 107 l 65 172 l 192 40 l 151 31 l 279 172 l 344 106 l 174 -69 l 0 107 z "},"ۡ":{"ha":0,"x_min":0,"x_max":318,"o":"m 43 332 l 43 381 l 318 381 l 318 332 l 43 332 m 43 272 l 0 293 l 43 381 l 86 360 l 43 272 m 46 107 l 38 156 q 129 192 83 164 q 213 261 175 219 q 274 351 251 303 l 318 332 q 252 233 294 281 q 156 151 210 185 q 46 107 103 117 z "},"A":{"ha":972,"x_min":39,"x_max":933,"o":"m 39 0 l 482 1049 l 490 1049 l 933 0 l 765 0 l 443 821 l 547 889 l 183 0 l 39 0 m 307 378 l 668 378 l 718 253 l 264 253 l 307 378 z "},"Á":{"ha":972,"x_min":39,"x_max":933,"o":"m 39 0 l 482 1049 l 490 1049 l 933 0 l 765 0 l 443 821 l 547 889 l 183 0 l 39 0 m 307 378 l 668 378 l 718 253 l 264 253 l 307 378 m 707 1275 l 526 1089 l 439 1089 l 551 1275 l 707 1275 z "},"Ă":{"ha":972,"x_min":39,"x_max":933,"o":"m 39 0 l 482 1049 l 490 1049 l 933 0 l 765 0 l 443 821 l 547 889 l 183 0 l 39 0 m 307 378 l 668 378 l 718 253 l 264 253 l 307 378 m 488 1094 q 344 1158 399 1094 q 274 1342 290 1222 l 368 1342 q 406 1233 378 1276 q 488 1190 435 1190 q 568 1233 540 1190 q 604 1342 596 1276 l 700 1342 q 631 1157 685 1219 q 488 1094 576 1094 z "},"Ắ":{"ha":972,"x_min":39,"x_max":933,"o":"m 39 0 l 482 1049 l 490 1049 l 933 0 l 765 0 l 443 821 l 547 889 l 183 0 l 39 0 m 307 378 l 668 378 l 718 253 l 264 253 l 307 378 m 488 1094 q 344 1158 399 1094 q 274 1342 290 1222 l 368 1342 q 406 1233 378 1276 q 488 1190 435 1190 q 568 1233 540 1190 q 604 1342 596 1276 l 700 1342 q 631 1157 685 1219 q 488 1094 576 1094 m 706 1579 l 525 1393 l 438 1393 l 550 1579 l 706 1579 z "},"Ặ":{"ha":972,"x_min":39,"x_max":933,"o":"m 39 0 l 482 1049 l 490 1049 l 933 0 l 765 0 l 443 821 l 547 889 l 183 0 l 39 0 m 307 378 l 668 378 l 718 253 l 264 253 l 307 378 m 403 -144 q 428 -90 403 -112 q 485 -68 454 -68 q 540 -90 515 -68 q 565 -144 565 -112 q 540 -200 565 -179 q 485 -221 515 -221 q 428 -200 454 -221 q 403 -144 403 -179 m 488 1094 q 344 1158 399 1094 q 274 1342 290 1222 l 368 1342 q 406 1233 378 1276 q 488 1190 435 1190 q 568 1233 540 1190 q 604 1342 596 1276 l 700 1342 q 631 1157 685 1219 q 488 1094 576 1094 z "},"Ằ":{"ha":972,"x_min":39,"x_max":933,"o":"m 39 0 l 482 1049 l 490 1049 l 933 0 l 765 0 l 443 821 l 547 889 l 183 0 l 39 0 m 307 378 l 668 378 l 718 253 l 264 253 l 307 378 m 488 1094 q 344 1158 399 1094 q 274 1342 290 1222 l 368 1342 q 406 1233 378 1276 q 488 1190 435 1190 q 568 1233 540 1190 q 604 1342 596 1276 l 700 1342 q 631 1157 685 1219 q 488 1094 576 1094 m 268 1588 l 422 1588 l 521 1401 l 433 1401 l 268 1588 z "},"Ẳ":{"ha":972,"x_min":39,"x_max":933,"o":"m 39 0 l 482 1049 l 490 1049 l 933 0 l 765 0 l 443 821 l 547 889 l 183 0 l 39 0 m 307 378 l 668 378 l 718 253 l 264 253 l 307 378 m 488 1094 q 344 1158 399 1094 q 274 1342 290 1222 l 368 1342 q 406 1233 378 1276 q 488 1190 435 1190 q 568 1233 540 1190 q 604 1342 596 1276 l 700 1342 q 631 1157 685 1219 q 488 1094 576 1094 m 475 1446 q 519 1484 503 1465 q 536 1528 536 1503 q 525 1563 536 1550 q 492 1576 514 1576 q 455 1565 469 1576 q 428 1535 440 1554 l 376 1568 q 435 1634 400 1613 q 510 1656 471 1656 q 569 1640 546 1656 q 605 1600 593 1625 q 617 1546 617 1575 q 585 1464 617 1497 q 508 1403 553 1431 l 475 1446 z "},"Ẵ":{"ha":972,"x_min":39,"x_max":933,"o":"m 39 0 l 482 1049 l 490 1049 l 933 0 l 765 0 l 443 821 l 547 889 l 183 0 l 39 0 m 307 378 l 668 378 l 718 253 l 264 253 l 307 378 m 488 1094 q 344 1158 399 1094 q 274 1342 290 1222 l 368 1342 q 406 1233 378 1276 q 488 1190 435 1190 q 568 1233 540 1190 q 604 1342 596 1276 l 700 1342 q 631 1157 685 1219 q 488 1094 576 1094 m 590 1443 q 516 1463 546 1443 q 463 1504 486 1482 q 429 1532 446 1519 q 393 1544 413 1544 q 352 1516 367 1544 q 339 1442 338 1488 l 265 1442 q 276 1540 261 1496 q 324 1610 292 1585 q 401 1636 357 1636 q 464 1617 438 1636 q 513 1575 490 1597 q 550 1543 532 1557 q 588 1529 568 1529 q 626 1559 615 1529 q 636 1636 638 1589 l 710 1636 q 702 1534 717 1578 q 658 1467 688 1490 q 590 1443 628 1443 z "},"Â":{"ha":972,"x_min":39,"x_max":933,"o":"m 39 0 l 482 1049 l 490 1049 l 933 0 l 765 0 l 443 821 l 547 889 l 183 0 l 39 0 m 307 378 l 668 378 l 718 253 l 264 253 l 307 378 m 586 1111 l 460 1242 l 499 1253 l 371 1111 l 243 1111 l 476 1353 l 478 1353 l 715 1111 l 586 1111 z "},"Ấ":{"ha":972,"x_min":39,"x_max":933,"o":"m 39 0 l 482 1049 l 490 1049 l 933 0 l 765 0 l 443 821 l 547 889 l 183 0 l 39 0 m 307 378 l 668 378 l 718 253 l 264 253 l 307 378 m 597 1135 l 471 1265 l 510 1276 l 382 1135 l 254 1135 l 488 1376 l 489 1376 l 726 1135 l 597 1135 m 878 1458 l 697 1272 l 610 1272 l 722 1458 l 878 1458 z "},"Ậ":{"ha":972,"x_min":39,"x_max":933,"o":"m 39 0 l 482 1049 l 490 1049 l 933 0 l 765 0 l 443 821 l 547 889 l 183 0 l 39 0 m 307 378 l 668 378 l 718 253 l 264 253 l 307 378 m 403 -144 q 428 -90 403 -112 q 485 -68 454 -68 q 540 -90 515 -68 q 565 -144 565 -112 q 540 -200 565 -179 q 485 -221 515 -221 q 428 -200 454 -221 q 403 -144 403 -179 m 586 1111 l 460 1242 l 499 1253 l 371 1111 l 243 1111 l 476 1353 l 478 1353 l 715 1111 l 586 1111 z "},"Ầ":{"ha":972,"x_min":39,"x_max":933,"o":"m 39 0 l 482 1049 l 490 1049 l 933 0 l 765 0 l 443 821 l 547 889 l 183 0 l 39 0 m 307 378 l 668 378 l 718 253 l 264 253 l 307 378 m 586 1131 l 460 1261 l 499 1272 l 371 1131 l 243 1131 l 476 1372 l 478 1372 l 715 1131 l 586 1131 m 51 1467 l 206 1467 l 304 1281 l 217 1281 l 51 1467 z "},"Ẩ":{"ha":972,"x_min":39,"x_max":933,"o":"m 39 0 l 482 1049 l 490 1049 l 933 0 l 765 0 l 443 821 l 547 889 l 183 0 l 39 0 m 307 378 l 668 378 l 718 253 l 264 253 l 307 378 m 592 1135 l 465 1265 l 504 1276 l 376 1135 l 249 1135 l 482 1376 l 483 1376 l 721 1135 l 592 1135 m 706 1281 q 750 1319 733 1300 q 767 1363 767 1338 q 756 1398 767 1385 q 722 1411 744 1411 q 685 1400 700 1411 q 658 1369 671 1389 l 607 1403 q 666 1469 631 1447 q 740 1490 701 1490 q 800 1475 776 1490 q 835 1435 824 1460 q 847 1381 847 1410 q 815 1299 847 1332 q 739 1238 783 1265 l 706 1281 z "},"Ẫ":{"ha":972,"x_min":39,"x_max":933,"o":"m 39 0 l 482 1049 l 490 1049 l 933 0 l 765 0 l 443 821 l 547 889 l 183 0 l 39 0 m 307 378 l 668 378 l 718 253 l 264 253 l 307 378 m 586 1126 l 460 1257 l 499 1268 l 371 1126 l 243 1126 l 476 1368 l 478 1368 l 715 1126 l 586 1126 m 588 1403 q 513 1423 542 1403 q 458 1465 483 1443 q 426 1493 443 1481 q 390 1506 410 1506 q 349 1476 364 1506 q 335 1403 333 1447 l 261 1403 q 272 1501 257 1457 q 320 1572 288 1546 q 397 1597 353 1597 q 460 1578 433 1597 q 508 1536 486 1558 q 546 1504 528 1518 q 583 1490 564 1490 q 622 1520 611 1490 q 632 1597 633 1550 l 707 1597 q 699 1495 714 1539 q 654 1427 683 1451 q 588 1403 625 1403 z "},"Ȁ":{"ha":972,"x_min":39,"x_max":933,"o":"m 39 0 l 482 1049 l 490 1049 l 933 0 l 765 0 l 443 821 l 547 889 l 183 0 l 39 0 m 307 378 l 668 378 l 718 253 l 264 253 l 307 378 m 200 1294 l 354 1294 l 453 1108 l 365 1108 l 200 1294 m 404 1294 l 558 1294 l 657 1108 l 569 1108 l 404 1294 z "},"Ä":{"ha":972,"x_min":39,"x_max":933,"o":"m 39 0 l 482 1049 l 490 1049 l 933 0 l 765 0 l 443 821 l 547 889 l 183 0 l 39 0 m 307 378 l 668 378 l 718 253 l 264 253 l 307 378 m 271 1174 q 295 1230 271 1207 q 349 1253 319 1253 q 401 1230 376 1253 q 425 1174 425 1207 q 401 1117 425 1139 q 349 1096 376 1096 q 295 1117 319 1096 q 271 1174 271 1139 l 271 1174 m 533 1174 q 558 1230 533 1207 q 611 1253 582 1253 q 663 1230 639 1253 q 688 1174 688 1207 q 663 1117 688 1139 q 611 1096 639 1096 q 558 1117 582 1096 q 533 1174 533 1139 l 533 1174 z "},"Ạ":{"ha":972,"x_min":39,"x_max":933,"o":"m 39 0 l 482 1049 l 490 1049 l 933 0 l 765 0 l 443 821 l 547 889 l 183 0 l 39 0 m 307 378 l 668 378 l 718 253 l 264 253 l 307 378 m 403 -144 q 428 -90 403 -112 q 485 -68 454 -68 q 540 -90 515 -68 q 565 -144 565 -112 q 540 -200 565 -179 q 485 -221 515 -221 q 428 -200 454 -221 q 403 -144 403 -179 z "},"À":{"ha":972,"x_min":39,"x_max":933,"o":"m 39 0 l 482 1049 l 490 1049 l 933 0 l 765 0 l 443 821 l 547 889 l 183 0 l 39 0 m 307 378 l 668 378 l 718 253 l 264 253 l 307 378 m 269 1283 l 424 1283 l 522 1097 l 435 1097 l 269 1283 z "},"Ả":{"ha":972,"x_min":39,"x_max":933,"o":"m 39 0 l 482 1049 l 490 1049 l 933 0 l 765 0 l 443 821 l 547 889 l 183 0 l 39 0 m 307 378 l 668 378 l 718 253 l 264 253 l 307 378 m 476 1142 q 521 1180 504 1161 q 538 1224 538 1199 q 526 1259 538 1246 q 493 1272 515 1272 q 456 1261 471 1272 q 429 1231 442 1250 l 378 1264 q 437 1330 401 1308 q 511 1351 472 1351 q 571 1336 547 1351 q 606 1296 594 1321 q 618 1242 618 1271 q 586 1160 618 1193 q 510 1099 554 1126 l 476 1142 z "},"Ȃ":{"ha":972,"x_min":39,"x_max":933,"o":"m 39 0 l 482 1049 l 490 1049 l 933 0 l 765 0 l 443 821 l 547 889 l 183 0 l 39 0 m 307 378 l 668 378 l 718 253 l 264 253 l 307 378 m 479 1310 q 624 1246 569 1310 q 694 1063 678 1182 l 599 1063 q 561 1171 589 1128 q 479 1214 533 1214 q 399 1171 426 1214 q 363 1063 372 1128 l 268 1063 q 337 1247 283 1185 q 479 1310 390 1310 z "},"Ā":{"ha":972,"x_min":39,"x_max":933,"o":"m 39 0 l 482 1049 l 490 1049 l 933 0 l 765 0 l 443 821 l 547 889 l 183 0 l 39 0 m 307 378 l 668 378 l 718 253 l 264 253 l 307 378 m 311 1200 l 654 1200 l 654 1101 l 311 1101 l 311 1200 z "},"Ą":{"ha":972,"x_min":39,"x_max":985,"o":"m 39 0 l 482 1049 l 490 1049 l 933 0 l 765 0 l 443 821 l 547 889 l 183 0 l 39 0 m 307 378 l 668 378 l 718 253 l 264 253 l 307 378 m 824 -303 q 703 -260 753 -303 q 654 -147 654 -217 q 688 -54 654 -99 q 778 14 722 -10 l 933 0 q 815 -64 860 -32 q 771 -136 771 -96 q 791 -187 771 -172 q 836 -203 811 -203 q 932 -136 892 -203 l 985 -207 q 913 -276 958 -249 q 824 -303 868 -303 z "},"Å":{"ha":972,"x_min":39,"x_max":933,"o":"m 39 0 l 482 1049 l 490 1049 l 933 0 l 765 0 l 443 821 l 547 889 l 183 0 l 39 0 m 307 378 l 668 378 l 718 253 l 264 253 l 307 378 m 356 1221 q 394 1313 356 1278 q 490 1349 432 1349 q 585 1313 547 1349 q 624 1221 624 1278 q 585 1129 624 1165 q 490 1093 547 1093 q 394 1128 432 1093 q 356 1221 356 1164 m 431 1219 q 447 1176 431 1193 q 490 1158 464 1158 q 532 1176 515 1158 q 549 1219 549 1193 q 532 1264 549 1247 q 490 1281 515 1281 q 447 1264 464 1281 q 431 1219 431 1247 z "},"Ǻ":{"ha":972,"x_min":39,"x_max":933,"o":"m 39 0 l 482 1049 l 490 1049 l 933 0 l 765 0 l 443 821 l 547 889 l 183 0 l 39 0 m 307 378 l 668 378 l 718 253 l 264 253 l 307 378 m 356 1221 q 394 1313 356 1278 q 490 1349 432 1349 q 585 1313 547 1349 q 624 1221 624 1278 q 585 1129 624 1165 q 490 1093 547 1093 q 394 1128 432 1093 q 356 1221 356 1164 m 431 1219 q 447 1176 431 1193 q 490 1158 464 1158 q 532 1176 515 1158 q 549 1219 549 1193 q 532 1264 549 1247 q 490 1281 515 1281 q 447 1264 464 1281 q 431 1219 431 1247 m 707 1588 l 526 1401 l 439 1401 l 551 1588 l 707 1588 z "},"Ã":{"ha":972,"x_min":39,"x_max":933,"o":"m 39 0 l 482 1049 l 490 1049 l 933 0 l 765 0 l 443 821 l 547 889 l 183 0 l 39 0 m 307 378 l 668 378 l 718 253 l 264 253 l 307 378 m 592 1139 q 517 1158 547 1139 q 464 1200 488 1178 q 431 1228 447 1215 q 394 1240 414 1240 q 353 1212 368 1240 q 340 1138 339 1183 l 267 1138 q 278 1236 263 1192 q 326 1306 293 1281 q 403 1332 358 1332 q 465 1313 439 1332 q 514 1271 492 1293 q 551 1239 533 1253 q 589 1225 569 1225 q 628 1255 617 1225 q 638 1332 639 1285 l 711 1332 q 703 1230 718 1274 q 659 1163 689 1186 q 592 1139 629 1139 z "},"Æ":{"ha":1324,"x_min":15,"x_max":1236,"o":"m 664 1007 l 1217 1007 l 1217 867 l 810 867 l 810 574 l 1161 574 l 1161 433 l 810 433 l 810 140 l 1236 140 l 1236 0 l 664 0 l 664 1007 m 685 843 q 677 813 682 829 q 669 793 672 796 l 183 0 l 15 0 l 664 1007 l 685 843 m 331 360 l 685 360 l 685 244 l 286 244 l 331 360 z "},"Ǽ":{"ha":1324,"x_min":15,"x_max":1236,"o":"m 664 1007 l 1217 1007 l 1217 867 l 810 867 l 810 574 l 1161 574 l 1161 433 l 810 433 l 810 140 l 1236 140 l 1236 0 l 664 0 l 664 1007 m 685 843 q 677 813 682 829 q 669 793 672 796 l 183 0 l 15 0 l 664 1007 l 685 843 m 331 360 l 685 360 l 685 244 l 286 244 l 331 360 m 1133 1256 l 953 1069 l 865 1069 l 978 1256 l 1133 1256 z "},"B":{"ha":865,"x_min":143,"x_max":786,"o":"m 408 1007 q 649 944 561 1007 q 736 753 736 882 q 699 612 736 671 q 594 519 661 553 q 436 482 526 486 l 415 560 q 604 523 521 557 q 737 428 688 489 q 786 285 786 368 q 758 154 786 208 q 681 66 729 100 q 573 16 633 32 q 447 0 513 0 l 143 0 l 143 1007 l 408 1007 m 435 571 q 550 616 514 571 q 586 722 586 661 q 540 832 586 797 q 415 867 493 867 l 288 867 l 288 571 l 435 571 m 440 135 q 579 171 522 135 q 636 283 636 207 q 606 371 636 339 q 528 417 575 403 q 431 431 481 431 l 288 431 l 288 135 l 440 135 z "},"C":{"ha":964,"x_min":81,"x_max":885,"o":"m 885 76 q 817 40 861 61 q 715 3 774 18 q 586 -11 656 -12 q 375 31 468 -10 q 216 141 282 71 q 115 302 150 211 q 81 496 81 393 q 117 705 81 610 q 221 870 154 800 q 378 979 288 940 q 578 1018 469 1018 q 744 993 669 1018 q 871 936 819 968 l 813 800 q 713 853 772 828 q 582 878 654 878 q 408 828 488 878 q 280 693 328 778 q 232 503 232 608 q 276 311 232 396 q 400 178 319 226 q 589 129 481 129 q 726 153 667 129 q 822 207 785 176 l 885 76 z "},"Ć":{"ha":964,"x_min":81,"x_max":885,"o":"m 885 76 q 817 40 861 61 q 715 3 774 18 q 586 -11 656 -12 q 375 31 468 -10 q 216 141 282 71 q 115 302 150 211 q 81 496 81 393 q 117 705 81 610 q 221 870 154 800 q 378 979 288 940 q 578 1018 469 1018 q 744 993 669 1018 q 871 936 819 968 l 813 800 q 713 853 772 828 q 582 878 654 878 q 408 828 488 878 q 280 693 328 778 q 232 503 232 608 q 276 311 232 396 q 400 178 319 226 q 589 129 481 129 q 726 153 667 129 q 822 207 785 176 l 885 76 m 772 1260 l 592 1074 l 504 1074 l 617 1260 l 772 1260 z "},"Č":{"ha":964,"x_min":81,"x_max":885,"o":"m 885 76 q 817 40 861 61 q 715 3 774 18 q 586 -11 656 -12 q 375 31 468 -10 q 216 141 282 71 q 115 302 150 211 q 81 496 81 393 q 117 705 81 610 q 221 870 154 800 q 378 979 288 940 q 578 1018 469 1018 q 744 993 669 1018 q 871 936 819 968 l 813 800 q 713 853 772 828 q 582 878 654 878 q 408 828 488 878 q 280 693 328 778 q 232 503 232 608 q 276 311 232 396 q 400 178 319 226 q 589 129 481 129 q 726 153 667 129 q 822 207 785 176 l 885 76 m 442 1306 l 568 1174 l 528 1164 l 656 1306 l 785 1306 l 551 1064 l 550 1064 l 313 1306 l 442 1306 z "},"Ç":{"ha":964,"x_min":81,"x_max":885,"o":"m 885 76 q 817 40 861 61 q 715 3 774 18 q 586 -11 656 -12 q 375 31 468 -10 q 216 141 282 71 q 115 302 150 211 q 81 496 81 393 q 117 705 81 610 q 221 870 154 800 q 378 979 288 940 q 578 1018 469 1018 q 744 993 669 1018 q 871 936 819 968 l 813 800 q 713 853 772 828 q 582 878 654 878 q 408 828 488 878 q 280 693 328 778 q 232 503 232 608 q 276 311 232 396 q 400 178 319 226 q 589 129 481 129 q 726 153 667 129 q 822 207 785 176 l 885 76 m 449 -210 q 487 -235 464 -225 q 539 -246 510 -246 q 602 -231 574 -246 q 631 -185 631 -215 q 612 -144 631 -162 q 544 -125 593 -125 q 497 -131 522 -125 q 454 -142 472 -136 l 431 -75 l 526 13 l 635 8 l 533 -110 l 503 -75 q 538 -65 518 -68 q 578 -61 558 -62 q 701 -91 653 -60 q 749 -183 749 -122 q 721 -261 749 -231 q 649 -307 693 -292 q 554 -322 606 -322 q 464 -306 500 -322 q 404 -268 428 -290 l 449 -210 z "},"Ĉ":{"ha":964,"x_min":81,"x_max":885,"o":"m 885 76 q 817 40 861 61 q 715 3 774 18 q 586 -11 656 -12 q 375 31 468 -10 q 216 141 282 71 q 115 302 150 211 q 81 496 81 393 q 117 705 81 610 q 221 870 154 800 q 378 979 288 940 q 578 1018 469 1018 q 744 993 669 1018 q 871 936 819 968 l 813 800 q 713 853 772 828 q 582 878 654 878 q 408 828 488 878 q 280 693 328 778 q 232 503 232 608 q 276 311 232 396 q 400 178 319 226 q 589 129 481 129 q 726 153 667 129 q 822 207 785 176 l 885 76 m 651 1096 l 525 1226 l 564 1238 l 436 1096 l 308 1096 l 542 1338 l 543 1338 l 781 1096 l 651 1096 z "},"Ċ":{"ha":964,"x_min":81,"x_max":885,"o":"m 885 76 q 817 40 861 61 q 715 3 774 18 q 586 -11 656 -12 q 375 31 468 -10 q 216 141 282 71 q 115 302 150 211 q 81 496 81 393 q 117 705 81 610 q 221 870 154 800 q 378 979 288 940 q 578 1018 469 1018 q 744 993 669 1018 q 871 936 819 968 l 813 800 q 713 853 772 828 q 582 878 654 878 q 408 828 488 878 q 280 693 328 778 q 232 503 232 608 q 276 311 232 396 q 400 178 319 226 q 589 129 481 129 q 726 153 667 129 q 822 207 785 176 l 885 76 m 471 1157 q 497 1211 471 1189 q 553 1233 522 1233 q 608 1211 583 1233 q 633 1157 633 1189 q 608 1101 633 1122 q 553 1081 583 1081 q 497 1101 522 1081 q 471 1157 471 1122 z "},"D":{"ha":1050,"x_min":143,"x_max":971,"o":"m 143 0 l 143 1007 l 422 1007 q 676 962 572 1007 q 846 841 781 917 q 941 674 911 765 q 971 490 971 582 q 931 287 971 378 q 822 132 892 196 q 661 34 751 68 q 471 0 571 0 l 143 0 m 288 140 l 443 140 q 638 182 553 140 q 772 304 722 224 q 821 500 821 385 q 790 663 821 594 q 707 777 758 732 q 592 844 656 822 q 461 867 528 867 l 288 867 l 288 140 z "},"Ǆ":{"ha":1965,"x_min":143,"x_max":1890,"o":"m 143 0 l 143 1007 l 422 1007 q 676 962 572 1007 q 846 841 781 917 q 941 674 911 765 q 971 490 971 582 q 931 287 971 378 q 822 132 892 196 q 661 34 751 68 q 471 0 571 0 l 143 0 m 288 140 l 443 140 q 638 182 553 140 q 772 304 722 224 q 821 500 821 385 q 790 663 821 594 q 707 777 758 732 q 592 844 656 822 q 461 867 528 867 l 288 867 l 288 140 m 1043 0 q 1085 63 1056 18 q 1157 169 1115 107 q 1247 306 1199 232 q 1345 456 1294 379 q 1444 605 1396 532 q 1534 740 1493 678 q 1605 846 1575 803 q 1649 907 1635 889 l 1667 867 l 1219 867 q 1165 877 1192 867 q 1120 908 1138 888 q 1103 954 1103 928 l 1103 1057 l 1238 1057 l 1238 1039 q 1247 1010 1238 1014 q 1281 1007 1257 1007 l 1878 1007 l 1281 122 l 1272 140 l 1890 140 l 1890 0 l 1043 0 m 1360 1282 l 1486 1150 l 1446 1140 l 1574 1282 l 1703 1282 l 1469 1040 l 1468 1040 l 1231 1282 l 1360 1282 z "},"Ð":{"ha":1050,"x_min":24,"x_max":971,"o":"m 143 0 l 143 1007 l 422 1007 q 676 962 572 1007 q 846 841 781 917 q 941 674 911 765 q 971 490 971 582 q 931 287 971 378 q 822 132 892 196 q 661 34 751 68 q 471 0 571 0 l 143 0 m 288 140 l 443 140 q 638 182 553 140 q 772 304 722 224 q 821 500 821 385 q 790 663 821 594 q 707 777 758 732 q 592 844 656 822 q 461 867 528 867 l 288 867 l 288 140 m 24 565 l 418 565 l 418 435 l 24 435 l 24 565 z "},"Ď":{"ha":1050,"x_min":143,"x_max":971,"o":"m 143 0 l 143 1007 l 422 1007 q 676 962 572 1007 q 846 841 781 917 q 941 674 911 765 q 971 490 971 582 q 931 287 971 378 q 822 132 892 196 q 661 34 751 68 q 471 0 571 0 l 143 0 m 288 140 l 443 140 q 638 182 553 140 q 772 304 722 224 q 821 500 821 385 q 790 663 821 594 q 707 777 758 732 q 592 844 656 822 q 461 867 528 867 l 288 867 l 288 140 m 319 1282 l 446 1150 l 406 1140 l 533 1282 l 663 1282 l 429 1040 l 428 1040 l 190 1282 l 319 1282 z "},"Đ":{"ha":1061,"x_min":35,"x_max":982,"o":"m 154 0 l 154 1007 l 433 1007 q 688 962 583 1007 q 857 841 792 917 q 952 674 922 765 q 982 490 982 582 q 942 287 982 378 q 833 132 903 196 q 672 34 763 68 q 482 0 582 0 l 154 0 m 299 140 l 454 140 q 649 182 564 140 q 783 304 733 224 q 832 500 832 385 q 801 663 832 594 q 718 777 769 732 q 603 844 667 822 q 472 867 539 867 l 299 867 l 299 140 m 35 565 l 429 565 l 429 435 l 35 435 l 35 565 z "},"ǅ":{"ha":1707,"x_min":143,"x_max":1638,"o":"m 143 0 l 143 1007 l 422 1007 q 676 962 572 1007 q 846 841 781 917 q 941 674 911 765 q 971 490 971 582 q 931 287 971 378 q 822 132 892 196 q 661 34 751 68 q 471 0 571 0 l 143 0 m 288 140 l 443 140 q 638 182 553 140 q 772 304 722 224 q 821 500 821 385 q 790 663 821 594 q 707 777 758 732 q 592 844 656 822 q 461 867 528 867 l 288 867 l 288 140 m 1221 465 q 1144 494 1176 465 q 1113 576 1113 522 l 1113 636 l 1219 636 l 1219 617 q 1231 587 1219 593 q 1267 581 1242 581 l 1638 581 l 1294 86 l 1267 115 l 1632 115 l 1632 0 l 1088 0 l 1438 506 l 1460 465 l 1221 465 m 1283 893 l 1410 761 l 1369 751 l 1497 893 l 1626 893 l 1393 651 l 1392 651 l 1154 893 l 1283 893 z "},"E":{"ha":910,"x_min":143,"x_max":822,"o":"m 143 1007 l 803 1007 l 803 867 l 288 867 l 288 576 l 747 576 l 747 436 l 288 436 l 288 140 l 822 140 l 822 0 l 143 0 l 143 1007 z "},"É":{"ha":910,"x_min":143,"x_max":822,"o":"m 143 1007 l 803 1007 l 803 867 l 288 867 l 288 576 l 747 576 l 747 436 l 288 436 l 288 140 l 822 140 l 822 0 l 143 0 l 143 1007 m 688 1256 l 507 1069 l 419 1069 l 532 1256 l 688 1256 z "},"Ĕ":{"ha":910,"x_min":143,"x_max":822,"o":"m 143 1007 l 803 1007 l 803 867 l 288 867 l 288 576 l 747 576 l 747 436 l 288 436 l 288 140 l 822 140 l 822 0 l 143 0 l 143 1007 m 468 1076 q 325 1140 379 1076 q 254 1324 271 1204 l 349 1324 q 387 1215 358 1258 q 468 1172 415 1172 q 549 1215 521 1172 q 585 1324 576 1258 l 681 1324 q 611 1139 665 1201 q 468 1076 557 1076 z "},"Ě":{"ha":910,"x_min":143,"x_max":822,"o":"m 143 1007 l 803 1007 l 803 867 l 288 867 l 288 576 l 747 576 l 747 436 l 288 436 l 288 140 l 822 140 l 822 0 l 143 0 l 143 1007 m 357 1301 l 483 1169 l 443 1160 l 571 1301 l 700 1301 l 467 1060 l 465 1060 l 228 1301 l 357 1301 z "},"Ê":{"ha":910,"x_min":143,"x_max":822,"o":"m 143 1007 l 803 1007 l 803 867 l 288 867 l 288 576 l 747 576 l 747 436 l 288 436 l 288 140 l 822 140 l 822 0 l 143 0 l 143 1007 m 567 1092 l 440 1222 l 479 1233 l 351 1092 l 224 1092 l 457 1333 l 458 1333 l 696 1092 l 567 1092 z "},"Ế":{"ha":910,"x_min":143,"x_max":858,"o":"m 143 1007 l 803 1007 l 803 867 l 288 867 l 288 576 l 747 576 l 747 436 l 288 436 l 288 140 l 822 140 l 822 0 l 143 0 l 143 1007 m 578 1115 l 451 1246 l 490 1257 l 363 1115 l 235 1115 l 468 1357 l 469 1357 l 707 1115 l 578 1115 m 858 1439 l 678 1253 l 590 1253 l 703 1439 l 858 1439 z "},"Ệ":{"ha":910,"x_min":143,"x_max":822,"o":"m 143 1007 l 803 1007 l 803 867 l 288 867 l 288 576 l 747 576 l 747 436 l 288 436 l 288 140 l 822 140 l 822 0 l 143 0 l 143 1007 m 383 -144 q 409 -90 383 -112 q 465 -68 435 -68 q 521 -90 496 -68 q 546 -144 546 -112 q 521 -200 546 -179 q 465 -221 496 -221 q 409 -200 435 -221 q 383 -144 383 -179 m 567 1092 l 440 1222 l 479 1233 l 351 1092 l 224 1092 l 457 1333 l 458 1333 l 696 1092 l 567 1092 z "},"Ề":{"ha":910,"x_min":33,"x_max":822,"o":"m 143 1007 l 803 1007 l 803 867 l 288 867 l 288 576 l 747 576 l 747 436 l 288 436 l 288 140 l 822 140 l 822 0 l 143 0 l 143 1007 m 568 1111 l 442 1242 l 481 1253 l 353 1111 l 225 1111 l 458 1353 l 460 1353 l 697 1111 l 568 1111 m 33 1447 l 188 1447 l 286 1261 l 199 1261 l 33 1447 z "},"Ể":{"ha":910,"x_min":143,"x_max":828,"o":"m 143 1007 l 803 1007 l 803 867 l 288 867 l 288 576 l 747 576 l 747 436 l 288 436 l 288 140 l 822 140 l 822 0 l 143 0 l 143 1007 m 572 1115 l 446 1246 l 485 1257 l 357 1115 l 229 1115 l 463 1357 l 464 1357 l 701 1115 l 572 1115 m 686 1261 q 731 1299 714 1281 q 747 1343 747 1318 q 736 1378 747 1365 q 703 1392 725 1392 q 666 1381 681 1392 q 639 1350 651 1369 l 588 1383 q 647 1449 611 1428 q 721 1471 682 1471 q 781 1456 757 1471 q 816 1415 804 1440 q 828 1361 828 1390 q 796 1279 828 1313 q 719 1218 764 1246 l 686 1261 z "},"Ễ":{"ha":910,"x_min":143,"x_max":822,"o":"m 143 1007 l 803 1007 l 803 867 l 288 867 l 288 576 l 747 576 l 747 436 l 288 436 l 288 140 l 822 140 l 822 0 l 143 0 l 143 1007 m 567 1107 l 440 1238 l 479 1249 l 351 1107 l 224 1107 l 457 1349 l 458 1349 l 696 1107 l 567 1107 m 568 1383 q 493 1403 522 1383 q 439 1446 464 1424 q 407 1474 424 1461 q 371 1486 390 1486 q 329 1457 344 1486 q 315 1383 314 1428 l 242 1383 q 253 1482 238 1438 q 301 1552 268 1526 q 378 1578 333 1578 q 440 1558 414 1578 q 489 1517 467 1539 q 526 1485 508 1499 q 564 1471 544 1471 q 603 1501 592 1471 q 613 1578 614 1531 l 688 1578 q 679 1476 694 1519 q 635 1408 664 1432 q 568 1383 606 1383 z "},"Ȅ":{"ha":910,"x_min":143,"x_max":822,"o":"m 143 1007 l 803 1007 l 803 867 l 288 867 l 288 576 l 747 576 l 747 436 l 288 436 l 288 140 l 822 140 l 822 0 l 143 0 l 143 1007 m 181 1276 l 335 1276 l 433 1090 l 346 1090 l 181 1276 m 385 1276 l 539 1276 l 638 1090 l 550 1090 l 385 1276 z "},"Ë":{"ha":910,"x_min":143,"x_max":822,"o":"m 143 1007 l 803 1007 l 803 867 l 288 867 l 288 576 l 747 576 l 747 436 l 288 436 l 288 140 l 822 140 l 822 0 l 143 0 l 143 1007 m 253 1156 q 277 1212 253 1189 q 331 1235 301 1235 q 383 1212 358 1235 q 407 1156 407 1189 q 383 1099 407 1121 q 331 1078 358 1078 q 277 1099 301 1078 q 253 1156 253 1121 l 253 1156 m 515 1156 q 540 1212 515 1189 q 593 1235 564 1235 q 645 1212 621 1235 q 669 1156 669 1189 q 645 1099 669 1121 q 593 1078 621 1078 q 540 1099 564 1078 q 515 1156 515 1121 l 515 1156 z "},"Ė":{"ha":910,"x_min":143,"x_max":822,"o":"m 143 1007 l 803 1007 l 803 867 l 288 867 l 288 576 l 747 576 l 747 436 l 288 436 l 288 140 l 822 140 l 822 0 l 143 0 l 143 1007 m 386 1153 q 412 1207 386 1185 q 468 1229 438 1229 q 524 1207 499 1229 q 549 1153 549 1185 q 524 1097 549 1118 q 468 1076 499 1076 q 412 1097 438 1076 q 386 1153 386 1118 z "},"Ẹ":{"ha":910,"x_min":143,"x_max":822,"o":"m 143 1007 l 803 1007 l 803 867 l 288 867 l 288 576 l 747 576 l 747 436 l 288 436 l 288 140 l 822 140 l 822 0 l 143 0 l 143 1007 m 383 -144 q 409 -90 383 -112 q 465 -68 435 -68 q 521 -90 496 -68 q 546 -144 546 -112 q 521 -200 546 -179 q 465 -221 496 -221 q 409 -200 435 -221 q 383 -144 383 -179 z "},"È":{"ha":910,"x_min":143,"x_max":822,"o":"m 143 1007 l 803 1007 l 803 867 l 288 867 l 288 576 l 747 576 l 747 436 l 288 436 l 288 140 l 822 140 l 822 0 l 143 0 l 143 1007 m 250 1264 l 404 1264 l 503 1078 l 415 1078 l 250 1264 z "},"Ẻ":{"ha":910,"x_min":143,"x_max":822,"o":"m 143 1007 l 803 1007 l 803 867 l 288 867 l 288 576 l 747 576 l 747 436 l 288 436 l 288 140 l 822 140 l 822 0 l 143 0 l 143 1007 m 457 1122 q 501 1160 485 1142 q 518 1204 518 1179 q 507 1240 518 1226 q 474 1253 496 1253 q 437 1242 451 1253 q 410 1211 422 1231 l 358 1244 q 417 1310 382 1289 q 492 1332 453 1332 q 551 1317 528 1332 q 587 1276 575 1301 q 599 1222 599 1251 q 567 1140 599 1174 q 490 1079 535 1107 l 457 1122 z "},"Ȇ":{"ha":910,"x_min":143,"x_max":822,"o":"m 143 1007 l 803 1007 l 803 867 l 288 867 l 288 576 l 747 576 l 747 436 l 288 436 l 288 140 l 822 140 l 822 0 l 143 0 l 143 1007 m 460 1290 q 604 1226 550 1290 q 675 1043 658 1163 l 579 1043 q 542 1151 569 1108 q 460 1194 514 1194 q 380 1151 407 1194 q 343 1043 353 1108 l 249 1043 q 317 1228 264 1165 q 460 1290 371 1290 z "},"Ē":{"ha":910,"x_min":143,"x_max":822,"o":"m 143 1007 l 803 1007 l 803 867 l 288 867 l 288 576 l 747 576 l 747 436 l 288 436 l 288 140 l 822 140 l 822 0 l 143 0 l 143 1007 m 292 1181 l 635 1181 l 635 1082 l 292 1082 l 292 1181 z "},"Ę":{"ha":910,"x_min":143,"x_max":874,"o":"m 143 1007 l 803 1007 l 803 867 l 288 867 l 288 576 l 747 576 l 747 436 l 288 436 l 288 140 l 822 140 l 822 0 l 143 0 l 143 1007 m 713 -303 q 592 -260 642 -303 q 543 -147 543 -217 q 577 -54 543 -99 q 667 14 611 -10 l 822 0 q 704 -64 749 -32 q 660 -136 660 -96 q 680 -187 660 -172 q 725 -203 700 -203 q 821 -136 781 -203 l 874 -207 q 802 -276 847 -249 q 713 -303 757 -303 z "},"Ẽ":{"ha":910,"x_min":143,"x_max":822,"o":"m 143 1007 l 803 1007 l 803 867 l 288 867 l 288 576 l 747 576 l 747 436 l 288 436 l 288 140 l 822 140 l 822 0 l 143 0 l 143 1007 m 574 1119 q 499 1139 529 1119 q 446 1181 469 1158 q 413 1208 429 1196 q 376 1221 396 1221 q 335 1192 350 1221 q 322 1118 321 1164 l 249 1118 q 260 1217 244 1172 q 308 1287 275 1261 q 385 1313 340 1313 q 447 1293 421 1313 q 496 1251 474 1274 q 533 1219 515 1233 q 571 1206 551 1206 q 610 1235 599 1206 q 619 1313 621 1265 l 693 1313 q 685 1210 700 1254 q 641 1143 671 1167 q 574 1119 611 1119 z "},"F":{"ha":821,"x_min":143,"x_max":746,"o":"m 143 1007 l 746 1007 l 746 867 l 288 867 l 288 561 l 688 561 l 688 422 l 288 422 l 288 0 l 143 0 l 143 1007 z "},"G":{"ha":1046,"x_min":81,"x_max":936,"o":"m 936 89 q 878 53 915 71 q 794 20 840 35 q 699 -3 747 6 q 607 -11 650 -11 q 328 53 446 -11 q 145 229 210 118 q 81 482 81 340 q 122 711 81 611 q 235 879 163 811 q 399 983 307 947 q 596 1018 492 1018 q 763 997 686 1018 q 896 944 839 976 l 847 810 q 778 841 819 826 q 694 864 738 856 q 614 872 650 872 q 411 826 497 872 q 278 696 325 781 q 231 494 231 611 q 278 306 231 388 q 412 179 326 225 q 610 133 497 133 q 708 143 660 133 q 789 172 756 153 l 789 358 l 593 358 l 593 499 l 936 499 l 936 89 z "},"Ğ":{"ha":1046,"x_min":81,"x_max":936,"o":"m 936 89 q 878 53 915 71 q 794 20 840 35 q 699 -3 747 6 q 607 -11 650 -11 q 328 53 446 -11 q 145 229 210 118 q 81 482 81 340 q 122 711 81 611 q 235 879 163 811 q 399 983 307 947 q 596 1018 492 1018 q 763 997 686 1018 q 896 944 839 976 l 847 810 q 778 841 819 826 q 694 864 738 856 q 614 872 650 872 q 411 826 497 872 q 278 696 325 781 q 231 494 231 611 q 278 306 231 388 q 412 179 326 225 q 610 133 497 133 q 708 143 660 133 q 789 172 756 153 l 789 358 l 593 358 l 593 499 l 936 499 l 936 89 m 567 1057 q 424 1121 478 1057 q 353 1304 369 1185 l 447 1304 q 485 1196 457 1239 q 567 1153 514 1153 q 647 1196 619 1153 q 683 1304 675 1239 l 779 1304 q 710 1119 764 1182 q 567 1057 656 1057 z "},"Ǧ":{"ha":1046,"x_min":81,"x_max":936,"o":"m 936 89 q 878 53 915 71 q 794 20 840 35 q 699 -3 747 6 q 607 -11 650 -11 q 328 53 446 -11 q 145 229 210 118 q 81 482 81 340 q 122 711 81 611 q 235 879 163 811 q 399 983 307 947 q 596 1018 492 1018 q 763 997 686 1018 q 896 944 839 976 l 847 810 q 778 841 819 826 q 694 864 738 856 q 614 872 650 872 q 411 826 497 872 q 278 696 325 781 q 231 494 231 611 q 278 306 231 388 q 412 179 326 225 q 610 133 497 133 q 708 143 660 133 q 789 172 756 153 l 789 358 l 593 358 l 593 499 l 936 499 l 936 89 m 457 1282 l 583 1150 l 543 1140 l 671 1282 l 800 1282 l 567 1040 l 565 1040 l 328 1282 l 457 1282 z "},"Ĝ":{"ha":1046,"x_min":81,"x_max":936,"o":"m 936 89 q 878 53 915 71 q 794 20 840 35 q 699 -3 747 6 q 607 -11 650 -11 q 328 53 446 -11 q 145 229 210 118 q 81 482 81 340 q 122 711 81 611 q 235 879 163 811 q 399 983 307 947 q 596 1018 492 1018 q 763 997 686 1018 q 896 944 839 976 l 847 810 q 778 841 819 826 q 694 864 738 856 q 614 872 650 872 q 411 826 497 872 q 278 696 325 781 q 231 494 231 611 q 278 306 231 388 q 412 179 326 225 q 610 133 497 133 q 708 143 660 133 q 789 172 756 153 l 789 358 l 593 358 l 593 499 l 936 499 l 936 89 m 667 1074 l 540 1204 l 579 1215 l 451 1074 l 324 1074 l 557 1315 l 558 1315 l 796 1074 l 667 1074 z "},"Ģ":{"ha":1046,"x_min":81,"x_max":936,"o":"m 936 89 q 878 53 915 71 q 794 20 840 35 q 699 -3 747 6 q 607 -11 650 -11 q 328 53 446 -11 q 145 229 210 118 q 81 482 81 340 q 122 711 81 611 q 235 879 163 811 q 399 983 307 947 q 596 1018 492 1018 q 763 997 686 1018 q 896 944 839 976 l 847 810 q 778 841 819 826 q 694 864 738 856 q 614 872 650 872 q 411 826 497 872 q 278 696 325 781 q 231 494 231 611 q 278 306 231 388 q 412 179 326 225 q 610 133 497 133 q 708 143 660 133 q 789 172 756 153 l 789 358 l 593 358 l 593 499 l 936 499 l 936 89 m 489 -303 l 418 -254 q 464 -172 450 -225 q 469 -67 478 -118 l 594 -68 q 591 -151 601 -106 q 555 -237 581 -196 q 489 -303 529 -278 z "},"Ġ":{"ha":1046,"x_min":81,"x_max":936,"o":"m 936 89 q 878 53 915 71 q 794 20 840 35 q 699 -3 747 6 q 607 -11 650 -11 q 328 53 446 -11 q 145 229 210 118 q 81 482 81 340 q 122 711 81 611 q 235 879 163 811 q 399 983 307 947 q 596 1018 492 1018 q 763 997 686 1018 q 896 944 839 976 l 847 810 q 778 841 819 826 q 694 864 738 856 q 614 872 650 872 q 411 826 497 872 q 278 696 325 781 q 231 494 231 611 q 278 306 231 388 q 412 179 326 225 q 610 133 497 133 q 708 143 660 133 q 789 172 756 153 l 789 358 l 593 358 l 593 499 l 936 499 l 936 89 m 485 1133 q 510 1188 485 1165 q 567 1210 536 1210 q 622 1188 597 1210 q 647 1133 647 1165 q 622 1078 647 1099 q 567 1057 597 1057 q 510 1078 536 1057 q 485 1133 485 1099 z "},"H":{"ha":1090,"x_min":143,"x_max":949,"o":"m 949 1007 l 949 0 l 803 0 l 803 436 l 288 436 l 288 0 l 143 0 l 143 1007 l 288 1007 l 288 575 l 803 575 l 803 1007 l 949 1007 z "},"Ħ":{"ha":1318,"x_min":143,"x_max":1175,"o":"m 143 799 l 1175 799 l 1175 690 l 143 690 l 143 799 m 1058 1007 l 1058 0 l 913 0 l 913 436 l 397 436 l 397 0 l 253 0 l 253 1007 l 397 1007 l 397 575 l 913 575 l 913 1007 l 1058 1007 z "},"Ĥ":{"ha":1090,"x_min":143,"x_max":949,"o":"m 949 1007 l 949 0 l 803 0 l 803 436 l 288 436 l 288 0 l 143 0 l 143 1007 l 288 1007 l 288 575 l 803 575 l 803 1007 l 949 1007 m 646 1074 l 519 1204 l 558 1215 l 431 1074 l 303 1074 l 536 1315 l 538 1315 l 775 1074 l 646 1074 z "},"I":{"ha":431,"x_min":143,"x_max":288,"o":"m 143 1007 l 288 1007 l 288 0 l 143 0 l 143 1007 z "},"Ĳ":{"ha":944,"x_min":143,"x_max":803,"o":"m 143 1007 l 288 1007 l 288 0 l 143 0 l 143 1007 m 803 188 q 756 -24 803 64 q 625 -158 708 -111 q 435 -208 542 -204 l 435 -208 l 435 -67 q 594 0 532 -61 q 657 192 657 61 l 657 1007 l 803 1007 l 803 188 z "},"Í":{"ha":431,"x_min":143,"x_max":438,"o":"m 143 1007 l 288 1007 l 288 0 l 143 0 l 143 1007 m 438 1256 l 257 1069 l 169 1069 l 282 1256 l 438 1256 z "},"Ĭ":{"ha":431,"x_min":3,"x_max":429,"o":"m 143 1007 l 288 1007 l 288 0 l 143 0 l 143 1007 m 217 1076 q 74 1140 128 1076 q 3 1324 19 1204 l 97 1324 q 135 1215 107 1258 q 217 1172 164 1172 q 297 1215 269 1172 q 333 1324 325 1258 l 429 1324 q 360 1139 414 1201 q 217 1076 306 1076 z "},"Î":{"ha":431,"x_min":-28,"x_max":444,"o":"m 143 1007 l 288 1007 l 288 0 l 143 0 l 143 1007 m 315 1092 l 189 1222 l 228 1233 l 100 1092 l -28 1092 l 206 1333 l 207 1333 l 444 1092 l 315 1092 z "},"Ȉ":{"ha":431,"x_min":-71,"x_max":386,"o":"m 143 1007 l 288 1007 l 288 0 l 143 0 l 143 1007 m -71 1276 l 83 1276 l 182 1090 l 94 1090 l -71 1276 m 133 1276 l 288 1276 l 386 1090 l 299 1090 l 133 1276 z "},"Ï":{"ha":431,"x_min":1,"x_max":418,"o":"m 143 1007 l 288 1007 l 288 0 l 143 0 l 143 1007 m 1 1156 q 26 1212 1 1189 q 79 1235 50 1235 q 131 1212 107 1235 q 156 1156 156 1189 q 131 1099 156 1121 q 79 1078 107 1078 q 26 1099 50 1078 q 1 1156 1 1121 l 1 1156 m 264 1156 q 288 1212 264 1189 q 342 1235 313 1235 q 394 1212 369 1235 q 418 1156 418 1189 q 394 1099 418 1121 q 342 1078 369 1078 q 288 1099 313 1078 q 264 1156 264 1121 l 264 1156 z "},"İ":{"ha":431,"x_min":135,"x_max":297,"o":"m 143 1007 l 288 1007 l 288 0 l 143 0 l 143 1007 m 135 1153 q 160 1207 135 1185 q 217 1229 186 1229 q 272 1207 247 1229 q 297 1153 297 1185 q 272 1097 297 1118 q 217 1076 247 1076 q 160 1097 186 1076 q 135 1153 135 1118 z "},"Ị":{"ha":431,"x_min":132,"x_max":294,"o":"m 143 1007 l 288 1007 l 288 0 l 143 0 l 143 1007 m 132 -144 q 158 -90 132 -112 q 214 -68 183 -68 q 269 -90 244 -68 q 294 -144 294 -112 q 269 -200 294 -179 q 214 -221 244 -221 q 158 -200 183 -221 q 132 -144 132 -179 z "},"Ì":{"ha":431,"x_min":-1,"x_max":288,"o":"m 143 1007 l 288 1007 l 288 0 l 143 0 l 143 1007 m -1 1264 l 153 1264 l 251 1078 l 164 1078 l -1 1264 z "},"Ỉ":{"ha":431,"x_min":107,"x_max":347,"o":"m 143 1007 l 288 1007 l 288 0 l 143 0 l 143 1007 m 206 1122 q 250 1160 233 1142 q 267 1204 267 1179 q 256 1240 267 1226 q 222 1253 244 1253 q 185 1242 200 1253 q 158 1211 171 1231 l 107 1244 q 166 1310 131 1289 q 240 1332 201 1332 q 300 1317 276 1332 q 335 1276 324 1301 q 347 1222 347 1251 q 315 1140 347 1174 q 239 1079 283 1107 l 206 1122 z "},"Ȋ":{"ha":431,"x_min":-3,"x_max":424,"o":"m 143 1007 l 288 1007 l 288 0 l 143 0 l 143 1007 m 208 1290 q 353 1226 299 1290 q 424 1043 407 1163 l 328 1043 q 290 1151 318 1108 q 208 1194 263 1194 q 128 1151 156 1194 q 92 1043 101 1108 l -3 1043 q 66 1228 13 1165 q 208 1290 119 1290 z "},"Ī":{"ha":431,"x_min":40,"x_max":383,"o":"m 143 1007 l 288 1007 l 288 0 l 143 0 l 143 1007 m 40 1181 l 383 1181 l 383 1082 l 40 1082 l 40 1181 z "},"Į":{"ha":382,"x_min":18,"x_max":349,"o":"m 188 -303 q 67 -265 117 -303 q 18 -157 18 -226 q 52 -64 18 -108 q 142 6 86 -19 l 257 8 l 282 0 q 174 -62 214 -31 q 135 -136 135 -93 q 155 -187 135 -172 q 201 -203 175 -203 q 296 -136 253 -203 l 349 -207 q 277 -276 322 -249 q 188 -303 232 -303 m 143 1007 l 288 1007 l 288 0 l 143 0 l 143 1007 z "},"Ĩ":{"ha":431,"x_min":-7,"x_max":449,"o":"m 143 1007 l 288 1007 l 288 0 l 143 0 l 143 1007 m 322 1119 q 248 1139 278 1119 q 194 1181 218 1158 q 161 1208 178 1196 q 125 1221 144 1221 q 84 1192 99 1221 q 71 1118 69 1164 l -3 1118 q 8 1217 -7 1172 q 56 1287 24 1261 q 133 1313 89 1313 q 196 1293 169 1313 q 244 1251 222 1274 q 282 1219 264 1233 q 319 1206 300 1206 q 358 1235 347 1206 q 368 1313 369 1265 l 442 1313 q 434 1210 449 1254 q 390 1143 419 1167 q 322 1119 360 1119 z "},"J":{"ha":515,"x_min":4,"x_max":372,"o":"m 372 188 q 325 -24 372 64 q 194 -158 278 -111 q 4 -208 111 -204 l 4 -208 l 4 -67 q 164 0 101 -61 q 226 192 226 61 l 226 1007 l 372 1007 l 372 188 z "},"Ĵ":{"ha":515,"x_min":4,"x_max":531,"o":"m 372 188 q 325 -24 372 64 q 194 -158 278 -111 q 4 -208 111 -204 l 4 -208 l 4 -67 q 164 0 101 -61 q 226 192 226 61 l 226 1007 l 372 1007 l 372 188 m 401 1092 l 275 1222 l 314 1233 l 186 1092 l 58 1092 l 292 1333 l 293 1333 l 531 1092 l 401 1092 z "},"K":{"ha":949,"x_min":143,"x_max":911,"o":"m 290 610 l 286 560 l 306 588 l 703 1007 l 892 1007 l 475 571 l 911 0 l 726 0 l 368 479 l 289 403 l 290 0 l 143 0 l 143 1007 l 290 1007 l 290 610 z "},"Ķ":{"ha":949,"x_min":143,"x_max":911,"o":"m 290 610 l 286 560 l 306 588 l 703 1007 l 892 1007 l 475 571 l 911 0 l 726 0 l 368 479 l 289 403 l 290 0 l 143 0 l 143 1007 l 290 1007 l 290 610 m 403 -303 l 332 -254 q 378 -172 364 -225 q 383 -67 392 -118 l 508 -68 q 505 -151 515 -106 q 469 -237 494 -196 q 403 -303 443 -278 z "},"L":{"ha":868,"x_min":143,"x_max":793,"o":"m 143 1007 l 288 1007 l 288 140 l 793 140 l 793 0 l 143 0 l 143 1007 z "},"Ǉ":{"ha":1383,"x_min":143,"x_max":1240,"o":"m 143 1007 l 288 1007 l 288 140 l 793 140 l 793 0 l 143 0 l 143 1007 m 1240 188 q 1193 -24 1240 64 q 1063 -158 1146 -111 q 872 -208 979 -204 l 872 -208 l 872 -67 q 1032 0 969 -61 q 1094 192 1094 61 l 1094 1007 l 1240 1007 l 1240 188 z "},"Ĺ":{"ha":868,"x_min":143,"x_max":793,"o":"m 143 1007 l 288 1007 l 288 140 l 793 140 l 793 0 l 143 0 l 143 1007 m 433 1256 l 253 1069 l 165 1069 l 278 1256 l 433 1256 z "},"Ľ":{"ha":860,"x_min":143,"x_max":793,"o":"m 143 1007 l 288 1007 l 288 140 l 793 140 l 793 0 l 143 0 l 143 1007 m 593 782 l 521 817 q 569 894 551 844 q 576 992 586 943 l 688 1001 q 684 919 696 963 q 648 840 672 876 q 593 782 624 803 l 593 782 z "},"Ļ":{"ha":868,"x_min":143,"x_max":793,"o":"m 143 1007 l 288 1007 l 288 140 l 793 140 l 793 0 l 143 0 l 143 1007 m 403 -303 l 332 -254 q 378 -172 364 -225 q 383 -67 392 -118 l 508 -68 q 505 -151 515 -106 q 469 -237 494 -196 q 403 -303 443 -278 z "},"Ŀ":{"ha":875,"x_min":143,"x_max":811,"o":"m 143 1007 l 288 1007 l 288 140 l 793 140 l 793 0 l 143 0 l 143 1007 m 658 536 q 683 592 658 569 q 736 615 707 615 q 788 592 764 615 q 811 536 811 569 q 788 480 811 501 q 736 458 764 458 q 683 480 707 458 q 658 536 658 501 l 658 536 z "},"ǈ":{"ha":1236,"x_min":143,"x_max":1146,"o":"m 143 1007 l 288 1007 l 288 140 l 793 140 l 793 0 l 143 0 l 143 1007 m 992 -279 l 908 -193 q 971 -111 949 -160 q 993 3 993 -62 l 993 581 l 1133 581 l 1133 -3 q 1100 -171 1133 -103 q 992 -279 1067 -239 m 983 789 q 1009 843 983 821 q 1065 865 1035 865 q 1121 843 1096 865 q 1146 789 1146 821 q 1121 733 1146 754 q 1065 713 1096 713 q 1009 733 1035 713 q 983 789 983 754 z "},"Ł":{"ha":860,"x_min":19,"x_max":793,"o":"m 543 650 l 572 535 l 49 365 l 19 479 l 543 650 m 143 1007 l 288 1007 l 288 140 l 793 140 l 793 0 l 143 0 l 143 1007 z "},"M":{"ha":1292,"x_min":143,"x_max":1150,"o":"m 143 0 l 143 1040 l 144 1040 l 678 283 l 615 296 l 1147 1040 l 1150 1040 l 1150 0 l 1006 0 l 1006 711 l 1014 638 l 642 108 l 639 108 l 258 638 l 283 706 l 283 0 l 143 0 z "},"N":{"ha":1167,"x_min":143,"x_max":1024,"o":"m 1019 -35 l 243 740 l 286 726 l 289 0 l 143 0 l 143 1039 l 149 1039 l 915 264 l 882 272 l 879 1007 l 1024 1007 l 1024 -35 l 1019 -35 z "},"Ǌ":{"ha":1682,"x_min":143,"x_max":1539,"o":"m 1019 -35 l 243 740 l 286 726 l 289 0 l 143 0 l 143 1039 l 149 1039 l 915 264 l 882 272 l 879 1007 l 1024 1007 l 1024 -35 l 1019 -35 m 1539 188 q 1492 -24 1539 64 q 1361 -158 1444 -111 q 1171 -208 1278 -204 l 1171 -208 l 1171 -67 q 1331 0 1268 -61 q 1393 192 1393 61 l 1393 1007 l 1539 1007 l 1539 188 z "},"Ń":{"ha":1167,"x_min":143,"x_max":1024,"o":"m 1019 -35 l 243 740 l 286 726 l 289 0 l 143 0 l 143 1039 l 149 1039 l 915 264 l 882 272 l 879 1007 l 1024 1007 l 1024 -35 l 1019 -35 m 786 1238 l 606 1051 l 518 1051 l 631 1238 l 786 1238 z "},"Ň":{"ha":1167,"x_min":143,"x_max":1024,"o":"m 1019 -35 l 243 740 l 286 726 l 289 0 l 143 0 l 143 1039 l 149 1039 l 915 264 l 882 272 l 879 1007 l 1024 1007 l 1024 -35 l 1019 -35 m 456 1282 l 582 1150 l 542 1140 l 669 1282 l 799 1282 l 565 1040 l 564 1040 l 326 1282 l 456 1282 z "},"Ņ":{"ha":1167,"x_min":143,"x_max":1024,"o":"m 1019 -35 l 243 740 l 286 726 l 289 0 l 143 0 l 143 1039 l 149 1039 l 915 264 l 882 272 l 879 1007 l 1024 1007 l 1024 -35 l 1019 -35 m 540 -303 l 469 -254 q 515 -172 501 -225 q 521 -67 529 -118 l 646 -68 q 642 -151 653 -106 q 606 -237 632 -196 q 540 -303 581 -278 z "},"Ŋ":{"ha":1119,"x_min":119,"x_max":1000,"o":"m 996 -35 l 219 742 l 261 726 l 265 0 l 119 0 l 119 1039 l 125 1039 l 892 263 l 858 272 l 856 1007 l 1000 1007 l 1000 -1 l 996 -35 m 1000 56 l 1000 -3 q 965 -165 1000 -96 q 858 -279 931 -235 l 776 -193 q 839 -111 817 -160 q 861 3 861 -62 l 861 183 l 1000 56 z "},"Ɲ":{"ha":1143,"x_min":35,"x_max":1000,"o":"m 996 -35 l 219 742 l 261 726 l 265 0 l 119 0 l 119 1039 l 125 1039 l 892 264 l 858 272 l 856 1007 l 1000 1007 l 1000 -1 l 996 -35 m 265 56 l 265 -3 q 231 -165 265 -96 q 125 -279 196 -235 l 35 -193 q 97 -111 75 -160 q 119 3 119 -62 l 119 183 l 265 56 z "},"ǋ":{"ha":1535,"x_min":143,"x_max":1444,"o":"m 1019 -35 l 243 740 l 286 726 l 289 0 l 143 0 l 143 1039 l 149 1039 l 915 264 l 882 272 l 879 1007 l 1024 1007 l 1024 -35 l 1019 -35 m 1290 -279 l 1207 -193 q 1269 -111 1247 -160 q 1292 3 1292 -62 l 1292 581 l 1432 581 l 1432 -3 q 1399 -171 1432 -103 q 1290 -279 1365 -239 m 1282 789 q 1308 843 1282 821 q 1364 865 1333 865 q 1419 843 1394 865 q 1444 789 1444 821 q 1419 733 1444 754 q 1364 713 1394 713 q 1308 733 1333 713 q 1282 789 1282 754 z "},"Ñ":{"ha":1167,"x_min":143,"x_max":1024,"o":"m 1019 -35 l 243 740 l 286 726 l 289 0 l 143 0 l 143 1039 l 149 1039 l 915 264 l 882 272 l 879 1007 l 1024 1007 l 1024 -35 l 1019 -35 m 671 1100 q 597 1119 626 1100 q 543 1161 567 1139 q 510 1189 526 1176 q 474 1201 493 1201 q 433 1173 447 1201 q 419 1099 418 1144 l 346 1099 q 357 1197 342 1153 q 405 1267 372 1242 q 482 1293 438 1293 q 544 1274 518 1293 q 593 1232 571 1254 q 631 1200 613 1214 q 668 1186 649 1186 q 707 1216 696 1186 q 717 1293 718 1246 l 790 1293 q 783 1191 797 1235 q 738 1124 768 1147 q 671 1100 708 1100 z "},"O":{"ha":1189,"x_min":81,"x_max":1110,"o":"m 81 503 q 120 700 81 607 q 231 865 160 793 q 394 977 301 936 q 593 1018 488 1018 q 792 977 699 1018 q 958 865 886 936 q 1069 700 1029 793 q 1110 503 1110 607 q 1069 303 1110 396 q 958 139 1029 210 q 792 28 886 68 q 593 -11 699 -11 q 394 28 488 -11 q 231 138 301 68 q 120 301 160 207 q 81 503 81 394 m 231 501 q 279 314 231 399 q 411 179 328 229 q 597 129 494 129 q 781 179 699 129 q 911 314 863 229 q 960 503 960 399 q 910 692 960 607 q 778 828 861 778 q 594 878 696 878 q 409 827 492 878 q 278 691 326 776 q 231 501 231 606 z "},"Ó":{"ha":1189,"x_min":81,"x_max":1110,"o":"m 81 503 q 120 700 81 607 q 231 865 160 793 q 394 977 301 936 q 593 1018 488 1018 q 792 977 699 1018 q 958 865 886 936 q 1069 700 1029 793 q 1110 503 1110 607 q 1069 303 1110 396 q 958 139 1029 210 q 792 28 886 68 q 593 -11 699 -11 q 394 28 488 -11 q 231 138 301 68 q 120 301 160 207 q 81 503 81 394 m 231 501 q 279 314 231 399 q 411 179 328 229 q 597 129 494 129 q 781 179 699 129 q 911 314 863 229 q 960 503 960 399 q 910 692 960 607 q 778 828 861 778 q 594 878 696 878 q 409 827 492 878 q 278 691 326 776 q 231 501 231 606 m 815 1246 l 635 1060 l 547 1060 l 660 1246 l 815 1246 z "},"Ŏ":{"ha":1189,"x_min":81,"x_max":1110,"o":"m 81 503 q 120 700 81 607 q 231 865 160 793 q 394 977 301 936 q 593 1018 488 1018 q 792 977 699 1018 q 958 865 886 936 q 1069 700 1029 793 q 1110 503 1110 607 q 1069 303 1110 396 q 958 139 1029 210 q 792 28 886 68 q 593 -11 699 -11 q 394 28 488 -11 q 231 138 301 68 q 120 301 160 207 q 81 503 81 394 m 231 501 q 279 314 231 399 q 411 179 328 229 q 597 129 494 129 q 781 179 699 129 q 911 314 863 229 q 960 503 960 399 q 910 692 960 607 q 778 828 861 778 q 594 878 696 878 q 409 827 492 878 q 278 691 326 776 q 231 501 231 606 m 596 1065 q 453 1129 507 1065 q 382 1313 399 1193 l 476 1313 q 515 1204 486 1247 q 596 1161 543 1161 q 676 1204 649 1161 q 713 1313 704 1247 l 808 1313 q 739 1128 793 1190 q 596 1065 685 1065 z "},"Ô":{"ha":1189,"x_min":81,"x_max":1110,"o":"m 81 503 q 120 700 81 607 q 231 865 160 793 q 394 977 301 936 q 593 1018 488 1018 q 792 977 699 1018 q 958 865 886 936 q 1069 700 1029 793 q 1110 503 1110 607 q 1069 303 1110 396 q 958 139 1029 210 q 792 28 886 68 q 593 -11 699 -11 q 394 28 488 -11 q 231 138 301 68 q 120 301 160 207 q 81 503 81 394 m 231 501 q 279 314 231 399 q 411 179 328 229 q 597 129 494 129 q 781 179 699 129 q 911 314 863 229 q 960 503 960 399 q 910 692 960 607 q 778 828 861 778 q 594 878 696 878 q 409 827 492 878 q 278 691 326 776 q 231 501 231 606 m 694 1082 l 568 1213 l 607 1224 l 479 1082 l 351 1082 l 585 1324 l 586 1324 l 824 1082 l 694 1082 z "},"Ố":{"ha":1189,"x_min":81,"x_max":1110,"o":"m 81 503 q 120 700 81 607 q 231 865 160 793 q 394 977 301 936 q 593 1018 488 1018 q 792 977 699 1018 q 958 865 886 936 q 1069 700 1029 793 q 1110 503 1110 607 q 1069 303 1110 396 q 958 139 1029 210 q 792 28 886 68 q 593 -11 699 -11 q 394 28 488 -11 q 231 138 301 68 q 120 301 160 207 q 81 503 81 394 m 231 501 q 279 314 231 399 q 411 179 328 229 q 597 129 494 129 q 781 179 699 129 q 911 314 863 229 q 960 503 960 399 q 910 692 960 607 q 778 828 861 778 q 594 878 696 878 q 409 827 492 878 q 278 691 326 776 q 231 501 231 606 m 706 1106 l 579 1236 l 618 1247 l 490 1106 l 363 1106 l 596 1347 l 597 1347 l 835 1106 l 706 1106 m 986 1429 l 806 1243 l 718 1243 l 831 1429 l 986 1429 z "},"Ộ":{"ha":1189,"x_min":81,"x_max":1110,"o":"m 81 503 q 120 700 81 607 q 231 865 160 793 q 394 977 301 936 q 593 1018 488 1018 q 792 977 699 1018 q 958 865 886 936 q 1069 700 1029 793 q 1110 503 1110 607 q 1069 303 1110 396 q 958 139 1029 210 q 792 28 886 68 q 593 -11 699 -11 q 394 28 488 -11 q 231 138 301 68 q 120 301 160 207 q 81 503 81 394 m 231 501 q 279 314 231 399 q 411 179 328 229 q 597 129 494 129 q 781 179 699 129 q 911 314 863 229 q 960 503 960 399 q 910 692 960 607 q 778 828 861 778 q 594 878 696 878 q 409 827 492 878 q 278 691 326 776 q 231 501 231 606 m 511 -144 q 537 -90 511 -112 q 593 -68 563 -68 q 649 -90 624 -68 q 674 -144 674 -112 q 649 -200 674 -179 q 593 -221 624 -221 q 537 -200 563 -221 q 511 -144 511 -179 m 694 1082 l 568 1213 l 607 1224 l 479 1082 l 351 1082 l 585 1324 l 586 1324 l 824 1082 l 694 1082 z "},"Ồ":{"ha":1189,"x_min":81,"x_max":1110,"o":"m 81 503 q 120 700 81 607 q 231 865 160 793 q 394 977 301 936 q 593 1018 488 1018 q 792 977 699 1018 q 958 865 886 936 q 1069 700 1029 793 q 1110 503 1110 607 q 1069 303 1110 396 q 958 139 1029 210 q 792 28 886 68 q 593 -11 699 -11 q 394 28 488 -11 q 231 138 301 68 q 120 301 160 207 q 81 503 81 394 m 231 501 q 279 314 231 399 q 411 179 328 229 q 597 129 494 129 q 781 179 699 129 q 911 314 863 229 q 960 503 960 399 q 910 692 960 607 q 778 828 861 778 q 594 878 696 878 q 409 827 492 878 q 278 691 326 776 q 231 501 231 606 m 694 1101 l 568 1232 l 607 1243 l 479 1101 l 351 1101 l 585 1343 l 586 1343 l 824 1101 l 694 1101 m 160 1438 l 314 1438 l 413 1251 l 325 1251 l 160 1438 z "},"Ổ":{"ha":1189,"x_min":81,"x_max":1110,"o":"m 81 503 q 120 700 81 607 q 231 865 160 793 q 394 977 301 936 q 593 1018 488 1018 q 792 977 699 1018 q 958 865 886 936 q 1069 700 1029 793 q 1110 503 1110 607 q 1069 303 1110 396 q 958 139 1029 210 q 792 28 886 68 q 593 -11 699 -11 q 394 28 488 -11 q 231 138 301 68 q 120 301 160 207 q 81 503 81 394 m 231 501 q 279 314 231 399 q 411 179 328 229 q 597 129 494 129 q 781 179 699 129 q 911 314 863 229 q 960 503 960 399 q 910 692 960 607 q 778 828 861 778 q 594 878 696 878 q 409 827 492 878 q 278 691 326 776 q 231 501 231 606 m 700 1106 l 574 1236 l 613 1247 l 485 1106 l 357 1106 l 590 1347 l 592 1347 l 829 1106 l 700 1106 m 814 1251 q 858 1290 842 1271 q 875 1333 875 1308 q 864 1369 875 1356 q 831 1382 853 1382 q 794 1371 808 1382 q 767 1340 779 1360 l 715 1374 q 774 1440 739 1418 q 849 1461 810 1461 q 908 1446 885 1461 q 944 1406 932 1431 q 956 1351 956 1381 q 924 1269 956 1303 q 847 1208 892 1236 l 814 1251 z "},"Ỗ":{"ha":1189,"x_min":81,"x_max":1110,"o":"m 81 503 q 120 700 81 607 q 231 865 160 793 q 394 977 301 936 q 593 1018 488 1018 q 792 977 699 1018 q 958 865 886 936 q 1069 700 1029 793 q 1110 503 1110 607 q 1069 303 1110 396 q 958 139 1029 210 q 792 28 886 68 q 593 -11 699 -11 q 394 28 488 -11 q 231 138 301 68 q 120 301 160 207 q 81 503 81 394 m 231 501 q 279 314 231 399 q 411 179 328 229 q 597 129 494 129 q 781 179 699 129 q 911 314 863 229 q 960 503 960 399 q 910 692 960 607 q 778 828 861 778 q 594 878 696 878 q 409 827 492 878 q 278 691 326 776 q 231 501 231 606 m 694 1097 l 568 1228 l 607 1239 l 479 1097 l 351 1097 l 585 1339 l 586 1339 l 824 1097 l 694 1097 m 696 1374 q 621 1394 650 1374 q 567 1436 592 1414 q 535 1464 551 1451 q 499 1476 518 1476 q 457 1447 472 1476 q 443 1374 442 1418 l 369 1374 q 381 1472 365 1428 q 428 1542 396 1517 q 506 1568 461 1568 q 568 1549 542 1568 q 617 1507 594 1529 q 654 1475 636 1489 q 692 1461 672 1461 q 731 1491 719 1461 q 740 1568 742 1521 l 815 1568 q 807 1466 822 1510 q 763 1398 792 1422 q 696 1374 733 1374 z "},"Ȍ":{"ha":1189,"x_min":81,"x_max":1110,"o":"m 81 503 q 120 700 81 607 q 231 865 160 793 q 394 977 301 936 q 593 1018 488 1018 q 792 977 699 1018 q 958 865 886 936 q 1069 700 1029 793 q 1110 503 1110 607 q 1069 303 1110 396 q 958 139 1029 210 q 792 28 886 68 q 593 -11 699 -11 q 394 28 488 -11 q 231 138 301 68 q 120 301 160 207 q 81 503 81 394 m 231 501 q 279 314 231 399 q 411 179 328 229 q 597 129 494 129 q 781 179 699 129 q 911 314 863 229 q 960 503 960 399 q 910 692 960 607 q 778 828 861 778 q 594 878 696 878 q 409 827 492 878 q 278 691 326 776 q 231 501 231 606 m 308 1267 l 463 1267 l 561 1081 l 474 1081 l 308 1267 m 513 1267 l 667 1267 l 765 1081 l 678 1081 l 513 1267 z "},"Ö":{"ha":1189,"x_min":81,"x_max":1110,"o":"m 81 503 q 120 700 81 607 q 231 865 160 793 q 394 977 301 936 q 593 1018 488 1018 q 792 977 699 1018 q 958 865 886 936 q 1069 700 1029 793 q 1110 503 1110 607 q 1069 303 1110 396 q 958 139 1029 210 q 792 28 886 68 q 593 -11 699 -11 q 394 28 488 -11 q 231 138 301 68 q 120 301 160 207 q 81 503 81 394 m 231 501 q 279 314 231 399 q 411 179 328 229 q 597 129 494 129 q 781 179 699 129 q 911 314 863 229 q 960 503 960 399 q 910 692 960 607 q 778 828 861 778 q 594 878 696 878 q 409 827 492 878 q 278 691 326 776 q 231 501 231 606 m 379 1146 q 403 1202 379 1179 q 457 1225 428 1225 q 509 1202 485 1225 q 533 1146 533 1179 q 509 1090 533 1111 q 457 1068 485 1068 q 403 1090 428 1068 q 379 1146 379 1111 l 379 1146 m 642 1146 q 666 1202 642 1179 q 719 1225 690 1225 q 772 1202 747 1225 q 796 1146 796 1179 q 772 1090 796 1111 q 719 1068 747 1068 q 666 1090 690 1068 q 642 1146 642 1111 l 642 1146 z "},"Ȫ":{"ha":1189,"x_min":81,"x_max":1110,"o":"m 81 503 q 120 700 81 607 q 231 865 160 793 q 394 977 301 936 q 593 1018 488 1018 q 792 977 699 1018 q 958 865 886 936 q 1069 700 1029 793 q 1110 503 1110 607 q 1069 303 1110 396 q 958 139 1029 210 q 792 28 886 68 q 593 -11 699 -11 q 394 28 488 -11 q 231 138 301 68 q 120 301 160 207 q 81 503 81 394 m 231 501 q 279 314 231 399 q 411 179 328 229 q 597 129 494 129 q 781 179 699 129 q 911 314 863 229 q 960 503 960 399 q 910 692 960 607 q 778 828 861 778 q 594 878 696 878 q 409 827 492 878 q 278 691 326 776 q 231 501 231 606 m 379 1146 q 403 1202 379 1179 q 457 1225 428 1225 q 509 1202 485 1225 q 533 1146 533 1179 q 509 1090 533 1111 q 457 1068 485 1068 q 403 1090 428 1068 q 379 1146 379 1111 l 379 1146 m 642 1146 q 666 1202 642 1179 q 719 1225 690 1225 q 772 1202 747 1225 q 796 1146 796 1179 q 772 1090 796 1111 q 719 1068 747 1068 q 666 1090 690 1068 q 642 1146 642 1111 l 642 1146 m 419 1379 l 763 1379 l 763 1281 l 419 1281 l 419 1379 z "},"Ȱ":{"ha":1189,"x_min":81,"x_max":1110,"o":"m 81 503 q 120 700 81 607 q 231 865 160 793 q 394 977 301 936 q 593 1018 488 1018 q 792 977 699 1018 q 958 865 886 936 q 1069 700 1029 793 q 1110 503 1110 607 q 1069 303 1110 396 q 958 139 1029 210 q 792 28 886 68 q 593 -11 699 -11 q 394 28 488 -11 q 231 138 301 68 q 120 301 160 207 q 81 503 81 394 m 231 501 q 279 314 231 399 q 411 179 328 229 q 597 129 494 129 q 781 179 699 129 q 911 314 863 229 q 960 503 960 399 q 910 692 960 607 q 778 828 861 778 q 594 878 696 878 q 409 827 492 878 q 278 691 326 776 q 231 501 231 606 m 514 1143 q 540 1197 514 1175 q 596 1219 565 1219 q 651 1197 626 1219 q 676 1143 676 1175 q 651 1088 676 1108 q 596 1067 626 1067 q 540 1088 565 1067 q 514 1143 514 1108 m 419 1374 l 763 1374 l 763 1275 l 419 1275 l 419 1374 z "},"Ọ":{"ha":1189,"x_min":81,"x_max":1110,"o":"m 81 503 q 120 700 81 607 q 231 865 160 793 q 394 977 301 936 q 593 1018 488 1018 q 792 977 699 1018 q 958 865 886 936 q 1069 700 1029 793 q 1110 503 1110 607 q 1069 303 1110 396 q 958 139 1029 210 q 792 28 886 68 q 593 -11 699 -11 q 394 28 488 -11 q 231 138 301 68 q 120 301 160 207 q 81 503 81 394 m 231 501 q 279 314 231 399 q 411 179 328 229 q 597 129 494 129 q 781 179 699 129 q 911 314 863 229 q 960 503 960 399 q 910 692 960 607 q 778 828 861 778 q 594 878 696 878 q 409 827 492 878 q 278 691 326 776 q 231 501 231 606 m 511 -144 q 537 -90 511 -112 q 593 -68 563 -68 q 649 -90 624 -68 q 674 -144 674 -112 q 649 -200 674 -179 q 593 -221 624 -221 q 537 -200 563 -221 q 511 -144 511 -179 z "},"Ò":{"ha":1189,"x_min":81,"x_max":1110,"o":"m 81 503 q 120 700 81 607 q 231 865 160 793 q 394 977 301 936 q 593 1018 488 1018 q 792 977 699 1018 q 958 865 886 936 q 1069 700 1029 793 q 1110 503 1110 607 q 1069 303 1110 396 q 958 139 1029 210 q 792 28 886 68 q 593 -11 699 -11 q 394 28 488 -11 q 231 138 301 68 q 120 301 160 207 q 81 503 81 394 m 231 501 q 279 314 231 399 q 411 179 328 229 q 597 129 494 129 q 781 179 699 129 q 911 314 863 229 q 960 503 960 399 q 910 692 960 607 q 778 828 861 778 q 594 878 696 878 q 409 827 492 878 q 278 691 326 776 q 231 501 231 606 m 378 1254 l 532 1254 l 631 1068 l 543 1068 l 378 1254 z "},"Ỏ":{"ha":1189,"x_min":81,"x_max":1110,"o":"m 81 503 q 120 700 81 607 q 231 865 160 793 q 394 977 301 936 q 593 1018 488 1018 q 792 977 699 1018 q 958 865 886 936 q 1069 700 1029 793 q 1110 503 1110 607 q 1069 303 1110 396 q 958 139 1029 210 q 792 28 886 68 q 593 -11 699 -11 q 394 28 488 -11 q 231 138 301 68 q 120 301 160 207 q 81 503 81 394 m 231 501 q 279 314 231 399 q 411 179 328 229 q 597 129 494 129 q 781 179 699 129 q 911 314 863 229 q 960 503 960 399 q 910 692 960 607 q 778 828 861 778 q 594 878 696 878 q 409 827 492 878 q 278 691 326 776 q 231 501 231 606 m 585 1113 q 629 1151 613 1132 q 646 1194 646 1169 q 635 1230 646 1217 q 601 1243 624 1243 q 565 1232 579 1243 q 538 1201 550 1221 l 486 1235 q 545 1301 510 1279 q 619 1322 581 1322 q 679 1307 656 1322 q 715 1267 703 1292 q 726 1213 726 1242 q 694 1131 726 1164 q 618 1069 663 1097 l 585 1113 z "},"Ơ":{"ha":1189,"x_min":81,"x_max":1110,"o":"m 81 503 q 120 700 81 607 q 231 865 160 793 q 394 977 301 936 q 593 1018 488 1018 q 792 977 699 1018 q 958 865 886 936 q 1069 700 1029 793 q 1110 503 1110 607 q 1069 303 1110 396 q 958 139 1029 210 q 792 28 886 68 q 593 -11 699 -11 q 394 28 488 -11 q 231 138 301 68 q 120 301 160 207 q 81 503 81 394 m 231 501 q 279 314 231 399 q 411 179 328 229 q 597 129 494 129 q 781 179 699 129 q 911 314 863 229 q 960 503 960 399 q 910 692 960 607 q 778 828 861 778 q 594 878 696 878 q 409 827 492 878 q 278 691 326 776 q 231 501 231 606 m 694 1008 q 774 1034 751 1008 q 806 1129 797 1060 l 910 1129 q 872 997 900 1042 q 799 938 843 953 q 694 922 754 922 l 694 1008 z "},"Ớ":{"ha":1189,"x_min":81,"x_max":1110,"o":"m 81 503 q 120 700 81 607 q 231 865 160 793 q 394 977 301 936 q 593 1018 488 1018 q 792 977 699 1018 q 958 865 886 936 q 1069 700 1029 793 q 1110 503 1110 607 q 1069 303 1110 396 q 958 139 1029 210 q 792 28 886 68 q 593 -11 699 -11 q 394 28 488 -11 q 231 138 301 68 q 120 301 160 207 q 81 503 81 394 m 231 501 q 279 314 231 399 q 411 179 328 229 q 597 129 494 129 q 781 179 699 129 q 911 314 863 229 q 960 503 960 399 q 910 692 960 607 q 778 828 861 778 q 594 878 696 878 q 409 827 492 878 q 278 691 326 776 q 231 501 231 606 m 694 1008 q 774 1034 751 1008 q 806 1129 797 1060 l 910 1129 q 872 997 900 1042 q 799 938 843 953 q 694 922 754 922 l 694 1008 m 815 1246 l 635 1060 l 547 1060 l 660 1246 l 815 1246 z "},"Ợ":{"ha":1189,"x_min":81,"x_max":1110,"o":"m 81 503 q 120 700 81 607 q 231 865 160 793 q 394 977 301 936 q 593 1018 488 1018 q 792 977 699 1018 q 958 865 886 936 q 1069 700 1029 793 q 1110 503 1110 607 q 1069 303 1110 396 q 958 139 1029 210 q 792 28 886 68 q 593 -11 699 -11 q 394 28 488 -11 q 231 138 301 68 q 120 301 160 207 q 81 503 81 394 m 231 501 q 279 314 231 399 q 411 179 328 229 q 597 129 494 129 q 781 179 699 129 q 911 314 863 229 q 960 503 960 399 q 910 692 960 607 q 778 828 861 778 q 594 878 696 878 q 409 827 492 878 q 278 691 326 776 q 231 501 231 606 m 694 1008 q 774 1034 751 1008 q 806 1129 797 1060 l 910 1129 q 872 997 900 1042 q 799 938 843 953 q 694 922 754 922 l 694 1008 m 511 -144 q 537 -90 511 -112 q 593 -68 563 -68 q 649 -90 624 -68 q 674 -144 674 -112 q 649 -200 674 -179 q 593 -221 624 -221 q 537 -200 563 -221 q 511 -144 511 -179 z "},"Ờ":{"ha":1189,"x_min":81,"x_max":1110,"o":"m 81 503 q 120 700 81 607 q 231 865 160 793 q 394 977 301 936 q 593 1018 488 1018 q 792 977 699 1018 q 958 865 886 936 q 1069 700 1029 793 q 1110 503 1110 607 q 1069 303 1110 396 q 958 139 1029 210 q 792 28 886 68 q 593 -11 699 -11 q 394 28 488 -11 q 231 138 301 68 q 120 301 160 207 q 81 503 81 394 m 231 501 q 279 314 231 399 q 411 179 328 229 q 597 129 494 129 q 781 179 699 129 q 911 314 863 229 q 960 503 960 399 q 910 692 960 607 q 778 828 861 778 q 594 878 696 878 q 409 827 492 878 q 278 691 326 776 q 231 501 231 606 m 694 1008 q 774 1034 751 1008 q 806 1129 797 1060 l 910 1129 q 872 997 900 1042 q 799 938 843 953 q 694 922 754 922 l 694 1008 m 408 1254 l 563 1254 l 661 1068 l 574 1068 l 408 1254 z "},"Ở":{"ha":1189,"x_min":81,"x_max":1110,"o":"m 81 503 q 120 700 81 607 q 231 865 160 793 q 394 977 301 936 q 593 1018 488 1018 q 792 977 699 1018 q 958 865 886 936 q 1069 700 1029 793 q 1110 503 1110 607 q 1069 303 1110 396 q 958 139 1029 210 q 792 28 886 68 q 593 -11 699 -11 q 394 28 488 -11 q 231 138 301 68 q 120 301 160 207 q 81 503 81 394 m 231 501 q 279 314 231 399 q 411 179 328 229 q 597 129 494 129 q 781 179 699 129 q 911 314 863 229 q 960 503 960 399 q 910 692 960 607 q 778 828 861 778 q 594 878 696 878 q 409 827 492 878 q 278 691 326 776 q 231 501 231 606 m 694 1008 q 774 1034 751 1008 q 806 1129 797 1060 l 910 1129 q 872 997 900 1042 q 799 938 843 953 q 694 922 754 922 l 694 1008 m 585 1113 q 629 1151 613 1132 q 646 1194 646 1169 q 635 1230 646 1217 q 601 1243 624 1243 q 565 1232 579 1243 q 538 1201 550 1221 l 486 1235 q 545 1301 510 1279 q 619 1322 581 1322 q 679 1307 656 1322 q 715 1267 703 1292 q 726 1213 726 1242 q 694 1131 726 1164 q 618 1069 663 1097 l 585 1113 z "},"Ỡ":{"ha":1189,"x_min":81,"x_max":1110,"o":"m 81 503 q 120 700 81 607 q 231 865 160 793 q 394 977 301 936 q 593 1018 488 1018 q 792 977 699 1018 q 958 865 886 936 q 1069 700 1029 793 q 1110 503 1110 607 q 1069 303 1110 396 q 958 139 1029 210 q 792 28 886 68 q 593 -11 699 -11 q 394 28 488 -11 q 231 138 301 68 q 120 301 160 207 q 81 503 81 394 m 231 501 q 279 314 231 399 q 411 179 328 229 q 597 129 494 129 q 781 179 699 129 q 911 314 863 229 q 960 503 960 399 q 910 692 960 607 q 778 828 861 778 q 594 878 696 878 q 409 827 492 878 q 278 691 326 776 q 231 501 231 606 m 694 1008 q 774 1034 751 1008 q 806 1129 797 1060 l 910 1129 q 872 997 900 1042 q 799 938 843 953 q 694 922 754 922 l 694 1008 m 700 1110 q 626 1129 656 1110 q 572 1171 596 1149 q 539 1199 556 1186 q 503 1211 522 1211 q 462 1183 476 1211 q 449 1108 447 1154 l 375 1108 q 386 1207 371 1163 q 434 1277 401 1251 q 511 1303 467 1303 q 574 1283 547 1303 q 622 1242 600 1264 q 660 1210 642 1224 q 697 1196 678 1196 q 736 1226 725 1196 q 746 1303 747 1256 l 819 1303 q 812 1201 826 1244 q 767 1133 797 1157 q 700 1110 738 1110 z "},"Ő":{"ha":1189,"x_min":81,"x_max":1110,"o":"m 81 503 q 120 700 81 607 q 231 865 160 793 q 394 977 301 936 q 593 1018 488 1018 q 792 977 699 1018 q 958 865 886 936 q 1069 700 1029 793 q 1110 503 1110 607 q 1069 303 1110 396 q 958 139 1029 210 q 792 28 886 68 q 593 -11 699 -11 q 394 28 488 -11 q 231 138 301 68 q 120 301 160 207 q 81 503 81 394 m 231 501 q 279 314 231 399 q 411 179 328 229 q 597 129 494 129 q 781 179 699 129 q 911 314 863 229 q 960 503 960 399 q 910 692 960 607 q 778 828 861 778 q 594 878 696 878 q 409 827 492 878 q 278 691 326 776 q 231 501 231 606 m 672 1261 l 492 1075 l 404 1075 l 517 1261 l 672 1261 m 888 1258 l 707 1072 l 619 1072 l 732 1258 l 888 1258 z "},"Ȏ":{"ha":1189,"x_min":81,"x_max":1110,"o":"m 81 503 q 120 700 81 607 q 231 865 160 793 q 394 977 301 936 q 593 1018 488 1018 q 792 977 699 1018 q 958 865 886 936 q 1069 700 1029 793 q 1110 503 1110 607 q 1069 303 1110 396 q 958 139 1029 210 q 792 28 886 68 q 593 -11 699 -11 q 394 28 488 -11 q 231 138 301 68 q 120 301 160 207 q 81 503 81 394 m 231 501 q 279 314 231 399 q 411 179 328 229 q 597 129 494 129 q 781 179 699 129 q 911 314 863 229 q 960 503 960 399 q 910 692 960 607 q 778 828 861 778 q 594 878 696 878 q 409 827 492 878 q 278 691 326 776 q 231 501 231 606 m 588 1281 q 732 1217 678 1281 q 803 1033 786 1153 l 707 1033 q 669 1142 697 1099 q 588 1185 642 1185 q 508 1142 535 1185 q 471 1033 481 1099 l 376 1033 q 445 1218 392 1156 q 588 1281 499 1281 z "},"Ō":{"ha":1189,"x_min":81,"x_max":1110,"o":"m 81 503 q 120 700 81 607 q 231 865 160 793 q 394 977 301 936 q 593 1018 488 1018 q 792 977 699 1018 q 958 865 886 936 q 1069 700 1029 793 q 1110 503 1110 607 q 1069 303 1110 396 q 958 139 1029 210 q 792 28 886 68 q 593 -11 699 -11 q 394 28 488 -11 q 231 138 301 68 q 120 301 160 207 q 81 503 81 394 m 231 501 q 279 314 231 399 q 411 179 328 229 q 597 129 494 129 q 781 179 699 129 q 911 314 863 229 q 960 503 960 399 q 910 692 960 607 q 778 828 861 778 q 594 878 696 878 q 409 827 492 878 q 278 691 326 776 q 231 501 231 606 m 419 1171 l 763 1171 l 763 1072 l 419 1072 l 419 1171 z "},"Ǫ":{"ha":1189,"x_min":81,"x_max":1110,"o":"m 593 -11 q 394 28 488 -11 q 231 138 301 68 q 120 301 160 207 q 81 503 81 394 q 120 700 81 607 q 231 865 160 793 q 394 977 301 936 q 593 1018 488 1018 q 792 977 699 1018 q 958 865 886 936 q 1069 700 1029 793 q 1110 503 1110 607 q 1082 322 1110 400 q 1009 188 1054 244 q 914 89 964 131 q 805 9 858 43 q 717 -57 751 -25 q 683 -133 683 -89 q 703 -187 683 -172 q 749 -203 724 -203 q 844 -136 804 -203 l 897 -207 q 826 -276 871 -249 q 736 -303 781 -303 q 617 -265 667 -303 q 567 -157 567 -226 q 605 -58 567 -101 q 699 8 643 -14 l 824 50 q 715 6 774 22 q 593 -11 656 -11 m 597 131 q 781 181 699 131 q 911 315 863 231 q 960 503 960 400 q 931 647 960 579 q 853 765 903 714 q 737 844 803 815 q 594 874 671 874 q 409 823 492 874 q 278 688 326 772 q 231 501 231 603 q 279 315 231 400 q 411 181 328 231 q 597 131 494 131 z "},"Ø":{"ha":1192,"x_min":81,"x_max":1110,"o":"m 1050 951 l 217 -22 l 125 61 l 960 1036 l 1050 951 m 81 503 q 120 700 81 607 q 231 865 160 793 q 394 977 301 936 q 593 1018 488 1018 q 792 977 699 1018 q 958 865 886 936 q 1069 700 1029 793 q 1110 503 1110 607 q 1069 303 1110 396 q 958 139 1029 210 q 792 28 886 68 q 593 -11 699 -11 q 394 28 488 -11 q 231 138 301 68 q 120 301 160 207 q 81 503 81 394 m 231 501 q 279 314 231 399 q 411 179 328 229 q 597 129 494 129 q 781 179 699 129 q 911 314 863 229 q 960 503 960 399 q 910 692 960 607 q 778 828 861 778 q 594 878 696 878 q 409 827 492 878 q 278 691 326 776 q 231 501 231 606 z "},"Ǿ":{"ha":1192,"x_min":81,"x_max":1110,"o":"m 1050 951 l 217 -22 l 125 61 l 960 1036 l 1050 951 m 81 503 q 120 700 81 607 q 231 865 160 793 q 394 977 301 936 q 593 1018 488 1018 q 792 977 699 1018 q 958 865 886 936 q 1069 700 1029 793 q 1110 503 1110 607 q 1069 303 1110 396 q 958 139 1029 210 q 792 28 886 68 q 593 -11 699 -11 q 394 28 488 -11 q 231 138 301 68 q 120 301 160 207 q 81 503 81 394 m 231 501 q 279 314 231 399 q 411 179 328 229 q 597 129 494 129 q 781 179 699 129 q 911 314 863 229 q 960 503 960 399 q 910 692 960 607 q 778 828 861 778 q 594 878 696 878 q 409 827 492 878 q 278 691 326 776 q 231 501 231 606 m 814 1246 l 633 1060 l 546 1060 l 658 1246 l 814 1246 z "},"Õ":{"ha":1189,"x_min":81,"x_max":1110,"o":"m 81 503 q 120 700 81 607 q 231 865 160 793 q 394 977 301 936 q 593 1018 488 1018 q 792 977 699 1018 q 958 865 886 936 q 1069 700 1029 793 q 1110 503 1110 607 q 1069 303 1110 396 q 958 139 1029 210 q 792 28 886 68 q 593 -11 699 -11 q 394 28 488 -11 q 231 138 301 68 q 120 301 160 207 q 81 503 81 394 m 231 501 q 279 314 231 399 q 411 179 328 229 q 597 129 494 129 q 781 179 699 129 q 911 314 863 229 q 960 503 960 399 q 910 692 960 607 q 778 828 861 778 q 594 878 696 878 q 409 827 492 878 q 278 691 326 776 q 231 501 231 606 m 700 1110 q 626 1129 656 1110 q 572 1171 596 1149 q 539 1199 556 1186 q 503 1211 522 1211 q 462 1183 476 1211 q 449 1108 447 1154 l 375 1108 q 386 1207 371 1163 q 434 1277 401 1251 q 511 1303 467 1303 q 574 1283 547 1303 q 622 1242 600 1264 q 660 1210 642 1224 q 697 1196 678 1196 q 736 1226 725 1196 q 746 1303 747 1256 l 819 1303 q 812 1201 826 1244 q 767 1133 797 1157 q 700 1110 738 1110 z "},"Ȭ":{"ha":1189,"x_min":81,"x_max":1110,"o":"m 81 503 q 120 700 81 607 q 231 865 160 793 q 394 977 301 936 q 593 1018 488 1018 q 792 977 699 1018 q 958 865 886 936 q 1069 700 1029 793 q 1110 503 1110 607 q 1069 303 1110 396 q 958 139 1029 210 q 792 28 886 68 q 593 -11 699 -11 q 394 28 488 -11 q 231 138 301 68 q 120 301 160 207 q 81 503 81 394 m 231 501 q 279 314 231 399 q 411 179 328 229 q 597 129 494 129 q 781 179 699 129 q 911 314 863 229 q 960 503 960 399 q 910 692 960 607 q 778 828 861 778 q 594 878 696 878 q 409 827 492 878 q 278 691 326 776 q 231 501 231 606 m 700 1110 q 626 1129 656 1110 q 572 1171 596 1149 q 539 1199 556 1186 q 503 1211 522 1211 q 462 1183 476 1211 q 449 1108 447 1154 l 375 1108 q 386 1207 371 1163 q 434 1277 401 1251 q 511 1303 467 1303 q 574 1283 547 1303 q 622 1242 600 1264 q 660 1210 642 1224 q 697 1196 678 1196 q 736 1226 725 1196 q 746 1303 747 1256 l 819 1303 q 812 1201 826 1244 q 767 1133 797 1157 q 700 1110 738 1110 m 419 1485 l 763 1485 l 763 1386 l 419 1386 l 419 1485 z "},"Œ":{"ha":1413,"x_min":90,"x_max":1313,"o":"m 685 865 q 604 874 646 874 q 463 844 529 874 q 347 765 397 815 q 269 647 297 714 q 240 501 240 579 q 269 358 240 425 q 348 240 297 290 q 466 160 399 189 q 610 131 533 131 q 689 139 650 131 l 731 6 q 604 -11 668 -11 q 405 28 499 -11 q 241 139 311 68 q 131 303 171 210 q 90 503 90 396 q 131 700 90 607 q 241 865 171 793 q 405 977 311 936 q 604 1018 499 1018 q 671 1013 638 1018 q 735 1000 704 1008 l 685 865 m 675 1007 l 1293 1007 l 1293 871 l 825 871 l 825 574 l 1238 574 l 1238 436 l 825 436 l 825 139 l 1313 139 l 1313 0 l 675 0 l 675 1007 z "},"P":{"ha":836,"x_min":143,"x_max":774,"o":"m 418 1007 q 679 924 585 1007 q 774 690 774 840 q 756 572 774 631 q 698 466 738 514 q 594 390 658 418 q 436 361 529 361 l 288 361 l 288 0 l 143 0 l 143 1007 l 418 1007 m 435 503 q 530 522 492 503 q 590 569 568 540 q 620 631 611 599 q 629 688 629 663 q 620 747 629 715 q 590 805 611 778 q 532 849 568 832 q 442 867 496 867 l 288 867 l 288 503 l 435 503 z "},"Þ":{"ha":836,"x_min":143,"x_max":774,"o":"m 446 821 q 623 784 550 821 q 735 677 696 747 q 774 504 774 607 q 757 386 774 444 q 703 280 740 328 q 602 203 665 232 q 446 175 539 175 l 293 175 l 293 0 l 143 0 l 143 1000 l 293 1000 l 293 821 l 446 821 m 432 317 q 544 344 501 317 q 605 415 586 372 q 624 501 624 458 q 604 588 624 547 q 542 655 585 629 q 433 681 500 681 l 293 681 l 293 317 l 432 317 z "},"Q":{"ha":1233,"x_min":81,"x_max":1154,"o":"m 814 142 l 1154 142 l 1154 0 l 621 0 l 814 142 m 81 503 q 120 700 81 607 q 231 865 160 793 q 394 977 301 936 q 593 1018 488 1018 q 792 977 699 1018 q 958 865 886 936 q 1069 700 1029 793 q 1110 503 1110 607 q 1069 303 1110 396 q 958 139 1029 210 q 792 28 886 68 q 593 -11 699 -11 q 394 28 488 -11 q 231 138 301 68 q 120 301 160 207 q 81 503 81 394 m 231 501 q 279 315 231 400 q 411 181 328 231 q 597 131 494 131 q 781 181 699 131 q 911 315 863 231 q 960 503 960 400 q 931 647 960 579 q 853 765 903 714 q 737 844 803 815 q 594 874 671 874 q 409 823 492 874 q 278 688 326 772 q 231 501 231 603 z "},"R":{"ha":922,"x_min":143,"x_max":864,"o":"m 417 1007 q 604 970 522 1007 q 733 863 686 933 q 779 690 779 793 q 761 572 779 631 q 703 467 743 514 q 598 391 664 419 q 436 363 532 363 l 288 363 l 288 0 l 143 0 l 143 1007 l 417 1007 m 433 503 q 553 533 511 503 q 613 605 596 563 q 629 685 629 647 q 619 744 629 713 q 588 803 610 775 q 531 849 567 832 q 442 867 494 867 l 288 867 l 288 503 l 433 503 m 603 417 l 864 0 l 694 0 l 429 414 l 603 417 z "},"Ŕ":{"ha":922,"x_min":143,"x_max":864,"o":"m 417 1007 q 604 970 522 1007 q 733 863 686 933 q 779 690 779 793 q 761 572 779 631 q 703 467 743 514 q 598 391 664 419 q 436 363 532 363 l 288 363 l 288 0 l 143 0 l 143 1007 l 417 1007 m 433 503 q 553 533 511 503 q 613 605 596 563 q 629 685 629 647 q 619 744 629 713 q 588 803 610 775 q 531 849 567 832 q 442 867 494 867 l 288 867 l 288 503 l 433 503 m 603 417 l 864 0 l 694 0 l 429 414 l 603 417 m 642 1256 l 461 1069 l 374 1069 l 486 1256 l 642 1256 z "},"Ř":{"ha":922,"x_min":143,"x_max":864,"o":"m 417 1007 q 604 970 522 1007 q 733 863 686 933 q 779 690 779 793 q 761 572 779 631 q 703 467 743 514 q 598 391 664 419 q 436 363 532 363 l 288 363 l 288 0 l 143 0 l 143 1007 l 417 1007 m 433 503 q 553 533 511 503 q 613 605 596 563 q 629 685 629 647 q 619 744 629 713 q 588 803 610 775 q 531 849 567 832 q 442 867 494 867 l 288 867 l 288 503 l 433 503 m 603 417 l 864 0 l 694 0 l 429 414 l 603 417 m 310 1301 l 436 1169 l 396 1160 l 524 1301 l 653 1301 l 419 1060 l 418 1060 l 181 1301 l 310 1301 z "},"Ŗ":{"ha":922,"x_min":143,"x_max":864,"o":"m 417 1007 q 604 970 522 1007 q 733 863 686 933 q 779 690 779 793 q 761 572 779 631 q 703 467 743 514 q 598 391 664 419 q 436 363 532 363 l 288 363 l 288 0 l 143 0 l 143 1007 l 417 1007 m 433 503 q 553 533 511 503 q 613 605 596 563 q 629 685 629 647 q 619 744 629 713 q 588 803 610 775 q 531 849 567 832 q 442 867 494 867 l 288 867 l 288 503 l 433 503 m 603 417 l 864 0 l 694 0 l 429 414 l 603 417 m 414 -303 l 343 -254 q 389 -172 375 -225 q 394 -67 403 -118 l 519 -68 q 516 -151 526 -106 q 480 -237 506 -196 q 414 -303 454 -278 z "},"Ȑ":{"ha":922,"x_min":135,"x_max":864,"o":"m 417 1007 q 604 970 522 1007 q 733 863 686 933 q 779 690 779 793 q 761 572 779 631 q 703 467 743 514 q 598 391 664 419 q 436 363 532 363 l 288 363 l 288 0 l 143 0 l 143 1007 l 417 1007 m 433 503 q 553 533 511 503 q 613 605 596 563 q 629 685 629 647 q 619 744 629 713 q 588 803 610 775 q 531 849 567 832 q 442 867 494 867 l 288 867 l 288 503 l 433 503 m 603 417 l 864 0 l 694 0 l 429 414 l 603 417 m 135 1276 l 289 1276 l 388 1090 l 300 1090 l 135 1276 m 339 1276 l 493 1276 l 592 1090 l 504 1090 l 339 1276 z "},"Ȓ":{"ha":922,"x_min":143,"x_max":864,"o":"m 417 1007 q 604 970 522 1007 q 733 863 686 933 q 779 690 779 793 q 761 572 779 631 q 703 467 743 514 q 598 391 664 419 q 436 363 532 363 l 288 363 l 288 0 l 143 0 l 143 1007 l 417 1007 m 433 503 q 553 533 511 503 q 613 605 596 563 q 629 685 629 647 q 619 744 629 713 q 588 803 610 775 q 531 849 567 832 q 442 867 494 867 l 288 867 l 288 503 l 433 503 m 603 417 l 864 0 l 694 0 l 429 414 l 603 417 m 413 1290 q 557 1226 503 1290 q 628 1043 611 1163 l 532 1043 q 494 1151 522 1108 q 413 1194 467 1194 q 333 1151 360 1194 q 296 1043 306 1108 l 201 1043 q 270 1228 217 1165 q 413 1290 324 1290 z "},"S":{"ha":808,"x_min":64,"x_max":731,"o":"m 667 817 q 553 864 614 844 q 435 883 492 883 q 310 848 356 883 q 264 750 264 813 q 294 675 264 707 q 374 619 325 643 q 476 575 422 596 q 597 519 539 553 q 693 428 656 485 q 731 275 731 371 q 690 131 731 196 q 576 27 650 65 q 397 -11 501 -11 q 213 20 300 -11 q 64 94 126 51 l 129 210 q 249 144 178 172 q 383 117 319 117 q 475 133 431 117 q 549 183 519 149 q 579 275 579 218 q 553 356 579 322 q 484 413 526 389 q 393 454 442 436 q 297 494 346 472 q 206 547 247 515 q 140 626 165 579 q 114 739 114 672 q 152 881 114 821 q 258 975 190 940 q 414 1013 326 1010 q 589 988 514 1013 q 721 929 664 964 l 667 817 z "},"Ś":{"ha":808,"x_min":64,"x_max":731,"o":"m 667 817 q 553 864 614 844 q 435 883 492 883 q 310 848 356 883 q 264 750 264 813 q 294 675 264 707 q 374 619 325 643 q 476 575 422 596 q 597 519 539 553 q 693 428 656 485 q 731 275 731 371 q 690 131 731 196 q 576 27 650 65 q 397 -11 501 -11 q 213 20 300 -11 q 64 94 126 51 l 129 210 q 249 144 178 172 q 383 117 319 117 q 475 133 431 117 q 549 183 519 149 q 579 275 579 218 q 553 356 579 322 q 484 413 526 389 q 393 454 442 436 q 297 494 346 472 q 206 547 247 515 q 140 626 165 579 q 114 739 114 672 q 152 881 114 821 q 258 975 190 940 q 414 1013 326 1010 q 589 988 514 1013 q 721 929 664 964 l 667 817 m 624 1246 l 443 1060 l 356 1060 l 468 1246 l 624 1246 z "},"Š":{"ha":808,"x_min":64,"x_max":731,"o":"m 667 817 q 553 864 614 844 q 435 883 492 883 q 310 848 356 883 q 264 750 264 813 q 294 675 264 707 q 374 619 325 643 q 476 575 422 596 q 597 519 539 553 q 693 428 656 485 q 731 275 731 371 q 690 131 731 196 q 576 27 650 65 q 397 -11 501 -11 q 213 20 300 -11 q 64 94 126 51 l 129 210 q 249 144 178 172 q 383 117 319 117 q 475 133 431 117 q 549 183 519 149 q 579 275 579 218 q 553 356 579 322 q 484 413 526 389 q 393 454 442 436 q 297 494 346 472 q 206 547 247 515 q 140 626 165 579 q 114 739 114 672 q 152 881 114 821 q 258 975 190 940 q 414 1013 326 1010 q 589 988 514 1013 q 721 929 664 964 l 667 817 m 293 1290 l 419 1158 l 379 1149 l 507 1290 l 636 1290 l 403 1049 l 401 1049 l 164 1290 l 293 1290 z "},"Ş":{"ha":808,"x_min":64,"x_max":731,"o":"m 667 817 q 553 864 614 844 q 435 883 492 883 q 310 848 356 883 q 264 750 264 813 q 294 675 264 707 q 374 619 325 643 q 476 575 422 596 q 597 519 539 553 q 693 428 656 485 q 731 275 731 371 q 690 131 731 196 q 576 27 650 65 q 397 -11 501 -11 q 213 20 300 -11 q 64 94 126 51 l 129 210 q 249 144 178 172 q 383 117 319 117 q 475 133 431 117 q 549 183 519 149 q 579 275 579 218 q 553 356 579 322 q 484 413 526 389 q 393 454 442 436 q 297 494 346 472 q 206 547 247 515 q 140 626 165 579 q 114 739 114 672 q 152 881 114 821 q 258 975 190 940 q 414 1013 326 1010 q 589 988 514 1013 q 721 929 664 964 l 667 817 m 290 -219 q 328 -245 306 -235 q 381 -256 351 -256 q 444 -240 415 -256 q 472 -194 472 -225 q 453 -153 472 -172 q 386 -135 435 -135 q 339 -140 364 -135 q 296 -151 314 -146 l 272 -85 l 368 3 l 476 -1 l 375 -119 l 344 -85 q 380 -75 360 -78 q 419 -71 400 -72 q 542 -101 494 -69 q 590 -193 590 -132 q 563 -271 590 -240 q 491 -317 535 -301 q 396 -332 447 -332 q 306 -316 342 -332 q 246 -278 269 -300 l 290 -219 z "},"Ŝ":{"ha":808,"x_min":64,"x_max":731,"o":"m 667 817 q 553 864 614 844 q 435 883 492 883 q 310 848 356 883 q 264 750 264 813 q 294 675 264 707 q 374 619 325 643 q 476 575 422 596 q 597 519 539 553 q 693 428 656 485 q 731 275 731 371 q 690 131 731 196 q 576 27 650 65 q 397 -11 501 -11 q 213 20 300 -11 q 64 94 126 51 l 129 210 q 249 144 178 172 q 383 117 319 117 q 475 133 431 117 q 549 183 519 149 q 579 275 579 218 q 553 356 579 322 q 484 413 526 389 q 393 454 442 436 q 297 494 346 472 q 206 547 247 515 q 140 626 165 579 q 114 739 114 672 q 152 881 114 821 q 258 975 190 940 q 414 1013 326 1010 q 589 988 514 1013 q 721 929 664 964 l 667 817 m 503 1082 l 376 1213 l 415 1224 l 288 1082 l 160 1082 l 393 1324 l 394 1324 l 632 1082 l 503 1082 z "},"Ș":{"ha":808,"x_min":64,"x_max":731,"o":"m 667 817 q 553 864 614 844 q 435 883 492 883 q 310 848 356 883 q 264 750 264 813 q 294 675 264 707 q 374 619 325 643 q 476 575 422 596 q 597 519 539 553 q 693 428 656 485 q 731 275 731 371 q 690 131 731 196 q 576 27 650 65 q 397 -11 501 -11 q 213 20 300 -11 q 64 94 126 51 l 129 210 q 249 144 178 172 q 383 117 319 117 q 475 133 431 117 q 549 183 519 149 q 579 275 579 218 q 553 356 579 322 q 484 413 526 389 q 393 454 442 436 q 297 494 346 472 q 206 547 247 515 q 140 626 165 579 q 114 739 114 672 q 152 881 114 821 q 258 975 190 940 q 414 1013 326 1010 q 589 988 514 1013 q 721 929 664 964 l 667 817 m 358 -312 l 288 -264 q 333 -181 319 -235 q 339 -76 347 -128 l 464 -78 q 460 -160 471 -115 q 424 -247 450 -206 q 358 -312 399 -287 z "},"ẞ":{"ha":1165,"x_min":143,"x_max":1092,"o":"m 793 -11 q 624 13 706 -11 q 476 83 543 38 l 540 197 q 657 140 592 163 q 782 117 722 117 q 853 131 817 117 q 915 176 890 146 q 940 257 940 207 q 917 323 940 296 q 858 372 894 350 q 782 417 822 394 q 677 481 729 444 q 591 569 625 518 q 557 692 557 621 q 619 865 557 797 q 799 940 682 932 q 860 931 838 940 q 900 906 883 921 l 854 835 q 728 916 800 889 q 581 943 656 943 q 368 848 447 943 q 289 546 289 753 l 289 0 l 143 0 l 143 551 q 192 816 143 701 q 334 994 240 931 q 565 1058 428 1058 q 719 1038 643 1058 q 858 984 796 1017 q 951 915 919 951 l 911 808 q 878 828 901 817 q 821 840 854 840 q 735 805 769 840 q 701 717 701 769 q 726 641 701 672 q 788 585 750 610 q 865 538 825 561 q 945 491 906 515 q 1018 435 985 467 q 1072 361 1051 404 q 1092 257 1092 318 q 1057 125 1092 186 q 956 26 1022 64 q 793 -11 889 -11 z "},"Ə":{"ha":1101,"x_min":64,"x_max":1022,"o":"m 522 1018 q 727 980 635 1018 q 885 874 819 942 q 987 715 951 806 q 1022 518 1022 624 q 983 312 1022 407 q 874 146 943 217 q 713 35 804 75 q 518 -4 622 -4 q 223 108 340 -4 q 64 410 106 219 l 885 699 l 917 592 l 189 328 l 235 374 q 344 196 269 265 q 529 126 418 126 q 698 178 621 126 q 822 316 775 229 q 868 511 868 403 q 819 699 868 617 q 691 828 771 781 q 518 875 611 875 q 415 859 468 875 q 315 815 361 843 q 236 753 268 788 l 164 871 q 267 944 206 911 q 396 998 328 978 q 522 1018 464 1018 z "},"T":{"ha":808,"x_min":69,"x_max":740,"o":"m 69 1007 l 740 1007 l 740 867 l 474 867 l 474 0 l 328 0 l 328 867 l 69 867 l 69 1007 z "},"Ŧ":{"ha":808,"x_min":69,"x_max":740,"o":"m 69 1007 l 740 1007 l 740 867 l 474 867 l 474 0 l 328 0 l 328 867 l 69 867 l 69 1007 m 203 565 l 597 565 l 597 435 l 203 435 l 203 565 z "},"Ť":{"ha":808,"x_min":69,"x_max":740,"o":"m 69 1007 l 740 1007 l 740 867 l 474 867 l 474 0 l 328 0 l 328 867 l 69 867 l 69 1007 m 294 1282 l 421 1150 l 381 1140 l 508 1282 l 638 1282 l 404 1040 l 403 1040 l 165 1282 l 294 1282 z "},"Ţ":{"ha":808,"x_min":69,"x_max":740,"o":"m 69 1007 l 740 1007 l 740 867 l 474 867 l 474 0 l 328 0 l 328 867 l 69 867 l 69 1007 m 292 -210 q 330 -235 307 -225 q 382 -246 353 -246 q 445 -231 417 -246 q 474 -185 474 -215 q 455 -144 474 -162 q 388 -125 436 -125 q 340 -131 365 -125 q 297 -142 315 -136 l 274 -75 l 369 13 l 478 8 l 376 -110 l 346 -75 q 381 -65 361 -68 q 421 -61 401 -62 q 544 -91 496 -60 q 592 -183 592 -122 q 564 -261 592 -231 q 492 -307 536 -292 q 397 -322 449 -322 q 307 -306 343 -322 q 247 -268 271 -290 l 292 -210 z "},"Ț":{"ha":808,"x_min":69,"x_max":740,"o":"m 69 1007 l 740 1007 l 740 867 l 474 867 l 474 0 l 328 0 l 328 867 l 69 867 l 69 1007 m 360 -303 l 289 -254 q 335 -172 321 -225 q 340 -67 349 -118 l 465 -68 q 462 -151 472 -106 q 426 -237 451 -196 q 360 -303 400 -278 z "},"U":{"ha":1021,"x_min":128,"x_max":893,"o":"m 274 360 q 305 244 274 296 q 390 161 336 192 q 510 131 444 131 q 633 161 579 131 q 719 244 688 192 q 750 360 750 296 l 750 1007 l 893 1007 l 893 356 q 842 163 893 246 q 703 35 790 81 q 510 -11 617 -11 l 510 -11 q 316 35 403 -11 q 178 163 229 81 q 128 356 128 246 l 128 1007 l 274 1007 l 274 360 z "},"Ú":{"ha":1021,"x_min":128,"x_max":893,"o":"m 274 360 q 305 244 274 296 q 390 161 336 192 q 510 131 444 131 q 633 161 579 131 q 719 244 688 192 q 750 360 750 296 l 750 1007 l 893 1007 l 893 356 q 842 163 893 246 q 703 35 790 81 q 510 -11 617 -11 l 510 -11 q 316 35 403 -11 q 178 163 229 81 q 128 356 128 246 l 128 1007 l 274 1007 l 274 360 m 732 1256 l 551 1069 l 464 1069 l 576 1256 l 732 1256 z "},"Ŭ":{"ha":1021,"x_min":128,"x_max":893,"o":"m 274 360 q 305 244 274 296 q 390 161 336 192 q 510 131 444 131 q 633 161 579 131 q 719 244 688 192 q 750 360 750 296 l 750 1007 l 893 1007 l 893 356 q 842 163 893 246 q 703 35 790 81 q 510 -11 617 -11 l 510 -11 q 316 35 403 -11 q 178 163 229 81 q 128 356 128 246 l 128 1007 l 274 1007 l 274 360 m 513 1076 q 369 1140 424 1076 q 299 1324 315 1204 l 393 1324 q 431 1215 403 1258 q 513 1172 460 1172 q 593 1215 565 1172 q 629 1324 621 1258 l 725 1324 q 656 1139 710 1201 q 513 1076 601 1076 z "},"Ǔ":{"ha":1021,"x_min":128,"x_max":893,"o":"m 274 360 q 305 244 274 296 q 390 161 336 192 q 510 131 444 131 q 633 161 579 131 q 719 244 688 192 q 750 360 750 296 l 750 1007 l 893 1007 l 893 356 q 842 163 893 246 q 703 35 790 81 q 510 -11 617 -11 l 510 -11 q 316 35 403 -11 q 178 163 229 81 q 128 356 128 246 l 128 1007 l 274 1007 l 274 360 m 401 1301 l 528 1169 l 488 1160 l 615 1301 l 744 1301 l 511 1060 l 510 1060 l 272 1301 l 401 1301 z "},"Û":{"ha":1021,"x_min":128,"x_max":893,"o":"m 274 360 q 305 244 274 296 q 390 161 336 192 q 510 131 444 131 q 633 161 579 131 q 719 244 688 192 q 750 360 750 296 l 750 1007 l 893 1007 l 893 356 q 842 163 893 246 q 703 35 790 81 q 510 -11 617 -11 l 510 -11 q 316 35 403 -11 q 178 163 229 81 q 128 356 128 246 l 128 1007 l 274 1007 l 274 360 m 611 1092 l 485 1222 l 524 1233 l 396 1092 l 268 1092 l 501 1333 l 503 1333 l 740 1092 l 611 1092 z "},"Ȕ":{"ha":1021,"x_min":128,"x_max":893,"o":"m 274 360 q 305 244 274 296 q 390 161 336 192 q 510 131 444 131 q 633 161 579 131 q 719 244 688 192 q 750 360 750 296 l 750 1007 l 893 1007 l 893 356 q 842 163 893 246 q 703 35 790 81 q 510 -11 617 -11 l 510 -11 q 316 35 403 -11 q 178 163 229 81 q 128 356 128 246 l 128 1007 l 274 1007 l 274 360 m 225 1276 l 379 1276 l 478 1090 l 390 1090 l 225 1276 m 429 1276 l 583 1276 l 682 1090 l 594 1090 l 429 1276 z "},"Ü":{"ha":1021,"x_min":128,"x_max":893,"o":"m 274 360 q 305 244 274 296 q 390 161 336 192 q 510 131 444 131 q 633 161 579 131 q 719 244 688 192 q 750 360 750 296 l 750 1007 l 893 1007 l 893 356 q 842 163 893 246 q 703 35 790 81 q 510 -11 617 -11 l 510 -11 q 316 35 403 -11 q 178 163 229 81 q 128 356 128 246 l 128 1007 l 274 1007 l 274 360 m 296 1156 q 320 1212 296 1189 q 374 1235 344 1235 q 426 1212 401 1235 q 450 1156 450 1189 q 426 1099 450 1121 q 374 1078 401 1078 q 320 1099 344 1078 q 296 1156 296 1121 l 296 1156 m 558 1156 q 583 1212 558 1189 q 636 1235 607 1235 q 688 1212 664 1235 q 713 1156 713 1189 q 688 1099 713 1121 q 636 1078 664 1078 q 583 1099 607 1078 q 558 1156 558 1121 l 558 1156 z "},"Ụ":{"ha":1021,"x_min":128,"x_max":893,"o":"m 274 360 q 305 244 274 296 q 390 161 336 192 q 510 131 444 131 q 633 161 579 131 q 719 244 688 192 q 750 360 750 296 l 750 1007 l 893 1007 l 893 356 q 842 163 893 246 q 703 35 790 81 q 510 -11 617 -11 l 510 -11 q 316 35 403 -11 q 178 163 229 81 q 128 356 128 246 l 128 1007 l 274 1007 l 274 360 m 428 -144 q 453 -90 428 -112 q 510 -68 479 -68 q 565 -90 540 -68 q 590 -144 590 -112 q 565 -200 590 -179 q 510 -221 540 -221 q 453 -200 479 -221 q 428 -144 428 -179 z "},"Ù":{"ha":1021,"x_min":128,"x_max":893,"o":"m 274 360 q 305 244 274 296 q 390 161 336 192 q 510 131 444 131 q 633 161 579 131 q 719 244 688 192 q 750 360 750 296 l 750 1007 l 893 1007 l 893 356 q 842 163 893 246 q 703 35 790 81 q 510 -11 617 -11 l 510 -11 q 316 35 403 -11 q 178 163 229 81 q 128 356 128 246 l 128 1007 l 274 1007 l 274 360 m 294 1264 l 449 1264 l 547 1078 l 460 1078 l 294 1264 z "},"Ủ":{"ha":1021,"x_min":128,"x_max":893,"o":"m 274 360 q 305 244 274 296 q 390 161 336 192 q 510 131 444 131 q 633 161 579 131 q 719 244 688 192 q 750 360 750 296 l 750 1007 l 893 1007 l 893 356 q 842 163 893 246 q 703 35 790 81 q 510 -11 617 -11 l 510 -11 q 316 35 403 -11 q 178 163 229 81 q 128 356 128 246 l 128 1007 l 274 1007 l 274 360 m 501 1122 q 546 1160 529 1142 q 563 1204 563 1179 q 551 1240 563 1226 q 518 1253 540 1253 q 481 1242 496 1253 q 454 1211 467 1231 l 403 1244 q 462 1310 426 1289 q 536 1332 497 1332 q 596 1317 572 1332 q 631 1276 619 1301 q 643 1222 643 1251 q 611 1140 643 1174 q 535 1079 579 1107 l 501 1122 z "},"Ư":{"ha":1050,"x_min":128,"x_max":1082,"o":"m 274 360 q 305 244 274 296 q 390 161 336 192 q 510 131 444 131 q 633 161 579 131 q 719 244 688 192 q 750 360 750 296 l 750 1007 l 893 1007 l 893 356 q 842 163 893 246 q 703 35 790 81 q 510 -11 617 -11 l 510 -11 q 316 35 403 -11 q 178 163 229 81 q 128 356 128 246 l 128 1007 l 274 1007 l 274 360 m 867 940 q 947 966 924 940 q 978 1061 969 992 l 1082 1061 q 1044 929 1072 974 q 971 869 1015 885 q 867 854 926 854 l 867 940 z "},"Ứ":{"ha":1050,"x_min":128,"x_max":1082,"o":"m 274 360 q 305 244 274 296 q 390 161 336 192 q 510 131 444 131 q 633 161 579 131 q 719 244 688 192 q 750 360 750 296 l 750 1007 l 893 1007 l 893 356 q 842 163 893 246 q 703 35 790 81 q 510 -11 617 -11 l 510 -11 q 316 35 403 -11 q 178 163 229 81 q 128 356 128 246 l 128 1007 l 274 1007 l 274 360 m 867 940 q 947 966 924 940 q 978 1061 969 992 l 1082 1061 q 1044 929 1072 974 q 971 869 1015 885 q 867 854 926 854 l 867 940 m 732 1256 l 551 1069 l 464 1069 l 576 1256 l 732 1256 z "},"Ự":{"ha":1050,"x_min":128,"x_max":1082,"o":"m 274 360 q 305 244 274 296 q 390 161 336 192 q 510 131 444 131 q 633 161 579 131 q 719 244 688 192 q 750 360 750 296 l 750 1007 l 893 1007 l 893 356 q 842 163 893 246 q 703 35 790 81 q 510 -11 617 -11 l 510 -11 q 316 35 403 -11 q 178 163 229 81 q 128 356 128 246 l 128 1007 l 274 1007 l 274 360 m 867 940 q 947 966 924 940 q 978 1061 969 992 l 1082 1061 q 1044 929 1072 974 q 971 869 1015 885 q 867 854 926 854 l 867 940 m 428 -144 q 453 -90 428 -112 q 510 -68 479 -68 q 565 -90 540 -68 q 590 -144 590 -112 q 565 -200 590 -179 q 510 -221 540 -221 q 453 -200 479 -221 q 428 -144 428 -179 z "},"Ừ":{"ha":1050,"x_min":128,"x_max":1082,"o":"m 274 360 q 305 244 274 296 q 390 161 336 192 q 510 131 444 131 q 633 161 579 131 q 719 244 688 192 q 750 360 750 296 l 750 1007 l 893 1007 l 893 356 q 842 163 893 246 q 703 35 790 81 q 510 -11 617 -11 l 510 -11 q 316 35 403 -11 q 178 163 229 81 q 128 356 128 246 l 128 1007 l 274 1007 l 274 360 m 867 940 q 947 966 924 940 q 978 1061 969 992 l 1082 1061 q 1044 929 1072 974 q 971 869 1015 885 q 867 854 926 854 l 867 940 m 294 1264 l 449 1264 l 547 1078 l 460 1078 l 294 1264 z "},"Ử":{"ha":1050,"x_min":128,"x_max":1082,"o":"m 274 360 q 305 244 274 296 q 390 161 336 192 q 510 131 444 131 q 633 161 579 131 q 719 244 688 192 q 750 360 750 296 l 750 1007 l 893 1007 l 893 356 q 842 163 893 246 q 703 35 790 81 q 510 -11 617 -11 l 510 -11 q 316 35 403 -11 q 178 163 229 81 q 128 356 128 246 l 128 1007 l 274 1007 l 274 360 m 867 940 q 947 966 924 940 q 978 1061 969 992 l 1082 1061 q 1044 929 1072 974 q 971 869 1015 885 q 867 854 926 854 l 867 940 m 501 1122 q 546 1160 529 1142 q 563 1204 563 1179 q 551 1240 563 1226 q 518 1253 540 1253 q 481 1242 496 1253 q 454 1211 467 1231 l 403 1244 q 462 1310 426 1289 q 536 1332 497 1332 q 596 1317 572 1332 q 631 1276 619 1301 q 643 1222 643 1251 q 611 1140 643 1174 q 535 1079 579 1107 l 501 1122 z "},"Ữ":{"ha":1050,"x_min":128,"x_max":1082,"o":"m 274 360 q 305 244 274 296 q 390 161 336 192 q 510 131 444 131 q 633 161 579 131 q 719 244 688 192 q 750 360 750 296 l 750 1007 l 893 1007 l 893 356 q 842 163 893 246 q 703 35 790 81 q 510 -11 617 -11 l 510 -11 q 316 35 403 -11 q 178 163 229 81 q 128 356 128 246 l 128 1007 l 274 1007 l 274 360 m 867 940 q 947 966 924 940 q 978 1061 969 992 l 1082 1061 q 1044 929 1072 974 q 971 869 1015 885 q 867 854 926 854 l 867 940 m 617 1119 q 542 1139 572 1119 q 489 1181 513 1158 q 456 1208 472 1196 q 419 1221 439 1221 q 378 1192 393 1221 q 365 1118 364 1164 l 292 1118 q 303 1217 288 1172 q 351 1287 318 1261 q 428 1313 383 1313 q 490 1293 464 1313 q 539 1251 517 1274 q 576 1219 558 1233 q 614 1206 594 1206 q 653 1235 642 1206 q 663 1313 664 1265 l 736 1313 q 728 1210 743 1254 q 684 1143 714 1167 q 617 1119 654 1119 z "},"Ű":{"ha":1021,"x_min":128,"x_max":893,"o":"m 274 360 q 305 244 274 296 q 390 161 336 192 q 510 131 444 131 q 633 161 579 131 q 719 244 688 192 q 750 360 750 296 l 750 1007 l 893 1007 l 893 356 q 842 163 893 246 q 703 35 790 81 q 510 -11 617 -11 l 510 -11 q 316 35 403 -11 q 178 163 229 81 q 128 356 128 246 l 128 1007 l 274 1007 l 274 360 m 589 1272 l 408 1086 l 321 1086 l 433 1272 l 589 1272 m 804 1269 l 624 1083 l 536 1083 l 649 1269 l 804 1269 z "},"Ȗ":{"ha":1021,"x_min":128,"x_max":893,"o":"m 274 360 q 305 244 274 296 q 390 161 336 192 q 510 131 444 131 q 633 161 579 131 q 719 244 688 192 q 750 360 750 296 l 750 1007 l 893 1007 l 893 356 q 842 163 893 246 q 703 35 790 81 q 510 -11 617 -11 l 510 -11 q 316 35 403 -11 q 178 163 229 81 q 128 356 128 246 l 128 1007 l 274 1007 l 274 360 m 504 1290 q 649 1226 594 1290 q 719 1043 703 1163 l 624 1043 q 586 1151 614 1108 q 504 1194 558 1194 q 424 1151 451 1194 q 388 1043 397 1108 l 293 1043 q 362 1228 308 1165 q 504 1290 415 1290 z "},"Ū":{"ha":1021,"x_min":128,"x_max":893,"o":"m 274 360 q 305 244 274 296 q 390 161 336 192 q 510 131 444 131 q 633 161 579 131 q 719 244 688 192 q 750 360 750 296 l 750 1007 l 893 1007 l 893 356 q 842 163 893 246 q 703 35 790 81 q 510 -11 617 -11 l 510 -11 q 316 35 403 -11 q 178 163 229 81 q 128 356 128 246 l 128 1007 l 274 1007 l 274 360 m 335 1181 l 678 1181 l 678 1082 l 335 1082 l 335 1181 z "},"Ų":{"ha":1021,"x_min":128,"x_max":893,"o":"m 654 -303 q 535 -260 585 -303 q 485 -147 485 -217 q 514 -56 485 -101 q 594 14 543 -11 l 636 71 l 650 13 q 510 -11 586 -11 q 310 35 396 -11 q 176 163 224 81 q 128 356 128 246 l 128 1007 l 274 1007 l 274 360 q 305 244 274 296 q 390 161 336 192 q 510 131 444 131 q 633 161 579 131 q 719 244 688 192 q 750 360 750 296 l 750 1007 l 893 1007 l 893 347 q 868 212 893 269 q 803 113 843 154 q 721 38 764 71 q 636 -44 671 -3 q 601 -136 601 -85 q 622 -187 601 -172 q 668 -203 642 -203 q 763 -136 722 -203 l 817 -207 q 744 -276 790 -249 q 654 -303 699 -303 z "},"Ů":{"ha":1021,"x_min":128,"x_max":893,"o":"m 274 360 q 305 244 274 296 q 390 161 336 192 q 510 131 444 131 q 633 161 579 131 q 719 244 688 192 q 750 360 750 296 l 750 1007 l 893 1007 l 893 356 q 842 163 893 246 q 703 35 790 81 q 510 -11 617 -11 l 510 -11 q 316 35 403 -11 q 178 163 229 81 q 128 356 128 246 l 128 1007 l 274 1007 l 274 360 m 381 1203 q 419 1295 381 1260 q 515 1331 457 1331 q 610 1295 572 1331 q 649 1203 649 1260 q 610 1111 649 1147 q 515 1075 572 1075 q 419 1110 457 1075 q 381 1203 381 1146 m 456 1201 q 472 1158 456 1175 q 515 1140 489 1140 q 557 1158 540 1140 q 574 1201 574 1175 q 557 1246 574 1229 q 515 1263 540 1263 q 472 1246 489 1263 q 456 1201 456 1229 z "},"Ũ":{"ha":1021,"x_min":128,"x_max":893,"o":"m 274 360 q 305 244 274 296 q 390 161 336 192 q 510 131 444 131 q 633 161 579 131 q 719 244 688 192 q 750 360 750 296 l 750 1007 l 893 1007 l 893 356 q 842 163 893 246 q 703 35 790 81 q 510 -11 617 -11 l 510 -11 q 316 35 403 -11 q 178 163 229 81 q 128 356 128 246 l 128 1007 l 274 1007 l 274 360 m 617 1119 q 542 1139 572 1119 q 489 1181 513 1158 q 456 1208 472 1196 q 419 1221 439 1221 q 378 1192 393 1221 q 365 1118 364 1164 l 292 1118 q 303 1217 288 1172 q 351 1287 318 1261 q 428 1313 383 1313 q 490 1293 464 1313 q 539 1251 517 1274 q 576 1219 558 1233 q 614 1206 594 1206 q 653 1235 642 1206 q 663 1313 664 1265 l 736 1313 q 728 1210 743 1254 q 684 1143 714 1167 q 617 1119 654 1119 z "},"V":{"ha":1003,"x_min":54,"x_max":949,"o":"m 228 1007 l 554 192 l 471 208 l 776 1007 l 949 1007 l 501 -47 l 54 1007 l 228 1007 z "},"W":{"ha":1403,"x_min":54,"x_max":1349,"o":"m 54 1001 l 224 1001 l 488 256 l 463 265 l 660 774 l 726 576 l 456 -47 l 54 1001 m 543 1001 l 688 1001 l 975 267 l 946 272 l 1193 1001 l 1349 1001 l 954 -44 l 543 1001 z "},"Ẃ":{"ha":1403,"x_min":54,"x_max":1349,"o":"m 54 1001 l 224 1001 l 488 256 l 463 265 l 660 774 l 726 576 l 456 -47 l 54 1001 m 543 1001 l 688 1001 l 975 267 l 946 272 l 1193 1001 l 1349 1001 l 954 -44 l 543 1001 m 924 1246 l 743 1060 l 656 1060 l 768 1246 l 924 1246 z "},"Ŵ":{"ha":1403,"x_min":54,"x_max":1349,"o":"m 54 1001 l 224 1001 l 488 256 l 463 265 l 660 774 l 726 576 l 456 -47 l 54 1001 m 543 1001 l 688 1001 l 975 267 l 946 272 l 1193 1001 l 1349 1001 l 954 -44 l 543 1001 m 803 1082 l 676 1213 l 715 1224 l 588 1082 l 460 1082 l 693 1324 l 694 1324 l 932 1082 l 803 1082 z "},"Ẅ":{"ha":1403,"x_min":54,"x_max":1349,"o":"m 54 1001 l 224 1001 l 488 256 l 463 265 l 660 774 l 726 576 l 456 -47 l 54 1001 m 543 1001 l 688 1001 l 975 267 l 946 272 l 1193 1001 l 1349 1001 l 954 -44 l 543 1001 m 488 1146 q 512 1202 488 1179 q 565 1225 536 1225 q 617 1202 593 1225 q 642 1146 642 1179 q 617 1090 642 1111 q 565 1068 593 1068 q 512 1090 536 1068 q 488 1146 488 1111 l 488 1146 m 750 1146 q 774 1202 750 1179 q 828 1225 799 1225 q 880 1202 856 1225 q 904 1146 904 1179 q 880 1090 904 1111 q 828 1068 856 1068 q 774 1090 799 1068 q 750 1146 750 1111 l 750 1146 z "},"Ẁ":{"ha":1403,"x_min":54,"x_max":1349,"o":"m 54 1001 l 224 1001 l 488 256 l 463 265 l 660 774 l 726 576 l 456 -47 l 54 1001 m 543 1001 l 688 1001 l 975 267 l 946 272 l 1193 1001 l 1349 1001 l 954 -44 l 543 1001 m 486 1254 l 640 1254 l 739 1068 l 651 1068 l 486 1254 z "},"X":{"ha":946,"x_min":46,"x_max":900,"o":"m 60 1007 l 243 1007 l 900 0 l 713 0 l 60 1007 m 46 0 l 396 550 l 467 408 l 225 0 l 46 0 m 472 604 l 711 1007 l 886 1007 l 549 481 l 472 604 z "},"Y":{"ha":967,"x_min":36,"x_max":931,"o":"m 408 332 l 36 1007 l 215 1007 l 508 457 l 463 454 l 753 1007 l 931 1007 l 554 332 l 554 0 l 408 0 l 408 332 z "},"Ý":{"ha":967,"x_min":36,"x_max":931,"o":"m 408 332 l 36 1007 l 215 1007 l 508 457 l 463 454 l 753 1007 l 931 1007 l 554 332 l 554 0 l 408 0 l 408 332 m 724 1253 l 543 1067 l 456 1067 l 568 1253 l 724 1253 z "},"Ŷ":{"ha":967,"x_min":36,"x_max":931,"o":"m 408 332 l 36 1007 l 215 1007 l 508 457 l 463 454 l 753 1007 l 931 1007 l 554 332 l 554 0 l 408 0 l 408 332 m 603 1089 l 476 1219 l 515 1231 l 388 1089 l 260 1089 l 493 1331 l 494 1331 l 732 1089 l 603 1089 z "},"Ÿ":{"ha":967,"x_min":36,"x_max":931,"o":"m 408 332 l 36 1007 l 215 1007 l 508 457 l 463 454 l 753 1007 l 931 1007 l 554 332 l 554 0 l 408 0 l 408 332 m 288 1153 q 312 1209 288 1186 q 365 1232 336 1232 q 417 1209 393 1232 q 442 1153 442 1186 q 417 1097 442 1118 q 365 1075 393 1075 q 312 1097 336 1075 q 288 1153 288 1118 l 288 1153 m 550 1153 q 574 1209 550 1186 q 628 1232 599 1232 q 680 1209 656 1232 q 704 1153 704 1186 q 680 1097 704 1118 q 628 1075 656 1075 q 574 1097 599 1075 q 550 1153 550 1118 l 550 1153 z "},"Ỵ":{"ha":967,"x_min":36,"x_max":931,"o":"m 408 332 l 36 1007 l 215 1007 l 508 457 l 463 454 l 753 1007 l 931 1007 l 554 332 l 554 0 l 408 0 l 408 332 m 400 -144 q 426 -90 400 -112 q 482 -68 451 -68 q 538 -90 513 -68 q 563 -144 563 -112 q 538 -200 563 -179 q 482 -221 513 -221 q 426 -200 451 -221 q 400 -144 400 -179 z "},"Ỳ":{"ha":967,"x_min":36,"x_max":931,"o":"m 408 332 l 36 1007 l 215 1007 l 508 457 l 463 454 l 753 1007 l 931 1007 l 554 332 l 554 0 l 408 0 l 408 332 m 286 1261 l 440 1261 l 539 1075 l 451 1075 l 286 1261 z "},"Ỷ":{"ha":967,"x_min":36,"x_max":931,"o":"m 408 332 l 36 1007 l 215 1007 l 508 457 l 463 454 l 753 1007 l 931 1007 l 554 332 l 554 0 l 408 0 l 408 332 m 493 1119 q 538 1158 521 1139 q 554 1201 554 1176 q 543 1237 554 1224 q 510 1250 532 1250 q 473 1239 488 1250 q 446 1208 458 1228 l 394 1242 q 453 1308 418 1286 q 528 1329 489 1329 q 588 1314 564 1329 q 623 1274 611 1299 q 635 1219 635 1249 q 603 1138 635 1171 q 526 1076 571 1104 l 493 1119 z "},"Ȳ":{"ha":967,"x_min":36,"x_max":931,"o":"m 408 332 l 36 1007 l 215 1007 l 508 457 l 463 454 l 753 1007 l 931 1007 l 554 332 l 554 0 l 408 0 l 408 332 m 328 1178 l 671 1178 l 671 1079 l 328 1079 l 328 1178 z "},"Ỹ":{"ha":967,"x_min":36,"x_max":931,"o":"m 408 332 l 36 1007 l 215 1007 l 508 457 l 463 454 l 753 1007 l 931 1007 l 554 332 l 554 0 l 408 0 l 408 332 m 608 1117 q 534 1136 564 1117 q 481 1178 504 1156 q 447 1206 464 1193 q 411 1218 431 1218 q 370 1190 385 1218 q 357 1115 356 1161 l 283 1115 q 294 1214 279 1169 q 342 1284 310 1258 q 419 1310 375 1310 q 482 1290 456 1310 q 531 1249 508 1271 q 568 1217 550 1231 q 606 1203 586 1203 q 644 1233 633 1203 q 654 1310 656 1263 l 728 1310 q 720 1208 735 1251 q 676 1140 706 1164 q 608 1117 646 1117 z "},"Z":{"ha":992,"x_min":69,"x_max":917,"o":"m 69 0 q 112 63 82 18 q 183 169 142 107 q 273 306 225 232 q 372 456 321 379 q 471 605 422 532 q 560 740 519 678 q 631 846 601 803 q 675 907 661 889 l 693 867 l 246 867 q 191 877 218 867 q 147 908 164 888 q 129 954 129 928 l 129 1057 l 264 1057 l 264 1039 q 274 1010 264 1014 q 307 1007 283 1007 l 904 1007 l 307 122 l 299 140 l 917 140 l 917 0 l 69 0 z "},"Ź":{"ha":992,"x_min":69,"x_max":917,"o":"m 69 0 q 112 63 82 18 q 183 169 142 107 q 273 306 225 232 q 372 456 321 379 q 471 605 422 532 q 560 740 519 678 q 631 846 601 803 q 675 907 661 889 l 693 867 l 246 867 q 191 877 218 867 q 147 908 164 888 q 129 954 129 928 l 129 1057 l 264 1057 l 264 1039 q 274 1010 264 1014 q 307 1007 283 1007 l 904 1007 l 307 122 l 299 140 l 917 140 l 917 0 l 69 0 m 717 1238 l 536 1051 l 449 1051 l 561 1238 l 717 1238 z "},"Ž":{"ha":992,"x_min":69,"x_max":917,"o":"m 69 0 q 112 63 82 18 q 183 169 142 107 q 273 306 225 232 q 372 456 321 379 q 471 605 422 532 q 560 740 519 678 q 631 846 601 803 q 675 907 661 889 l 693 867 l 246 867 q 191 877 218 867 q 147 908 164 888 q 129 954 129 928 l 129 1057 l 264 1057 l 264 1039 q 274 1010 264 1014 q 307 1007 283 1007 l 904 1007 l 307 122 l 299 140 l 917 140 l 917 0 l 69 0 m 386 1282 l 513 1150 l 472 1140 l 600 1282 l 729 1282 l 496 1040 l 494 1040 l 257 1282 l 386 1282 z "},"Ż":{"ha":992,"x_min":69,"x_max":917,"o":"m 69 0 q 112 63 82 18 q 183 169 142 107 q 273 306 225 232 q 372 456 321 379 q 471 605 422 532 q 560 740 519 678 q 631 846 601 803 q 675 907 661 889 l 693 867 l 246 867 q 191 877 218 867 q 147 908 164 888 q 129 954 129 928 l 129 1057 l 264 1057 l 264 1039 q 274 1010 264 1014 q 307 1007 283 1007 l 904 1007 l 307 122 l 299 140 l 917 140 l 917 0 l 69 0 m 415 1133 q 441 1188 415 1165 q 497 1210 467 1210 q 553 1188 528 1210 q 578 1133 578 1165 q 553 1078 578 1099 q 497 1057 528 1057 q 441 1078 467 1057 q 415 1133 415 1099 z "},"a":{"ha":821,"x_min":60,"x_max":711,"o":"m 353 -14 q 204 21 271 -14 q 99 123 138 56 q 60 290 60 190 q 101 458 60 388 q 209 566 142 528 q 356 604 276 604 q 493 569 439 604 q 576 486 547 535 l 568 464 l 582 581 l 711 581 l 711 0 l 571 0 l 571 147 l 585 113 q 561 81 579 101 q 514 38 543 60 q 444 1 485 17 q 353 -14 403 -14 m 390 101 q 508 138 460 101 q 571 239 556 175 l 571 358 q 503 453 554 415 q 386 490 453 490 q 294 466 336 490 q 228 398 253 442 q 203 297 203 354 q 228 197 203 242 q 297 127 254 153 q 390 101 340 101 z "},"á":{"ha":821,"x_min":60,"x_max":711,"o":"m 353 -14 q 204 21 271 -14 q 99 123 138 56 q 60 290 60 190 q 101 458 60 388 q 209 566 142 528 q 356 604 276 604 q 493 569 439 604 q 576 486 547 535 l 568 464 l 582 581 l 711 581 l 711 0 l 571 0 l 571 147 l 585 113 q 561 81 579 101 q 514 38 543 60 q 444 1 485 17 q 353 -14 403 -14 m 390 101 q 508 138 460 101 q 571 239 556 175 l 571 358 q 503 453 554 415 q 386 490 453 490 q 294 466 336 490 q 228 398 253 442 q 203 297 203 354 q 228 197 203 242 q 297 127 254 153 q 390 101 340 101 m 594 872 l 414 686 l 326 686 l 439 872 l 594 872 z "},"ă":{"ha":821,"x_min":60,"x_max":711,"o":"m 353 -14 q 204 21 271 -14 q 99 123 138 56 q 60 290 60 190 q 101 458 60 388 q 209 566 142 528 q 356 604 276 604 q 493 569 439 604 q 576 486 547 535 l 568 464 l 582 581 l 711 581 l 711 0 l 571 0 l 571 147 l 585 113 q 561 81 579 101 q 514 38 543 60 q 444 1 485 17 q 353 -14 403 -14 m 390 101 q 508 138 460 101 q 571 239 556 175 l 571 358 q 503 453 554 415 q 386 490 453 490 q 294 466 336 490 q 228 398 253 442 q 203 297 203 354 q 228 197 203 242 q 297 127 254 153 q 390 101 340 101 m 431 668 q 288 732 342 668 q 217 915 233 796 l 311 915 q 349 807 321 850 q 431 764 378 764 q 511 807 483 764 q 547 915 539 850 l 643 915 q 574 731 628 793 q 431 668 519 668 z "},"ắ":{"ha":821,"x_min":60,"x_max":711,"o":"m 353 -14 q 204 21 271 -14 q 99 123 138 56 q 60 290 60 190 q 101 458 60 388 q 209 566 142 528 q 356 604 276 604 q 493 569 439 604 q 576 486 547 535 l 568 464 l 582 581 l 711 581 l 711 0 l 571 0 l 571 147 l 585 113 q 561 81 579 101 q 514 38 543 60 q 444 1 485 17 q 353 -14 403 -14 m 390 101 q 508 138 460 101 q 571 239 556 175 l 571 358 q 503 453 554 415 q 386 490 453 490 q 294 466 336 490 q 228 398 253 442 q 203 297 203 354 q 228 197 203 242 q 297 127 254 153 q 390 101 340 101 m 431 668 q 288 732 342 668 q 217 915 233 796 l 311 915 q 349 807 321 850 q 431 764 378 764 q 511 807 483 764 q 547 915 539 850 l 643 915 q 574 731 628 793 q 431 668 519 668 m 578 1131 l 397 944 l 310 944 l 422 1131 l 578 1131 z "},"ặ":{"ha":821,"x_min":60,"x_max":711,"o":"m 353 -14 q 204 21 271 -14 q 99 123 138 56 q 60 290 60 190 q 101 458 60 388 q 209 566 142 528 q 356 604 276 604 q 493 569 439 604 q 576 486 547 535 l 568 464 l 582 581 l 711 581 l 711 0 l 571 0 l 571 147 l 585 113 q 561 81 579 101 q 514 38 543 60 q 444 1 485 17 q 353 -14 403 -14 m 390 101 q 508 138 460 101 q 571 239 556 175 l 571 358 q 503 453 554 415 q 386 490 453 490 q 294 466 336 490 q 228 398 253 442 q 203 297 203 354 q 228 197 203 242 q 297 127 254 153 q 390 101 340 101 m 340 -146 q 363 -99 340 -117 q 411 -81 385 -81 q 458 -99 436 -81 q 479 -146 479 -117 q 458 -193 479 -175 q 411 -211 436 -211 q 363 -192 385 -211 q 340 -146 340 -174 m 431 668 q 288 732 342 668 q 217 915 233 796 l 311 915 q 349 807 321 850 q 431 764 378 764 q 511 807 483 764 q 547 915 539 850 l 643 915 q 574 731 628 793 q 431 668 519 668 z "},"ằ":{"ha":821,"x_min":60,"x_max":711,"o":"m 353 -14 q 204 21 271 -14 q 99 123 138 56 q 60 290 60 190 q 101 458 60 388 q 209 566 142 528 q 356 604 276 604 q 493 569 439 604 q 576 486 547 535 l 568 464 l 582 581 l 711 581 l 711 0 l 571 0 l 571 147 l 585 113 q 561 81 579 101 q 514 38 543 60 q 444 1 485 17 q 353 -14 403 -14 m 390 101 q 508 138 460 101 q 571 239 556 175 l 571 358 q 503 453 554 415 q 386 490 453 490 q 294 466 336 490 q 228 398 253 442 q 203 297 203 354 q 228 197 203 242 q 297 127 254 153 q 390 101 340 101 m 431 668 q 288 732 342 668 q 217 915 233 796 l 311 915 q 349 807 321 850 q 431 764 378 764 q 511 807 483 764 q 547 915 539 850 l 643 915 q 574 731 628 793 q 431 668 519 668 m 225 1128 l 379 1128 l 478 942 l 390 942 l 225 1128 z "},"ẳ":{"ha":821,"x_min":60,"x_max":711,"o":"m 353 -14 q 204 21 271 -14 q 99 123 138 56 q 60 290 60 190 q 101 458 60 388 q 209 566 142 528 q 356 604 276 604 q 493 569 439 604 q 576 486 547 535 l 568 464 l 582 581 l 711 581 l 711 0 l 571 0 l 571 147 l 585 113 q 561 81 579 101 q 514 38 543 60 q 444 1 485 17 q 353 -14 403 -14 m 390 101 q 508 138 460 101 q 571 239 556 175 l 571 358 q 503 453 554 415 q 386 490 453 490 q 294 466 336 490 q 228 398 253 442 q 203 297 203 354 q 228 197 203 242 q 297 127 254 153 q 390 101 340 101 m 431 668 q 288 732 342 668 q 217 915 233 796 l 311 915 q 349 807 321 850 q 431 764 378 764 q 511 807 483 764 q 547 915 539 850 l 643 915 q 574 731 628 793 q 431 668 519 668 m 422 964 q 467 1002 450 983 q 483 1046 483 1021 q 472 1081 483 1068 q 439 1094 461 1094 q 402 1083 417 1094 q 375 1053 388 1072 l 324 1086 q 383 1152 347 1131 q 457 1174 418 1174 q 517 1158 493 1174 q 552 1118 540 1143 q 564 1064 564 1093 q 532 982 564 1015 q 456 921 500 949 l 422 964 z "},"ẵ":{"ha":821,"x_min":60,"x_max":711,"o":"m 353 -14 q 204 21 271 -14 q 99 123 138 56 q 60 290 60 190 q 101 458 60 388 q 209 566 142 528 q 356 604 276 604 q 493 569 439 604 q 576 486 547 535 l 568 464 l 582 581 l 711 581 l 711 0 l 571 0 l 571 147 l 585 113 q 561 81 579 101 q 514 38 543 60 q 444 1 485 17 q 353 -14 403 -14 m 390 101 q 508 138 460 101 q 571 239 556 175 l 571 358 q 503 453 554 415 q 386 490 453 490 q 294 466 336 490 q 228 398 253 442 q 203 297 203 354 q 228 197 203 242 q 297 127 254 153 q 390 101 340 101 m 431 668 q 288 732 342 668 q 217 915 233 796 l 311 915 q 349 807 321 850 q 431 764 378 764 q 511 807 483 764 q 547 915 539 850 l 643 915 q 574 731 628 793 q 431 668 519 668 m 550 961 q 475 981 504 961 q 421 1024 446 1001 q 389 1051 406 1039 q 353 1064 372 1064 q 311 1035 326 1064 q 297 961 296 1006 l 224 961 q 235 1060 219 1015 q 283 1130 250 1104 q 360 1156 315 1156 q 422 1136 396 1156 q 471 1094 449 1117 q 508 1063 490 1076 q 546 1049 526 1049 q 585 1078 574 1049 q 594 1156 596 1108 l 669 1156 q 661 1053 676 1097 q 617 985 646 1010 q 550 961 588 961 z "},"â":{"ha":821,"x_min":60,"x_max":711,"o":"m 353 -14 q 204 21 271 -14 q 99 123 138 56 q 60 290 60 190 q 101 458 60 388 q 209 566 142 528 q 356 604 276 604 q 493 569 439 604 q 576 486 547 535 l 568 464 l 582 581 l 711 581 l 711 0 l 571 0 l 571 147 l 585 113 q 561 81 579 101 q 514 38 543 60 q 444 1 485 17 q 353 -14 403 -14 m 390 101 q 508 138 460 101 q 571 239 556 175 l 571 358 q 503 453 554 415 q 386 490 453 490 q 294 466 336 490 q 228 398 253 442 q 203 297 203 354 q 228 197 203 242 q 297 127 254 153 q 390 101 340 101 m 536 694 l 410 825 l 449 836 l 321 694 l 193 694 l 426 936 l 428 936 l 665 694 l 536 694 z "},"ấ":{"ha":821,"x_min":60,"x_max":821,"o":"m 353 -14 q 204 21 271 -14 q 99 123 138 56 q 60 290 60 190 q 101 458 60 388 q 209 566 142 528 q 356 604 276 604 q 493 569 439 604 q 576 486 547 535 l 568 464 l 582 581 l 711 581 l 711 0 l 571 0 l 571 147 l 585 113 q 561 81 579 101 q 514 38 543 60 q 444 1 485 17 q 353 -14 403 -14 m 390 101 q 508 138 460 101 q 571 239 556 175 l 571 358 q 503 453 554 415 q 386 490 453 490 q 294 466 336 490 q 228 398 253 442 q 203 297 203 354 q 228 197 203 242 q 297 127 254 153 q 390 101 340 101 m 540 689 l 414 819 l 453 831 l 325 689 l 197 689 l 431 931 l 432 931 l 669 689 l 540 689 m 821 1013 l 640 826 l 553 826 l 665 1013 l 821 1013 z "},"ậ":{"ha":821,"x_min":60,"x_max":711,"o":"m 353 -14 q 204 21 271 -14 q 99 123 138 56 q 60 290 60 190 q 101 458 60 388 q 209 566 142 528 q 356 604 276 604 q 493 569 439 604 q 576 486 547 535 l 568 464 l 582 581 l 711 581 l 711 0 l 571 0 l 571 147 l 585 113 q 561 81 579 101 q 514 38 543 60 q 444 1 485 17 q 353 -14 403 -14 m 390 101 q 508 138 460 101 q 571 239 556 175 l 571 358 q 503 453 554 415 q 386 490 453 490 q 294 466 336 490 q 228 398 253 442 q 203 297 203 354 q 228 197 203 242 q 297 127 254 153 q 390 101 340 101 m 340 -146 q 363 -99 340 -117 q 411 -81 385 -81 q 458 -99 436 -81 q 479 -146 479 -117 q 458 -193 479 -175 q 411 -211 436 -211 q 363 -192 385 -211 q 340 -146 340 -174 m 536 694 l 410 825 l 449 836 l 321 694 l 193 694 l 426 936 l 428 936 l 665 694 l 536 694 z "},"ầ":{"ha":821,"x_min":-4,"x_max":711,"o":"m 353 -14 q 204 21 271 -14 q 99 123 138 56 q 60 290 60 190 q 101 458 60 388 q 209 566 142 528 q 356 604 276 604 q 493 569 439 604 q 576 486 547 535 l 568 464 l 582 581 l 711 581 l 711 0 l 571 0 l 571 147 l 585 113 q 561 81 579 101 q 514 38 543 60 q 444 1 485 17 q 353 -14 403 -14 m 390 101 q 508 138 460 101 q 571 239 556 175 l 571 358 q 503 453 554 415 q 386 490 453 490 q 294 466 336 490 q 228 398 253 442 q 203 297 203 354 q 228 197 203 242 q 297 127 254 153 q 390 101 340 101 m 531 685 l 404 815 l 443 826 l 315 685 l 188 685 l 421 926 l 422 926 l 660 685 l 531 685 m -4 1021 l 150 1021 l 249 835 l 161 835 l -4 1021 z "},"ẩ":{"ha":821,"x_min":60,"x_max":790,"o":"m 353 -14 q 204 21 271 -14 q 99 123 138 56 q 60 290 60 190 q 101 458 60 388 q 209 566 142 528 q 356 604 276 604 q 493 569 439 604 q 576 486 547 535 l 568 464 l 582 581 l 711 581 l 711 0 l 571 0 l 571 147 l 585 113 q 561 81 579 101 q 514 38 543 60 q 444 1 485 17 q 353 -14 403 -14 m 390 101 q 508 138 460 101 q 571 239 556 175 l 571 358 q 503 453 554 415 q 386 490 453 490 q 294 466 336 490 q 228 398 253 442 q 203 297 203 354 q 228 197 203 242 q 297 127 254 153 q 390 101 340 101 m 535 689 l 408 819 l 447 831 l 319 689 l 192 689 l 425 931 l 426 931 l 664 689 l 535 689 m 649 835 q 693 873 676 854 q 710 917 710 892 q 699 952 710 939 q 665 965 688 965 q 628 954 643 965 q 601 924 614 943 l 550 957 q 609 1023 574 1001 q 683 1044 644 1044 q 743 1029 719 1044 q 778 989 767 1014 q 790 935 790 964 q 758 853 790 886 q 682 792 726 819 l 649 835 z "},"ẫ":{"ha":821,"x_min":60,"x_max":711,"o":"m 353 -14 q 204 21 271 -14 q 99 123 138 56 q 60 290 60 190 q 101 458 60 388 q 209 566 142 528 q 356 604 276 604 q 493 569 439 604 q 576 486 547 535 l 568 464 l 582 581 l 711 581 l 711 0 l 571 0 l 571 147 l 585 113 q 561 81 579 101 q 514 38 543 60 q 444 1 485 17 q 353 -14 403 -14 m 390 101 q 508 138 460 101 q 571 239 556 175 l 571 358 q 503 453 554 415 q 386 490 453 490 q 294 466 336 490 q 228 398 253 442 q 203 297 203 354 q 228 197 203 242 q 297 127 254 153 q 390 101 340 101 m 529 681 l 403 811 l 442 822 l 314 681 l 186 681 l 419 922 l 421 922 l 658 681 l 529 681 m 531 957 q 456 977 485 957 q 401 1019 426 997 q 369 1047 386 1035 q 333 1060 353 1060 q 292 1031 307 1060 q 278 957 276 1001 l 204 957 q 215 1056 200 1011 q 263 1126 231 1100 q 340 1151 296 1151 q 403 1132 376 1151 q 451 1090 429 1113 q 489 1058 471 1072 q 526 1044 507 1044 q 565 1074 554 1044 q 575 1151 576 1104 l 650 1151 q 642 1049 657 1093 q 597 981 626 1006 q 531 957 568 957 z "},"ȁ":{"ha":821,"x_min":60,"x_max":711,"o":"m 353 -14 q 204 21 271 -14 q 99 123 138 56 q 60 290 60 190 q 101 458 60 388 q 209 566 142 528 q 356 604 276 604 q 493 569 439 604 q 576 486 547 535 l 568 464 l 582 581 l 711 581 l 711 0 l 571 0 l 571 147 l 585 113 q 561 81 579 101 q 514 38 543 60 q 444 1 485 17 q 353 -14 403 -14 m 390 101 q 508 138 460 101 q 571 239 556 175 l 571 358 q 503 453 554 415 q 386 490 453 490 q 294 466 336 490 q 228 398 253 442 q 203 297 203 354 q 228 197 203 242 q 297 127 254 153 q 390 101 340 101 m 131 881 l 285 881 l 383 694 l 296 694 l 131 881 m 335 881 l 489 881 l 588 694 l 500 694 l 335 881 z "},"ä":{"ha":821,"x_min":60,"x_max":711,"o":"m 353 -14 q 204 21 271 -14 q 99 123 138 56 q 60 290 60 190 q 101 458 60 388 q 209 566 142 528 q 356 604 276 604 q 493 569 439 604 q 576 486 547 535 l 568 464 l 582 581 l 711 581 l 711 0 l 571 0 l 571 147 l 585 113 q 561 81 579 101 q 514 38 543 60 q 444 1 485 17 q 353 -14 403 -14 m 390 101 q 508 138 460 101 q 571 239 556 175 l 571 358 q 503 453 554 415 q 386 490 453 490 q 294 466 336 490 q 228 398 253 442 q 203 297 203 354 q 228 197 203 242 q 297 127 254 153 q 390 101 340 101 m 219 754 q 244 810 219 788 q 297 833 268 833 q 349 810 325 833 q 374 754 374 788 q 349 698 374 719 q 297 676 325 676 q 244 698 268 676 q 219 754 219 719 l 219 754 m 482 754 q 506 810 482 788 q 560 833 531 833 q 612 810 588 833 q 636 754 636 788 q 612 698 636 719 q 560 676 588 676 q 506 698 531 676 q 482 754 482 719 l 482 754 z "},"ạ":{"ha":821,"x_min":60,"x_max":711,"o":"m 353 -14 q 204 21 271 -14 q 99 123 138 56 q 60 290 60 190 q 101 458 60 388 q 209 566 142 528 q 356 604 276 604 q 493 569 439 604 q 576 486 547 535 l 568 464 l 582 581 l 711 581 l 711 0 l 571 0 l 571 147 l 585 113 q 561 81 579 101 q 514 38 543 60 q 444 1 485 17 q 353 -14 403 -14 m 390 101 q 508 138 460 101 q 571 239 556 175 l 571 358 q 503 453 554 415 q 386 490 453 490 q 294 466 336 490 q 228 398 253 442 q 203 297 203 354 q 228 197 203 242 q 297 127 254 153 q 390 101 340 101 m 340 -146 q 363 -99 340 -117 q 411 -81 385 -81 q 458 -99 436 -81 q 479 -146 479 -117 q 458 -193 479 -175 q 411 -211 436 -211 q 363 -192 385 -211 q 340 -146 340 -174 z "},"à":{"ha":821,"x_min":60,"x_max":711,"o":"m 353 -14 q 204 21 271 -14 q 99 123 138 56 q 60 290 60 190 q 101 458 60 388 q 209 566 142 528 q 356 604 276 604 q 493 569 439 604 q 576 486 547 535 l 568 464 l 582 581 l 711 581 l 711 0 l 571 0 l 571 147 l 585 113 q 561 81 579 101 q 514 38 543 60 q 444 1 485 17 q 353 -14 403 -14 m 390 101 q 508 138 460 101 q 571 239 556 175 l 571 358 q 503 453 554 415 q 386 490 453 490 q 294 466 336 490 q 228 398 253 442 q 203 297 203 354 q 228 197 203 242 q 297 127 254 153 q 390 101 340 101 m 221 881 l 375 881 l 474 694 l 386 694 l 221 881 z "},"ả":{"ha":821,"x_min":60,"x_max":711,"o":"m 353 -14 q 204 21 271 -14 q 99 123 138 56 q 60 290 60 190 q 101 458 60 388 q 209 566 142 528 q 356 604 276 604 q 493 569 439 604 q 576 486 547 535 l 568 464 l 582 581 l 711 581 l 711 0 l 571 0 l 571 147 l 585 113 q 561 81 579 101 q 514 38 543 60 q 444 1 485 17 q 353 -14 403 -14 m 390 101 q 508 138 460 101 q 571 239 556 175 l 571 358 q 503 453 554 415 q 386 490 453 490 q 294 466 336 490 q 228 398 253 442 q 203 297 203 354 q 228 197 203 242 q 297 127 254 153 q 390 101 340 101 m 399 708 q 443 747 426 728 q 460 790 460 765 q 449 826 460 813 q 415 839 438 839 q 378 828 393 839 q 351 797 364 817 l 300 831 q 359 897 324 875 q 433 918 394 918 q 493 903 469 918 q 528 863 517 888 q 540 808 540 838 q 508 726 540 760 q 432 665 476 693 l 399 708 z "},"ȃ":{"ha":821,"x_min":60,"x_max":711,"o":"m 353 -14 q 204 21 271 -14 q 99 123 138 56 q 60 290 60 190 q 101 458 60 388 q 209 566 142 528 q 356 604 276 604 q 493 569 439 604 q 576 486 547 535 l 568 464 l 582 581 l 711 581 l 711 0 l 571 0 l 571 147 l 585 113 q 561 81 579 101 q 514 38 543 60 q 444 1 485 17 q 353 -14 403 -14 m 390 101 q 508 138 460 101 q 571 239 556 175 l 571 358 q 503 453 554 415 q 386 490 453 490 q 294 466 336 490 q 228 398 253 442 q 203 297 203 354 q 228 197 203 242 q 297 127 254 153 q 390 101 340 101 m 435 907 q 578 843 525 907 q 649 660 632 779 l 554 660 q 516 768 544 725 q 435 811 488 811 q 354 768 382 811 q 318 660 326 725 l 222 660 q 292 844 238 782 q 435 907 346 907 z "},"ā":{"ha":821,"x_min":60,"x_max":711,"o":"m 353 -14 q 204 21 271 -14 q 99 123 138 56 q 60 290 60 190 q 101 458 60 388 q 209 566 142 528 q 356 604 276 604 q 493 569 439 604 q 576 486 547 535 l 568 464 l 582 581 l 711 581 l 711 0 l 571 0 l 571 147 l 585 113 q 561 81 579 101 q 514 38 543 60 q 444 1 485 17 q 353 -14 403 -14 m 390 101 q 508 138 460 101 q 571 239 556 175 l 571 358 q 503 453 554 415 q 386 490 453 490 q 294 466 336 490 q 228 398 253 442 q 203 297 203 354 q 228 197 203 242 q 297 127 254 153 q 390 101 340 101 m 258 779 l 601 779 l 601 681 l 258 681 l 258 779 z "},"ą":{"ha":828,"x_min":64,"x_max":788,"o":"m 351 -14 q 207 21 272 -14 q 103 123 142 56 q 64 290 64 190 q 104 458 64 388 q 210 566 144 528 q 351 604 276 604 q 453 588 411 604 q 526 545 496 572 q 575 486 556 518 l 585 581 l 715 581 l 715 0 q 613 -60 651 -29 q 575 -136 575 -92 q 594 -187 575 -172 q 640 -203 614 -203 q 736 -136 693 -203 l 788 -207 q 717 -276 763 -249 q 628 -303 671 -303 q 507 -260 557 -303 q 457 -147 457 -217 q 490 -55 457 -99 q 579 14 524 -11 l 592 -6 l 575 -25 l 575 146 l 585 113 q 538 59 568 89 q 461 8 507 29 q 351 -14 415 -14 m 390 101 q 509 138 460 101 q 575 239 558 175 l 575 358 q 508 453 558 415 q 390 490 457 490 q 299 466 340 490 q 231 398 257 442 q 206 297 206 354 q 231 197 206 242 q 299 127 257 153 q 390 101 340 101 z "},"å":{"ha":821,"x_min":60,"x_max":711,"o":"m 353 -14 q 204 21 271 -14 q 99 123 138 56 q 60 290 60 190 q 101 458 60 388 q 209 566 142 528 q 356 604 276 604 q 493 569 439 604 q 576 486 547 535 l 568 464 l 582 581 l 711 581 l 711 0 l 571 0 l 571 147 l 585 113 q 561 81 579 101 q 514 38 543 60 q 444 1 485 17 q 353 -14 403 -14 m 390 101 q 508 138 460 101 q 571 239 556 175 l 571 358 q 503 453 554 415 q 386 490 453 490 q 294 466 336 490 q 228 398 253 442 q 203 297 203 354 q 228 197 203 242 q 297 127 254 153 q 390 101 340 101 m 283 776 q 322 869 283 833 q 418 904 360 904 q 513 869 475 904 q 551 776 551 833 q 513 685 551 721 q 418 649 475 649 q 322 684 360 649 q 283 776 283 719 m 358 775 q 375 731 358 749 q 418 714 392 714 q 460 731 443 714 q 476 775 476 749 q 460 819 476 803 q 418 836 443 836 q 375 819 392 836 q 358 775 358 803 z "},"ǻ":{"ha":821,"x_min":60,"x_max":711,"o":"m 353 -14 q 204 21 271 -14 q 99 123 138 56 q 60 290 60 190 q 101 458 60 388 q 209 566 142 528 q 356 604 276 604 q 493 569 439 604 q 576 486 547 535 l 568 464 l 582 581 l 711 581 l 711 0 l 571 0 l 571 147 l 585 113 q 561 81 579 101 q 514 38 543 60 q 444 1 485 17 q 353 -14 403 -14 m 390 101 q 508 138 460 101 q 571 239 556 175 l 571 358 q 503 453 554 415 q 386 490 453 490 q 294 466 336 490 q 228 398 253 442 q 203 297 203 354 q 228 197 203 242 q 297 127 254 153 q 390 101 340 101 m 283 776 q 322 869 283 833 q 418 904 360 904 q 513 869 475 904 q 551 776 551 833 q 513 685 551 721 q 418 649 475 649 q 322 684 360 649 q 283 776 283 719 m 358 775 q 375 731 358 749 q 418 714 392 714 q 460 731 443 714 q 476 775 476 749 q 460 819 476 803 q 418 836 443 836 q 375 819 392 836 q 358 775 358 803 m 594 1176 l 414 990 l 326 990 l 439 1176 l 594 1176 z "},"ã":{"ha":821,"x_min":60,"x_max":711,"o":"m 353 -14 q 204 21 271 -14 q 99 123 138 56 q 60 290 60 190 q 101 458 60 388 q 209 566 142 528 q 356 604 276 604 q 493 569 439 604 q 576 486 547 535 l 568 464 l 582 581 l 711 581 l 711 0 l 571 0 l 571 147 l 585 113 q 561 81 579 101 q 514 38 543 60 q 444 1 485 17 q 353 -14 403 -14 m 390 101 q 508 138 460 101 q 571 239 556 175 l 571 358 q 503 453 554 415 q 386 490 453 490 q 294 466 336 490 q 228 398 253 442 q 203 297 203 354 q 228 197 203 242 q 297 127 254 153 q 390 101 340 101 m 538 658 q 463 678 492 658 q 408 721 433 699 q 376 749 393 736 q 340 761 360 761 q 299 732 314 761 q 285 658 283 703 l 211 658 q 222 757 207 713 q 270 827 238 801 q 347 853 303 853 q 410 833 383 853 q 458 792 436 814 q 496 760 478 774 q 533 746 514 746 q 572 776 561 746 q 582 853 583 806 l 657 853 q 649 751 664 794 q 604 683 633 707 q 538 658 575 658 z "},"æ":{"ha":1139,"x_min":60,"x_max":1092,"o":"m 288 -15 q 115 37 169 -15 q 60 165 60 89 q 94 263 60 222 q 183 324 128 303 q 300 344 239 344 q 426 324 365 344 q 521 271 486 303 l 497 190 q 419 238 456 222 q 332 253 383 253 q 250 233 285 253 q 215 169 215 214 q 243 107 215 131 q 326 83 271 83 q 410 103 365 83 q 479 151 456 122 l 479 233 l 539 233 l 539 90 q 426 10 496 35 q 288 -15 357 -15 m 469 281 l 469 365 q 447 442 469 415 q 395 478 425 468 q 342 488 365 488 q 243 461 286 488 q 168 397 200 435 l 97 488 q 207 569 142 535 q 361 603 272 603 q 487 581 432 603 q 574 514 542 558 q 606 404 606 469 l 606 363 l 469 281 m 792 -14 q 619 26 692 -14 q 508 135 547 65 q 469 294 469 206 q 513 451 469 381 q 631 563 557 521 q 794 604 704 604 q 988 537 911 604 q 1092 347 1065 469 l 618 183 l 585 264 l 965 403 l 936 383 q 883 460 919 428 q 785 493 847 493 q 658 440 707 493 q 608 303 608 386 q 661 160 608 214 q 794 106 714 106 q 867 119 832 106 q 932 154 901 132 l 996 50 q 898 3 951 21 q 792 -14 844 -14 z "},"ǽ":{"ha":1139,"x_min":60,"x_max":1092,"o":"m 288 -15 q 115 37 169 -15 q 60 165 60 89 q 94 263 60 222 q 183 324 128 303 q 300 344 239 344 q 426 324 365 344 q 521 271 486 303 l 497 190 q 419 238 456 222 q 332 253 383 253 q 250 233 285 253 q 215 169 215 214 q 243 107 215 131 q 326 83 271 83 q 410 103 365 83 q 479 151 456 122 l 479 233 l 539 233 l 539 90 q 426 10 496 35 q 288 -15 357 -15 m 469 281 l 469 365 q 447 442 469 415 q 395 478 425 468 q 342 488 365 488 q 243 461 286 488 q 168 397 200 435 l 97 488 q 207 569 142 535 q 361 603 272 603 q 487 581 432 603 q 574 514 542 558 q 606 404 606 469 l 606 363 l 469 281 m 792 -14 q 619 26 692 -14 q 508 135 547 65 q 469 294 469 206 q 513 451 469 381 q 631 563 557 521 q 794 604 704 604 q 988 537 911 604 q 1092 347 1065 469 l 618 183 l 585 264 l 965 403 l 936 383 q 883 460 919 428 q 785 493 847 493 q 658 440 707 493 q 608 303 608 386 q 661 160 608 214 q 794 106 714 106 q 867 119 832 106 q 932 154 901 132 l 996 50 q 898 3 951 21 q 792 -14 844 -14 m 733 853 l 553 667 l 465 667 l 578 853 l 733 853 z "},"b":{"ha":831,"x_min":110,"x_max":771,"o":"m 469 -14 q 331 19 389 -14 q 236 103 272 51 l 250 143 l 250 0 l 110 0 l 110 1079 l 250 1079 l 250 453 l 246 504 q 344 576 281 549 q 488 604 407 604 q 629 567 565 604 q 732 463 693 531 q 771 300 771 394 q 728 131 771 201 q 618 24 686 61 q 469 -14 550 -14 m 439 104 q 536 130 493 104 q 603 200 579 156 q 628 300 628 244 q 603 399 628 356 q 535 467 578 442 q 439 493 493 493 q 318 457 369 493 q 250 361 267 421 l 250 239 q 317 142 268 181 q 439 104 367 104 z "},"c":{"ha":639,"x_min":60,"x_max":589,"o":"m 585 54 q 491 4 546 22 q 381 -14 436 -14 q 213 24 286 -14 q 100 129 140 61 q 60 290 60 197 q 103 453 60 385 q 216 558 146 521 q 367 594 286 594 q 494 575 439 594 q 589 521 549 556 l 519 431 q 460 465 496 450 q 379 481 424 481 q 288 456 329 481 q 224 388 247 431 q 200 290 200 344 q 224 194 200 238 q 292 126 249 151 q 392 101 336 101 q 459 113 428 101 q 514 142 490 124 l 585 54 z "},"ć":{"ha":639,"x_min":60,"x_max":589,"o":"m 585 54 q 491 4 546 22 q 381 -14 436 -14 q 213 24 286 -14 q 100 129 140 61 q 60 290 60 197 q 103 453 60 385 q 216 558 146 521 q 367 594 286 594 q 494 575 439 594 q 589 521 549 556 l 519 431 q 460 465 496 450 q 379 481 424 481 q 288 456 329 481 q 224 388 247 431 q 200 290 200 344 q 224 194 200 238 q 292 126 249 151 q 392 101 336 101 q 459 113 428 101 q 514 142 490 124 l 585 54 m 518 863 l 338 676 l 250 676 l 363 863 l 518 863 z "},"č":{"ha":639,"x_min":60,"x_max":599,"o":"m 585 54 q 491 4 546 22 q 381 -14 436 -14 q 213 24 286 -14 q 100 129 140 61 q 60 290 60 197 q 103 453 60 385 q 216 558 146 521 q 367 594 286 594 q 494 575 439 594 q 589 521 549 556 l 519 431 q 460 465 496 450 q 379 481 424 481 q 288 456 329 481 q 224 388 247 431 q 200 290 200 344 q 224 194 200 238 q 292 126 249 151 q 392 101 336 101 q 459 113 428 101 q 514 142 490 124 l 585 54 m 256 903 l 382 771 l 342 761 l 469 903 l 599 903 l 365 661 l 364 661 l 126 903 l 256 903 z "},"ç":{"ha":639,"x_min":60,"x_max":589,"o":"m 585 54 q 491 4 546 22 q 381 -14 436 -14 q 213 24 286 -14 q 100 129 140 61 q 60 290 60 197 q 103 453 60 385 q 216 558 146 521 q 367 594 286 594 q 494 575 439 594 q 589 521 549 556 l 519 431 q 460 465 496 450 q 379 481 424 481 q 288 456 329 481 q 224 388 247 431 q 200 290 200 344 q 224 194 200 238 q 292 126 249 151 q 392 101 336 101 q 459 113 428 101 q 514 142 490 124 l 585 54 m 207 -207 q 245 -233 222 -222 q 297 -243 268 -243 q 360 -228 332 -243 q 389 -182 389 -212 q 370 -141 389 -160 q 303 -122 351 -122 q 256 -128 281 -122 q 213 -139 231 -133 l 189 -72 l 285 15 l 393 11 l 292 -107 l 261 -72 q 297 -62 276 -65 q 336 -58 317 -60 q 459 -88 411 -57 q 507 -181 507 -119 q 479 -258 507 -228 q 408 -304 451 -289 q 313 -319 364 -319 q 222 -303 258 -319 q 163 -265 186 -287 l 207 -207 z "},"ĉ":{"ha":639,"x_min":60,"x_max":589,"o":"m 585 54 q 491 4 546 22 q 381 -14 436 -14 q 213 24 286 -14 q 100 129 140 61 q 60 290 60 197 q 103 453 60 385 q 216 558 146 521 q 367 594 286 594 q 494 575 439 594 q 589 521 549 556 l 519 431 q 460 465 496 450 q 379 481 424 481 q 288 456 329 481 q 224 388 247 431 q 200 290 200 344 q 224 194 200 238 q 292 126 249 151 q 392 101 336 101 q 459 113 428 101 q 514 142 490 124 l 585 54 m 460 685 l 333 815 l 372 826 l 244 685 l 117 685 l 350 926 l 351 926 l 589 685 l 460 685 z "},"ċ":{"ha":639,"x_min":60,"x_max":589,"o":"m 585 54 q 491 4 546 22 q 381 -14 436 -14 q 213 24 286 -14 q 100 129 140 61 q 60 290 60 197 q 103 453 60 385 q 216 558 146 521 q 367 594 286 594 q 494 575 439 594 q 589 521 549 556 l 519 431 q 460 465 496 450 q 379 481 424 481 q 288 456 329 481 q 224 388 247 431 q 200 290 200 344 q 224 194 200 238 q 292 126 249 151 q 392 101 336 101 q 459 113 428 101 q 514 142 490 124 l 585 54 m 274 800 q 299 854 274 832 q 356 876 325 876 q 411 854 386 876 q 436 800 436 832 q 411 744 436 765 q 356 724 386 724 q 299 744 325 724 q 274 800 274 765 z "},"d":{"ha":831,"x_min":60,"x_max":721,"o":"m 347 -14 q 200 24 265 -14 q 97 133 135 63 q 60 299 60 204 q 100 464 60 396 q 209 568 140 532 q 364 604 278 604 q 491 577 431 604 q 586 501 551 550 l 581 453 l 581 1079 l 721 1079 l 721 0 l 579 0 l 579 139 l 594 101 q 490 19 553 51 q 347 -14 426 -14 m 390 104 q 513 142 464 104 q 579 244 563 181 l 579 360 q 512 456 564 418 q 390 493 460 493 q 297 469 340 493 q 228 401 254 444 q 203 300 203 357 q 228 201 203 246 q 297 131 254 157 q 390 104 340 104 z "},"ð":{"ha":763,"x_min":60,"x_max":703,"o":"m 368 -14 q 213 24 283 -14 q 101 131 143 61 q 60 296 60 201 q 99 453 60 383 q 203 564 138 524 q 349 604 268 604 q 453 580 407 604 q 533 516 500 556 q 586 429 567 476 q 611 335 606 382 l 560 353 q 531 544 557 457 q 458 708 504 632 q 347 849 411 783 q 206 976 283 915 l 308 1069 q 463 932 392 1014 q 588 753 535 850 q 672 552 642 656 q 703 347 703 449 q 681 215 703 279 q 615 99 658 150 q 510 17 572 47 q 368 -14 449 -14 m 381 101 q 510 157 460 101 q 561 294 561 213 q 510 433 561 376 q 381 489 460 489 q 289 463 329 489 q 225 392 249 436 q 201 294 201 347 q 225 197 201 240 q 290 127 249 153 q 381 101 331 101 m 606 935 l 268 725 l 221 818 l 558 1026 l 606 935 z "},"ď":{"ha":971,"x_min":60,"x_max":988,"o":"m 347 -14 q 200 24 265 -14 q 97 133 135 63 q 60 299 60 204 q 100 464 60 396 q 209 568 140 532 q 364 604 278 604 q 491 577 431 604 q 586 501 551 550 l 581 453 l 581 1079 l 721 1079 l 721 0 l 579 0 l 579 139 l 594 101 q 490 19 553 51 q 347 -14 426 -14 m 390 104 q 513 142 464 104 q 579 244 563 181 l 579 360 q 512 456 564 418 q 390 493 460 493 q 297 469 340 493 q 228 401 254 444 q 203 300 203 357 q 228 201 203 246 q 297 131 254 157 q 390 104 340 104 m 885 850 l 813 885 q 860 962 843 913 q 868 1060 878 1011 l 979 1069 q 976 988 988 1031 q 940 908 964 944 q 885 850 915 871 l 885 850 z "},"đ":{"ha":831,"x_min":60,"x_max":839,"o":"m 347 -14 q 200 24 265 -14 q 97 133 135 63 q 60 299 60 204 q 100 464 60 396 q 209 568 140 532 q 364 604 278 604 q 491 577 431 604 q 586 501 551 550 l 581 453 l 581 1079 l 721 1079 l 721 0 l 579 0 l 579 139 l 594 101 q 490 19 553 51 q 347 -14 426 -14 m 390 104 q 513 142 464 104 q 579 244 563 181 l 579 360 q 512 456 564 418 q 390 493 460 493 q 297 469 340 493 q 228 401 254 444 q 203 300 203 357 q 228 201 203 246 q 297 131 254 157 q 390 104 340 104 m 444 946 l 839 946 l 839 815 l 444 815 l 444 946 z "},"ǳ":{"ha":1486,"x_min":60,"x_max":1418,"o":"m 347 -14 q 200 24 265 -14 q 97 133 135 63 q 60 299 60 204 q 100 464 60 396 q 209 568 140 532 q 364 604 278 604 q 491 577 431 604 q 586 501 551 550 l 581 453 l 581 1079 l 721 1079 l 721 0 l 579 0 l 579 139 l 594 101 q 490 19 553 51 q 347 -14 426 -14 m 390 104 q 513 142 464 104 q 579 244 563 181 l 579 360 q 512 456 564 418 q 390 493 460 493 q 297 469 340 493 q 228 401 254 444 q 203 300 203 357 q 228 201 203 246 q 297 131 254 157 q 390 104 340 104 m 1001 465 q 925 494 957 465 q 893 576 893 522 l 893 636 l 1000 636 l 1000 617 q 1011 587 1000 593 q 1047 581 1022 581 l 1418 581 l 1075 86 l 1047 115 l 1413 115 l 1413 0 l 868 0 l 1218 506 l 1240 465 l 1001 465 z "},"ǆ":{"ha":1486,"x_min":60,"x_max":1418,"o":"m 347 -14 q 200 24 265 -14 q 97 133 135 63 q 60 299 60 204 q 100 464 60 396 q 209 568 140 532 q 364 604 278 604 q 491 577 431 604 q 586 501 551 550 l 581 453 l 581 1079 l 721 1079 l 721 0 l 579 0 l 579 139 l 594 101 q 490 19 553 51 q 347 -14 426 -14 m 390 104 q 513 142 464 104 q 579 244 563 181 l 579 360 q 512 456 564 418 q 390 493 460 493 q 297 469 340 493 q 228 401 254 444 q 203 300 203 357 q 228 201 203 246 q 297 131 254 157 q 390 104 340 104 m 1001 465 q 925 494 957 465 q 893 576 893 522 l 893 636 l 1000 636 l 1000 617 q 1011 587 1000 593 q 1047 581 1022 581 l 1418 581 l 1075 86 l 1047 115 l 1413 115 l 1413 0 l 868 0 l 1218 506 l 1240 465 l 1001 465 m 1064 893 l 1190 761 l 1150 751 l 1278 893 l 1407 893 l 1174 651 l 1172 651 l 935 893 l 1064 893 z "},"e":{"ha":729,"x_min":60,"x_max":682,"o":"m 382 -14 q 210 26 282 -14 q 99 135 138 65 q 60 294 60 206 q 103 451 60 381 q 221 563 147 521 q 385 604 294 604 q 578 537 501 604 q 682 347 656 469 l 208 183 l 175 264 l 556 403 l 526 383 q 474 460 510 428 q 375 493 438 493 q 248 440 297 493 q 199 303 199 386 q 251 160 199 214 q 385 106 304 106 q 457 119 422 106 q 522 154 492 132 l 586 50 q 488 3 542 21 q 382 -14 435 -14 z "},"é":{"ha":729,"x_min":60,"x_max":682,"o":"m 382 -14 q 210 26 282 -14 q 99 135 138 65 q 60 294 60 206 q 103 451 60 381 q 221 563 147 521 q 385 604 294 604 q 578 537 501 604 q 682 347 656 469 l 208 183 l 175 264 l 556 403 l 526 383 q 474 460 510 428 q 375 493 438 493 q 248 440 297 493 q 199 303 199 386 q 251 160 199 214 q 385 106 304 106 q 457 119 422 106 q 522 154 492 132 l 586 50 q 488 3 542 21 q 382 -14 435 -14 m 543 872 l 363 686 l 275 686 l 388 872 l 543 872 z "},"ĕ":{"ha":729,"x_min":60,"x_max":682,"o":"m 382 -14 q 210 26 282 -14 q 99 135 138 65 q 60 294 60 206 q 103 451 60 381 q 221 563 147 521 q 385 604 294 604 q 578 537 501 604 q 682 347 656 469 l 208 183 l 175 264 l 556 403 l 526 383 q 474 460 510 428 q 375 493 438 493 q 248 440 297 493 q 199 303 199 386 q 251 160 199 214 q 385 106 304 106 q 457 119 422 106 q 522 154 492 132 l 586 50 q 488 3 542 21 q 382 -14 435 -14 m 379 668 q 236 732 290 668 q 165 915 182 796 l 260 915 q 298 807 269 850 q 379 764 326 764 q 460 807 432 764 q 496 915 488 850 l 592 915 q 522 731 576 793 q 379 668 468 668 z "},"ě":{"ha":729,"x_min":60,"x_max":682,"o":"m 382 -14 q 210 26 282 -14 q 99 135 138 65 q 60 294 60 206 q 103 451 60 381 q 221 563 147 521 q 385 604 294 604 q 578 537 501 604 q 682 347 656 469 l 208 183 l 175 264 l 556 403 l 526 383 q 474 460 510 428 q 375 493 438 493 q 248 440 297 493 q 199 303 199 386 q 251 160 199 214 q 385 106 304 106 q 457 119 422 106 q 522 154 492 132 l 586 50 q 488 3 542 21 q 382 -14 435 -14 m 281 914 l 407 782 l 367 772 l 494 914 l 624 914 l 390 672 l 389 672 l 151 914 l 281 914 z "},"ê":{"ha":729,"x_min":60,"x_max":682,"o":"m 382 -14 q 210 26 282 -14 q 99 135 138 65 q 60 294 60 206 q 103 451 60 381 q 221 563 147 521 q 385 604 294 604 q 578 537 501 604 q 682 347 656 469 l 208 183 l 175 264 l 556 403 l 526 383 q 474 460 510 428 q 375 493 438 493 q 248 440 297 493 q 199 303 199 386 q 251 160 199 214 q 385 106 304 106 q 457 119 422 106 q 522 154 492 132 l 586 50 q 488 3 542 21 q 382 -14 435 -14 m 485 694 l 358 825 l 397 836 l 269 694 l 142 694 l 375 936 l 376 936 l 614 694 l 485 694 z "},"ế":{"ha":729,"x_min":60,"x_max":769,"o":"m 382 -14 q 210 26 282 -14 q 99 135 138 65 q 60 294 60 206 q 103 451 60 381 q 221 563 147 521 q 385 604 294 604 q 578 537 501 604 q 682 347 656 469 l 208 183 l 175 264 l 556 403 l 526 383 q 474 460 510 428 q 375 493 438 493 q 248 440 297 493 q 199 303 199 386 q 251 160 199 214 q 385 106 304 106 q 457 119 422 106 q 522 154 492 132 l 586 50 q 488 3 542 21 q 382 -14 435 -14 m 489 690 l 363 821 l 401 832 l 274 690 l 146 690 l 379 932 l 381 932 l 618 690 l 489 690 m 769 1014 l 589 828 l 501 828 l 614 1014 l 769 1014 z "},"ệ":{"ha":729,"x_min":60,"x_max":682,"o":"m 382 -14 q 210 26 282 -14 q 99 135 138 65 q 60 294 60 206 q 103 451 60 381 q 221 563 147 521 q 385 604 294 604 q 578 537 501 604 q 682 347 656 469 l 208 183 l 175 264 l 556 403 l 526 383 q 474 460 510 428 q 375 493 438 493 q 248 440 297 493 q 199 303 199 386 q 251 160 199 214 q 385 106 304 106 q 457 119 422 106 q 522 154 492 132 l 586 50 q 488 3 542 21 q 382 -14 435 -14 m 296 -146 q 318 -99 296 -117 q 367 -81 340 -81 q 413 -99 392 -81 q 435 -146 435 -117 q 413 -193 435 -175 q 367 -211 392 -211 q 318 -192 340 -211 q 296 -146 296 -174 m 485 694 l 358 825 l 397 836 l 269 694 l 142 694 l 375 936 l 376 936 l 614 694 l 485 694 z "},"ề":{"ha":729,"x_min":-57,"x_max":682,"o":"m 382 -14 q 210 26 282 -14 q 99 135 138 65 q 60 294 60 206 q 103 451 60 381 q 221 563 147 521 q 385 604 294 604 q 578 537 501 604 q 682 347 656 469 l 208 183 l 175 264 l 556 403 l 526 383 q 474 460 510 428 q 375 493 438 493 q 248 440 297 493 q 199 303 199 386 q 251 160 199 214 q 385 106 304 106 q 457 119 422 106 q 522 154 492 132 l 586 50 q 488 3 542 21 q 382 -14 435 -14 m 478 686 l 351 817 l 390 828 l 263 686 l 135 686 l 368 928 l 369 928 l 607 686 l 478 686 m -57 1022 l 97 1022 l 196 836 l 108 836 l -57 1022 z "},"ể":{"ha":729,"x_min":60,"x_max":739,"o":"m 382 -14 q 210 26 282 -14 q 99 135 138 65 q 60 294 60 206 q 103 451 60 381 q 221 563 147 521 q 385 604 294 604 q 578 537 501 604 q 682 347 656 469 l 208 183 l 175 264 l 556 403 l 526 383 q 474 460 510 428 q 375 493 438 493 q 248 440 297 493 q 199 303 199 386 q 251 160 199 214 q 385 106 304 106 q 457 119 422 106 q 522 154 492 132 l 586 50 q 488 3 542 21 q 382 -14 435 -14 m 483 690 l 357 821 l 396 832 l 268 690 l 140 690 l 374 932 l 375 932 l 613 690 l 483 690 m 597 836 q 642 874 625 856 q 658 918 658 893 q 647 953 658 940 q 614 967 636 967 q 577 956 592 967 q 550 925 563 944 l 499 958 q 558 1024 522 1003 q 632 1046 593 1046 q 692 1031 668 1046 q 727 990 715 1015 q 739 936 739 965 q 707 854 739 888 q 631 793 675 821 l 597 836 z "},"ễ":{"ha":729,"x_min":60,"x_max":682,"o":"m 382 -14 q 210 26 282 -14 q 99 135 138 65 q 60 294 60 206 q 103 451 60 381 q 221 563 147 521 q 385 604 294 604 q 578 537 501 604 q 682 347 656 469 l 208 183 l 175 264 l 556 403 l 526 383 q 474 460 510 428 q 375 493 438 493 q 248 440 297 493 q 199 303 199 386 q 251 160 199 214 q 385 106 304 106 q 457 119 422 106 q 522 154 492 132 l 586 50 q 488 3 542 21 q 382 -14 435 -14 m 476 681 l 350 811 l 389 822 l 261 681 l 133 681 l 367 922 l 368 922 l 606 681 l 476 681 m 478 957 q 403 977 432 957 q 349 1019 374 997 q 317 1047 333 1035 q 281 1060 300 1060 q 239 1031 254 1060 q 225 957 224 1001 l 151 957 q 163 1056 147 1011 q 210 1126 178 1100 q 288 1151 243 1151 q 350 1132 324 1151 q 399 1090 376 1113 q 436 1058 418 1072 q 474 1044 454 1044 q 513 1074 501 1044 q 522 1151 524 1104 l 597 1151 q 589 1049 604 1093 q 544 981 574 1006 q 478 957 515 957 z "},"ȅ":{"ha":729,"x_min":60,"x_max":682,"o":"m 382 -14 q 210 26 282 -14 q 99 135 138 65 q 60 294 60 206 q 103 451 60 381 q 221 563 147 521 q 385 604 294 604 q 578 537 501 604 q 682 347 656 469 l 208 183 l 175 264 l 556 403 l 526 383 q 474 460 510 428 q 375 493 438 493 q 248 440 297 493 q 199 303 199 386 q 251 160 199 214 q 385 106 304 106 q 457 119 422 106 q 522 154 492 132 l 586 50 q 488 3 542 21 q 382 -14 435 -14 m 79 882 l 233 882 l 332 696 l 244 696 l 79 882 m 283 882 l 438 882 l 536 696 l 449 696 l 283 882 z "},"ë":{"ha":729,"x_min":60,"x_max":682,"o":"m 382 -14 q 210 26 282 -14 q 99 135 138 65 q 60 294 60 206 q 103 451 60 381 q 221 563 147 521 q 385 604 294 604 q 578 537 501 604 q 682 347 656 469 l 208 183 l 175 264 l 556 403 l 526 383 q 474 460 510 428 q 375 493 438 493 q 248 440 297 493 q 199 303 199 386 q 251 160 199 214 q 385 106 304 106 q 457 119 422 106 q 522 154 492 132 l 586 50 q 488 3 542 21 q 382 -14 435 -14 m 168 756 q 192 812 168 789 q 246 835 217 835 q 298 812 274 835 q 322 756 322 789 q 298 699 322 721 q 246 678 274 678 q 192 699 217 678 q 168 756 168 721 l 168 756 m 431 756 q 455 812 431 789 q 508 835 479 835 q 560 812 536 835 q 585 756 585 789 q 560 699 585 721 q 508 678 536 678 q 455 699 479 678 q 431 756 431 721 l 431 756 z "},"ė":{"ha":729,"x_min":60,"x_max":682,"o":"m 382 -14 q 210 26 282 -14 q 99 135 138 65 q 60 294 60 206 q 103 451 60 381 q 221 563 147 521 q 385 604 294 604 q 578 537 501 604 q 682 347 656 469 l 208 183 l 175 264 l 556 403 l 526 383 q 474 460 510 428 q 375 493 438 493 q 248 440 297 493 q 199 303 199 386 q 251 160 199 214 q 385 106 304 106 q 457 119 422 106 q 522 154 492 132 l 586 50 q 488 3 542 21 q 382 -14 435 -14 m 299 810 q 324 864 299 842 q 381 886 350 886 q 436 864 411 886 q 461 810 461 842 q 436 754 461 775 q 381 733 411 733 q 324 754 350 733 q 299 810 299 775 z "},"ẹ":{"ha":729,"x_min":60,"x_max":682,"o":"m 382 -14 q 210 26 282 -14 q 99 135 138 65 q 60 294 60 206 q 103 451 60 381 q 221 563 147 521 q 385 604 294 604 q 578 537 501 604 q 682 347 656 469 l 208 183 l 175 264 l 556 403 l 526 383 q 474 460 510 428 q 375 493 438 493 q 248 440 297 493 q 199 303 199 386 q 251 160 199 214 q 385 106 304 106 q 457 119 422 106 q 522 154 492 132 l 586 50 q 488 3 542 21 q 382 -14 435 -14 m 296 -146 q 318 -99 296 -117 q 367 -81 340 -81 q 413 -99 392 -81 q 435 -146 435 -117 q 413 -193 435 -175 q 367 -211 392 -211 q 318 -192 340 -211 q 296 -146 296 -174 z "},"è":{"ha":729,"x_min":60,"x_max":682,"o":"m 382 -14 q 210 26 282 -14 q 99 135 138 65 q 60 294 60 206 q 103 451 60 381 q 221 563 147 521 q 385 604 294 604 q 578 537 501 604 q 682 347 656 469 l 208 183 l 175 264 l 556 403 l 526 383 q 474 460 510 428 q 375 493 438 493 q 248 440 297 493 q 199 303 199 386 q 251 160 199 214 q 385 106 304 106 q 457 119 422 106 q 522 154 492 132 l 586 50 q 488 3 542 21 q 382 -14 435 -14 m 169 882 l 324 882 l 422 696 l 335 696 l 169 882 z "},"ẻ":{"ha":729,"x_min":60,"x_max":682,"o":"m 382 -14 q 210 26 282 -14 q 99 135 138 65 q 60 294 60 206 q 103 451 60 381 q 221 563 147 521 q 385 604 294 604 q 578 537 501 604 q 682 347 656 469 l 208 183 l 175 264 l 556 403 l 526 383 q 474 460 510 428 q 375 493 438 493 q 248 440 297 493 q 199 303 199 386 q 251 160 199 214 q 385 106 304 106 q 457 119 422 106 q 522 154 492 132 l 586 50 q 488 3 542 21 q 382 -14 435 -14 m 347 708 q 392 747 375 728 q 408 790 408 765 q 397 826 408 813 q 364 839 386 839 q 327 828 342 839 q 300 797 313 817 l 249 831 q 308 897 272 875 q 382 918 343 918 q 442 903 418 918 q 477 863 465 888 q 489 808 489 838 q 457 726 489 760 q 381 665 425 693 l 347 708 z "},"ȇ":{"ha":729,"x_min":60,"x_max":682,"o":"m 382 -14 q 210 26 282 -14 q 99 135 138 65 q 60 294 60 206 q 103 451 60 381 q 221 563 147 521 q 385 604 294 604 q 578 537 501 604 q 682 347 656 469 l 208 183 l 175 264 l 556 403 l 526 383 q 474 460 510 428 q 375 493 438 493 q 248 440 297 493 q 199 303 199 386 q 251 160 199 214 q 385 106 304 106 q 457 119 422 106 q 522 154 492 132 l 586 50 q 488 3 542 21 q 382 -14 435 -14 m 383 907 q 527 843 474 907 q 597 660 581 779 l 503 660 q 465 768 493 725 q 383 811 436 811 q 303 768 331 811 q 267 660 275 725 l 171 660 q 240 844 186 782 q 383 907 294 907 z "},"ē":{"ha":729,"x_min":60,"x_max":682,"o":"m 382 -14 q 210 26 282 -14 q 99 135 138 65 q 60 294 60 206 q 103 451 60 381 q 221 563 147 521 q 385 604 294 604 q 578 537 501 604 q 682 347 656 469 l 208 183 l 175 264 l 556 403 l 526 383 q 474 460 510 428 q 375 493 438 493 q 248 440 297 493 q 199 303 199 386 q 251 160 199 214 q 385 106 304 106 q 457 119 422 106 q 522 154 492 132 l 586 50 q 488 3 542 21 q 382 -14 435 -14 m 206 779 l 549 779 l 549 681 l 206 681 l 206 779 z "},"ę":{"ha":733,"x_min":64,"x_max":685,"o":"m 454 -303 q 325 -259 374 -303 q 276 -143 276 -215 q 303 -56 276 -99 q 381 14 329 -12 l 525 33 q 486 9 513 19 q 432 -8 460 -1 q 386 -14 404 -14 q 214 26 286 -14 q 103 135 142 65 q 64 294 64 206 q 108 451 64 381 q 225 563 151 521 q 389 604 299 604 q 582 537 506 604 q 685 347 658 469 l 213 183 l 181 263 l 561 400 l 531 383 q 476 461 513 429 q 379 493 440 493 q 252 440 301 493 q 203 303 203 386 q 256 160 203 214 q 389 106 310 106 q 460 119 426 106 q 525 154 494 132 l 590 50 q 522 13 557 29 q 458 -20 488 -3 q 411 -61 429 -37 q 393 -121 393 -85 q 417 -181 393 -160 q 468 -203 442 -203 q 516 -187 494 -203 q 558 -143 538 -172 l 610 -218 q 540 -278 583 -254 q 454 -303 496 -303 z "},"ẽ":{"ha":729,"x_min":60,"x_max":682,"o":"m 382 -14 q 210 26 282 -14 q 99 135 138 65 q 60 294 60 206 q 103 451 60 381 q 221 563 147 521 q 385 604 294 604 q 578 537 501 604 q 682 347 656 469 l 208 183 l 175 264 l 556 403 l 526 383 q 474 460 510 428 q 375 493 438 493 q 248 440 297 493 q 199 303 199 386 q 251 160 199 214 q 385 106 304 106 q 457 119 422 106 q 522 154 492 132 l 586 50 q 488 3 542 21 q 382 -14 435 -14 m 486 660 q 411 680 440 660 q 357 722 382 700 q 325 750 342 738 q 289 763 308 763 q 247 733 263 763 q 233 660 232 704 l 160 660 q 171 758 156 714 q 219 828 186 803 q 296 854 251 854 q 358 835 332 854 q 407 793 385 815 q 444 761 426 775 q 482 747 463 747 q 521 777 510 747 q 531 854 532 807 l 606 854 q 597 752 613 796 q 553 684 582 708 q 486 660 524 660 z "},"ə":{"ha":729,"x_min":49,"x_max":669,"o":"m 347 594 q 519 554 447 594 q 631 444 592 514 q 669 286 669 375 q 626 129 669 200 q 508 17 582 58 q 344 -25 435 -25 q 151 43 228 -25 q 49 232 75 111 l 521 397 l 554 315 l 174 178 l 203 196 q 256 119 219 153 q 356 86 292 86 q 482 140 433 86 q 531 278 531 193 q 478 421 531 367 q 344 475 426 475 q 273 462 307 475 q 208 426 239 449 l 144 529 q 242 577 189 560 q 347 594 296 594 z "},"f":{"ha":539,"x_min":60,"x_max":524,"o":"m 158 0 l 158 456 l 60 456 l 60 581 l 158 581 l 158 818 q 217 1010 158 942 q 390 1079 276 1079 q 458 1070 421 1079 q 524 1042 494 1061 l 464 940 q 435 959 451 954 q 404 964 419 964 q 327 930 356 964 q 299 815 299 896 l 299 581 l 482 581 l 482 456 l 299 456 l 299 0 l 158 0 z "},"g":{"ha":839,"x_min":60,"x_max":729,"o":"m 393 -289 q 276 -273 326 -289 q 187 -231 226 -257 q 111 -172 147 -204 l 194 -76 q 284 -142 238 -118 q 390 -165 331 -165 q 536 -121 485 -165 q 589 -1 588 -76 l 589 150 l 599 124 q 510 26 574 65 q 354 -14 447 -14 q 207 26 274 -14 q 100 136 140 67 q 60 293 60 206 q 102 453 60 383 q 214 564 144 524 q 363 604 283 604 q 502 575 440 604 q 593 500 564 546 l 586 476 l 600 581 l 729 581 l 729 -4 q 688 -148 729 -83 q 571 -251 646 -212 q 393 -289 496 -289 m 201 297 q 227 197 201 242 q 297 127 253 153 q 394 101 340 101 q 519 140 468 101 q 589 238 571 178 l 589 357 q 518 453 571 417 q 394 490 465 490 q 297 465 340 490 q 227 397 253 440 q 201 297 201 354 z "},"ğ":{"ha":839,"x_min":60,"x_max":729,"o":"m 393 -289 q 276 -273 326 -289 q 187 -231 226 -257 q 111 -172 147 -204 l 194 -76 q 284 -142 238 -118 q 390 -165 331 -165 q 536 -121 485 -165 q 589 -1 588 -76 l 589 150 l 599 124 q 510 26 574 65 q 354 -14 447 -14 q 207 26 274 -14 q 100 136 140 67 q 60 293 60 206 q 102 453 60 383 q 214 564 144 524 q 363 604 283 604 q 502 575 440 604 q 593 500 564 546 l 586 476 l 600 581 l 729 581 l 729 -4 q 688 -148 729 -83 q 571 -251 646 -212 q 393 -289 496 -289 m 201 297 q 227 197 201 242 q 297 127 253 153 q 394 101 340 101 q 519 140 468 101 q 589 238 571 178 l 589 357 q 518 453 571 417 q 394 490 465 490 q 297 465 340 490 q 227 397 253 440 q 201 297 201 354 m 421 668 q 278 732 332 668 q 207 915 224 796 l 301 915 q 340 807 311 850 q 421 764 368 764 q 501 807 474 764 q 538 915 529 850 l 633 915 q 564 731 618 793 q 421 668 510 668 z "},"ǧ":{"ha":839,"x_min":60,"x_max":729,"o":"m 393 -289 q 276 -273 326 -289 q 187 -231 226 -257 q 111 -172 147 -204 l 194 -76 q 284 -142 238 -118 q 390 -165 331 -165 q 536 -121 485 -165 q 589 -1 588 -76 l 589 150 l 599 124 q 510 26 574 65 q 354 -14 447 -14 q 207 26 274 -14 q 100 136 140 67 q 60 293 60 206 q 102 453 60 383 q 214 564 144 524 q 363 604 283 604 q 502 575 440 604 q 593 500 564 546 l 586 476 l 600 581 l 729 581 l 729 -4 q 688 -148 729 -83 q 571 -251 646 -212 q 393 -289 496 -289 m 201 297 q 227 197 201 242 q 297 127 253 153 q 394 101 340 101 q 519 140 468 101 q 589 238 571 178 l 589 357 q 518 453 571 417 q 394 490 465 490 q 297 465 340 490 q 227 397 253 440 q 201 297 201 354 m 321 913 l 447 781 l 407 771 l 535 913 l 664 913 l 431 671 l 429 671 l 192 913 l 321 913 z "},"ĝ":{"ha":839,"x_min":60,"x_max":729,"o":"m 393 -289 q 276 -273 326 -289 q 187 -231 226 -257 q 111 -172 147 -204 l 194 -76 q 284 -142 238 -118 q 390 -165 331 -165 q 536 -121 485 -165 q 589 -1 588 -76 l 589 150 l 599 124 q 510 26 574 65 q 354 -14 447 -14 q 207 26 274 -14 q 100 136 140 67 q 60 293 60 206 q 102 453 60 383 q 214 564 144 524 q 363 604 283 604 q 502 575 440 604 q 593 500 564 546 l 586 476 l 600 581 l 729 581 l 729 -4 q 688 -148 729 -83 q 571 -251 646 -212 q 393 -289 496 -289 m 201 297 q 227 197 201 242 q 297 127 253 153 q 394 101 340 101 q 519 140 468 101 q 589 238 571 178 l 589 357 q 518 453 571 417 q 394 490 465 490 q 297 465 340 490 q 227 397 253 440 q 201 297 201 354 m 526 694 l 400 825 l 439 836 l 311 694 l 183 694 l 417 936 l 418 936 l 656 694 l 526 694 z "},"ģ":{"ha":794,"x_min":60,"x_max":729,"o":"m 319 704 q 380 850 350 778 q 440 994 410 922 l 554 994 q 499 850 526 922 q 444 704 472 778 l 319 704 m 393 -289 q 276 -273 326 -289 q 187 -231 226 -257 q 111 -172 147 -204 l 194 -76 q 284 -142 238 -118 q 390 -165 331 -165 q 536 -121 485 -165 q 589 -1 588 -76 l 589 150 l 599 124 q 510 26 574 65 q 354 -14 447 -14 q 207 26 274 -14 q 100 136 140 67 q 60 293 60 206 q 102 453 60 383 q 214 564 144 524 q 363 604 283 604 q 502 575 440 604 q 593 500 564 546 l 586 476 l 600 581 l 729 581 l 729 -4 q 688 -148 729 -83 q 571 -251 646 -212 q 393 -289 496 -289 m 201 297 q 227 197 201 242 q 297 127 253 153 q 394 101 340 101 q 519 140 468 101 q 589 238 571 178 l 589 357 q 518 453 571 417 q 394 490 465 490 q 297 465 340 490 q 227 397 253 440 q 201 297 201 354 z "},"ġ":{"ha":839,"x_min":60,"x_max":729,"o":"m 393 -289 q 276 -273 326 -289 q 187 -231 226 -257 q 111 -172 147 -204 l 194 -76 q 284 -142 238 -118 q 390 -165 331 -165 q 536 -121 485 -165 q 589 -1 588 -76 l 589 150 l 599 124 q 510 26 574 65 q 354 -14 447 -14 q 207 26 274 -14 q 100 136 140 67 q 60 293 60 206 q 102 453 60 383 q 214 564 144 524 q 363 604 283 604 q 502 575 440 604 q 593 500 564 546 l 586 476 l 600 581 l 729 581 l 729 -4 q 688 -148 729 -83 q 571 -251 646 -212 q 393 -289 496 -289 m 201 297 q 227 197 201 242 q 297 127 253 153 q 394 101 340 101 q 519 140 468 101 q 589 238 571 178 l 589 357 q 518 453 571 417 q 394 490 465 490 q 297 465 340 490 q 227 397 253 440 q 201 297 201 354 m 339 810 q 365 864 339 842 q 421 886 390 886 q 476 864 451 886 q 501 810 501 842 q 476 754 501 775 q 421 733 451 733 q 365 754 390 733 q 339 810 339 775 z "},"h":{"ha":778,"x_min":110,"x_max":667,"o":"m 110 0 l 110 1079 l 247 1079 l 247 449 l 244 472 q 335 566 275 529 q 478 603 394 603 q 613 555 560 603 q 667 429 665 507 l 667 0 l 526 0 l 526 381 q 500 453 525 425 q 422 483 475 482 q 299 422 349 483 q 250 265 250 360 l 250 0 l 110 0 z "},"ħ":{"ha":778,"x_min":-8,"x_max":667,"o":"m 110 0 l 110 1079 l 247 1079 l 247 449 l 244 472 q 335 566 275 529 q 478 603 394 603 q 613 555 560 603 q 667 429 665 507 l 667 0 l 526 0 l 526 381 q 500 453 525 425 q 422 483 475 482 q 299 422 349 483 q 250 265 250 360 l 250 0 l 110 0 m -8 901 l 386 901 l 386 771 l -8 771 l -8 901 z "},"ĥ":{"ha":778,"x_min":-67,"x_max":667,"o":"m 110 0 l 110 1079 l 247 1079 l 247 449 l 244 472 q 335 566 275 529 q 478 603 394 603 q 613 555 560 603 q 667 429 665 507 l 667 0 l 526 0 l 526 381 q 500 453 525 425 q 422 483 475 482 q 299 422 349 483 q 250 265 250 360 l 250 0 l 110 0 m 276 1139 l 150 1269 l 189 1281 l 61 1139 l -67 1139 l 167 1381 l 168 1381 l 406 1139 l 276 1139 z "},"i":{"ha":360,"x_min":103,"x_max":265,"o":"m 110 581 l 250 581 l 250 0 l 110 0 l 110 581 m 103 789 q 128 843 103 821 q 185 865 154 865 q 240 843 215 865 q 265 789 265 821 q 240 733 265 754 q 185 713 215 713 q 128 733 154 713 q 103 789 103 754 z "},"ı":{"ha":360,"x_min":110,"x_max":250,"o":"m 110 581 l 250 581 l 250 0 l 110 0 l 110 581 z "},"í":{"ha":360,"x_min":79,"x_max":347,"o":"m 110 581 l 250 581 l 250 0 l 110 0 l 110 581 m 347 853 l 167 667 l 79 667 l 192 853 l 347 853 z "},"ĭ":{"ha":360,"x_min":-31,"x_max":396,"o":"m 110 581 l 250 581 l 250 0 l 110 0 l 110 581 m 183 647 q 40 711 94 647 q -31 894 -14 775 l 64 894 q 102 786 74 829 q 183 743 131 743 q 264 786 236 743 q 300 894 292 829 l 396 894 q 326 710 381 772 q 183 647 272 647 z "},"î":{"ha":360,"x_min":-54,"x_max":418,"o":"m 110 581 l 250 581 l 250 0 l 110 0 l 110 581 m 289 675 l 163 806 l 201 817 l 74 675 l -54 675 l 179 917 l 181 917 l 418 675 l 289 675 z "},"ȉ":{"ha":360,"x_min":-117,"x_max":340,"o":"m 110 581 l 250 581 l 250 0 l 110 0 l 110 581 m -117 861 l 38 861 l 136 675 l 49 675 l -117 861 m 88 861 l 242 861 l 340 675 l 253 675 l 88 861 z "},"ï":{"ha":360,"x_min":-28,"x_max":389,"o":"m 110 581 l 250 581 l 250 0 l 110 0 l 110 581 m -28 735 q -3 791 -28 768 q 50 814 21 814 q 102 791 78 814 q 126 735 126 768 q 102 678 126 700 q 50 657 78 657 q -3 678 21 657 q -28 735 -28 700 l -28 735 m 235 735 q 259 791 235 768 q 313 814 283 814 q 365 791 340 814 q 389 735 389 768 q 365 678 389 700 q 313 657 340 657 q 259 678 283 657 q 235 735 235 700 l 235 735 z "},"ị":{"ha":360,"x_min":103,"x_max":265,"o":"m 110 581 l 250 581 l 250 0 l 110 0 l 110 581 m 103 789 q 128 843 103 821 q 185 865 154 865 q 240 843 215 865 q 265 789 265 821 q 240 733 265 754 q 185 713 215 713 q 128 733 154 713 q 103 789 103 754 m 108 -146 q 131 -99 108 -117 q 179 -81 153 -81 q 226 -99 204 -81 q 247 -146 247 -117 q 226 -193 247 -175 q 179 -211 204 -211 q 131 -192 153 -211 q 108 -146 108 -174 z "},"ì":{"ha":360,"x_min":-26,"x_max":250,"o":"m 110 581 l 250 581 l 250 0 l 110 0 l 110 581 m -26 861 l 128 861 l 226 675 l 139 675 l -26 861 z "},"ỉ":{"ha":360,"x_min":53,"x_max":293,"o":"m 110 581 l 250 581 l 250 0 l 110 0 l 110 581 m 151 689 q 196 727 179 708 q 213 771 213 746 q 201 806 213 793 q 168 819 190 819 q 131 808 146 819 q 104 778 117 797 l 53 811 q 112 877 76 856 q 186 899 147 899 q 246 883 222 899 q 281 843 269 868 q 293 789 293 818 q 261 707 293 740 q 185 646 229 674 l 151 689 z "},"ȋ":{"ha":360,"x_min":-25,"x_max":401,"o":"m 110 581 l 250 581 l 250 0 l 110 0 l 110 581 m 188 888 q 331 824 278 888 q 401 640 385 760 l 307 640 q 269 749 297 706 q 188 792 240 792 q 107 749 135 792 q 71 640 79 706 l -25 640 q 44 825 -10 763 q 188 888 99 888 z "},"ĳ":{"ha":713,"x_min":103,"x_max":614,"o":"m 110 581 l 250 581 l 250 0 l 110 0 l 110 581 m 103 789 q 128 843 103 821 q 185 865 154 865 q 240 843 215 865 q 265 789 265 821 q 240 733 265 754 q 185 713 215 713 q 128 733 154 713 q 103 789 103 754 m 460 -279 l 376 -193 q 439 -111 417 -160 q 461 3 461 -62 l 461 581 l 601 581 l 601 -3 q 568 -171 601 -103 q 460 -279 535 -239 m 451 789 q 477 843 451 821 q 533 865 503 865 q 589 843 564 865 q 614 789 614 821 q 589 733 614 754 q 533 713 564 713 q 477 733 503 713 q 451 789 451 754 z "},"ī":{"ha":360,"x_min":10,"x_max":353,"o":"m 110 581 l 250 581 l 250 0 l 110 0 l 110 581 m 10 760 l 353 760 l 353 661 l 10 661 l 10 760 z "},"į":{"ha":367,"x_min":-3,"x_max":328,"o":"m 167 -303 q 47 -260 96 -303 q -3 -147 -3 -217 q 31 -54 -3 -99 q 121 14 65 -10 l 225 13 l 253 0 q 151 -61 189 -31 q 113 -136 113 -92 q 133 -187 113 -172 q 179 -203 154 -203 q 274 -136 233 -203 l 328 -207 q 256 -276 301 -249 q 167 -303 211 -303 m 110 581 l 250 581 l 250 0 l 110 0 l 110 581 m 100 776 q 126 831 100 808 q 182 853 151 853 q 238 831 213 853 q 263 776 263 808 q 238 721 263 742 q 182 700 213 700 q 126 721 151 700 q 100 776 100 742 z "},"ĩ":{"ha":360,"x_min":-40,"x_max":417,"o":"m 110 581 l 250 581 l 250 0 l 110 0 l 110 581 m 290 639 q 215 659 244 639 q 161 701 186 679 q 129 729 146 717 q 93 742 113 742 q 51 713 67 742 q 38 639 36 683 l -36 639 q -25 738 -40 693 q 23 808 -10 782 q 100 833 56 833 q 163 814 136 833 q 211 772 189 794 q 249 740 231 754 q 286 726 267 726 q 325 756 314 726 q 335 833 336 786 l 410 833 q 401 731 417 775 q 357 663 386 688 q 290 639 328 639 z "},"j":{"ha":368,"x_min":40,"x_max":278,"o":"m 124 -279 l 40 -193 q 103 -111 81 -160 q 125 3 125 -62 l 125 581 l 265 581 l 265 -3 q 232 -171 265 -103 q 124 -279 199 -239 m 115 789 q 141 843 115 821 q 197 865 167 865 q 253 843 228 865 q 278 789 278 821 q 253 733 278 754 q 197 713 228 713 q 141 733 167 713 q 115 789 115 754 z "},"ȷ":{"ha":368,"x_min":40,"x_max":265,"o":"m 124 -279 l 40 -193 q 103 -111 81 -160 q 125 3 125 -62 l 125 581 l 265 581 l 265 -3 q 232 -171 265 -103 q 124 -279 199 -239 z "},"ĵ":{"ha":368,"x_min":-42,"x_max":431,"o":"m 124 -279 l 40 -193 q 103 -111 81 -160 q 125 3 125 -62 l 125 581 l 265 581 l 265 -3 q 232 -171 265 -103 q 124 -279 199 -239 m 301 675 l 175 806 l 214 817 l 86 675 l -42 675 l 192 917 l 193 917 l 431 675 l 301 675 z "},"k":{"ha":703,"x_min":110,"x_max":658,"o":"m 110 0 l 110 1079 l 250 1079 l 250 0 l 110 0 m 392 388 l 658 0 l 494 0 l 299 308 l 392 388 m 207 181 l 193 315 l 546 593 l 631 518 l 207 181 z "},"ķ":{"ha":703,"x_min":110,"x_max":658,"o":"m 110 0 l 110 1079 l 250 1079 l 250 0 l 110 0 m 392 388 l 658 0 l 494 0 l 299 308 l 392 388 m 207 181 l 193 315 l 546 593 l 631 518 l 207 181 m 307 -283 l 236 -235 q 282 -152 268 -206 q 288 -47 296 -99 l 413 -49 q 409 -131 419 -86 q 373 -217 399 -176 q 307 -283 347 -258 z "},"ĸ":{"ha":717,"x_min":110,"x_max":656,"o":"m 239 172 l 218 296 l 486 581 l 656 581 l 239 172 m 250 0 l 110 0 l 110 581 l 250 581 l 250 0 m 383 333 l 656 0 l 492 0 l 276 271 l 383 333 z "},"l":{"ha":360,"x_min":110,"x_max":250,"o":"m 110 1079 l 250 1079 l 250 0 l 110 0 l 110 1079 z "},"ĺ":{"ha":360,"x_min":110,"x_max":404,"o":"m 110 1079 l 250 1079 l 250 0 l 110 0 l 110 1079 m 404 1326 l 224 1140 l 136 1140 l 249 1326 l 404 1326 z "},"ľ":{"ha":531,"x_min":110,"x_max":526,"o":"m 110 1079 l 250 1079 l 250 0 l 110 0 l 110 1079 m 424 840 l 351 875 q 399 952 382 903 q 407 1050 417 1001 l 518 1060 q 515 978 526 1021 q 478 898 503 935 q 424 840 454 861 l 424 840 z "},"ļ":{"ha":360,"x_min":65,"x_max":250,"o":"m 110 1079 l 250 1079 l 250 0 l 110 0 l 110 1079 m 136 -283 l 65 -235 q 111 -152 97 -206 q 117 -47 125 -99 l 242 -49 q 238 -131 249 -86 q 202 -217 228 -176 q 136 -283 176 -258 z "},"ŀ":{"ha":493,"x_min":110,"x_max":504,"o":"m 110 1079 l 250 1079 l 250 0 l 110 0 l 110 1079 m 351 444 q 376 501 351 478 q 429 524 400 524 q 481 501 457 524 q 504 444 504 478 q 481 388 504 410 q 429 367 457 367 q 376 388 400 367 q 351 444 351 410 l 351 444 z "},"ǉ":{"ha":728,"x_min":110,"x_max":638,"o":"m 110 1079 l 250 1079 l 250 0 l 110 0 l 110 1079 m 483 -279 l 400 -193 q 463 -111 440 -160 q 485 3 485 -62 l 485 581 l 625 581 l 625 -3 q 592 -171 625 -103 q 483 -279 558 -239 m 475 789 q 501 843 475 821 q 557 865 526 865 q 613 843 588 865 q 638 789 638 821 q 613 733 638 754 q 557 713 588 713 q 501 733 526 713 q 475 789 475 754 z "},"ł":{"ha":382,"x_min":26,"x_max":365,"o":"m 365 546 l 365 424 l 26 336 l 26 458 l 365 546 m 119 1079 l 260 1079 l 260 0 l 119 0 l 119 1079 z "},"m":{"ha":1154,"x_min":110,"x_max":1044,"o":"m 236 581 l 249 454 l 242 465 q 333 567 274 531 q 468 604 392 604 q 589 571 540 604 q 649 476 638 538 l 642 471 q 735 569 676 533 q 857 604 793 604 q 993 556 943 604 q 1044 431 1043 508 l 1044 0 l 906 0 l 906 378 q 885 451 904 422 q 818 483 867 481 q 730 453 768 483 q 670 374 692 422 q 647 269 649 325 l 647 0 l 507 0 l 507 378 q 485 451 506 422 q 417 483 465 481 q 330 453 368 483 q 271 373 292 422 q 250 268 250 324 l 250 0 l 110 0 l 110 581 l 236 581 z "},"n":{"ha":778,"x_min":110,"x_max":667,"o":"m 236 581 l 249 446 l 243 465 q 333 565 271 528 q 478 603 394 603 q 613 555 560 603 q 667 429 665 507 l 667 0 l 526 0 l 526 381 q 500 453 525 425 q 422 483 475 482 q 299 422 349 483 q 250 265 250 361 l 250 0 l 110 0 l 110 581 l 236 581 z "},"ń":{"ha":778,"x_min":110,"x_max":667,"o":"m 236 581 l 249 446 l 243 465 q 333 565 271 528 q 478 603 394 603 q 613 555 560 603 q 667 429 665 507 l 667 0 l 526 0 l 526 381 q 500 453 525 425 q 422 483 475 482 q 299 422 349 483 q 250 265 250 361 l 250 0 l 110 0 l 110 581 l 236 581 m 554 863 l 374 676 l 286 676 l 399 863 l 554 863 z "},"ŉ":{"ha":799,"x_min":-72,"x_max":688,"o":"m -1 572 l -72 621 q -26 703 -40 650 q -21 808 -12 757 l 104 807 q 101 724 111 769 q 65 638 90 679 q -1 572 39 597 m 257 581 l 269 446 l 264 465 q 353 565 292 528 q 499 603 415 603 q 633 555 581 603 q 688 429 686 507 l 688 0 l 547 0 l 547 381 q 521 453 546 425 q 443 483 496 482 q 320 422 369 483 q 271 265 271 361 l 271 0 l 131 0 l 131 581 l 257 581 z "},"ň":{"ha":778,"x_min":110,"x_max":667,"o":"m 236 581 l 249 446 l 243 465 q 333 565 271 528 q 478 603 394 603 q 613 555 560 603 q 667 429 665 507 l 667 0 l 526 0 l 526 381 q 500 453 525 425 q 422 483 475 482 q 299 422 349 483 q 250 265 250 361 l 250 0 l 110 0 l 110 581 l 236 581 m 290 903 l 417 771 l 376 761 l 504 903 l 633 903 l 400 661 l 399 661 l 161 903 l 290 903 z "},"ņ":{"ha":778,"x_min":110,"x_max":667,"o":"m 236 581 l 249 446 l 243 465 q 333 565 271 528 q 478 603 394 603 q 613 555 560 603 q 667 429 665 507 l 667 0 l 526 0 l 526 381 q 500 453 525 425 q 422 483 475 482 q 299 422 349 483 q 250 265 250 361 l 250 0 l 110 0 l 110 581 l 236 581 m 344 -283 l 274 -235 q 319 -152 306 -206 q 325 -47 333 -99 l 450 -49 q 447 -131 457 -86 q 410 -217 436 -176 q 344 -283 385 -258 z "},"ŋ":{"ha":778,"x_min":110,"x_max":667,"o":"m 667 4 q 632 -162 667 -89 q 526 -279 597 -235 l 444 -193 q 505 -111 483 -160 q 526 3 526 -62 l 526 381 q 500 453 525 425 q 422 483 475 482 q 299 422 349 483 q 250 265 250 361 l 250 0 l 110 0 l 110 581 l 236 581 l 247 465 q 335 565 276 528 q 478 603 394 603 q 613 555 560 603 q 667 429 665 507 l 667 4 z "},"ɲ":{"ha":778,"x_min":29,"x_max":667,"o":"m 111 -279 l 29 -193 q 91 -111 69 -160 q 113 3 113 -62 l 113 61 l 253 61 l 253 -3 q 215 -167 253 -99 q 111 -279 176 -235 m 236 581 l 249 446 l 243 465 q 333 565 271 528 q 478 603 394 603 q 613 555 560 603 q 667 429 665 507 l 667 0 l 526 0 l 526 381 q 500 453 525 425 q 422 483 475 482 q 299 422 349 483 q 250 265 250 361 l 250 0 l 110 0 l 110 581 l 236 581 z "},"ǌ":{"ha":1133,"x_min":110,"x_max":1033,"o":"m 236 581 l 249 446 l 243 465 q 333 565 271 528 q 478 603 394 603 q 613 555 560 603 q 667 429 665 507 l 667 0 l 526 0 l 526 381 q 500 453 525 425 q 422 483 475 482 q 299 422 349 483 q 250 265 250 361 l 250 0 l 110 0 l 110 581 l 236 581 m 879 -279 l 796 -193 q 858 -111 836 -160 q 881 3 881 -62 l 881 581 l 1021 581 l 1021 -3 q 988 -171 1021 -103 q 879 -279 954 -239 m 871 789 q 897 843 871 821 q 953 865 922 865 q 1008 843 983 865 q 1033 789 1033 821 q 1008 733 1033 754 q 953 713 983 713 q 897 733 922 713 q 871 789 871 754 z "},"ñ":{"ha":778,"x_min":110,"x_max":667,"o":"m 236 581 l 249 446 l 243 465 q 333 565 271 528 q 478 603 394 603 q 613 555 560 603 q 667 429 665 507 l 667 0 l 526 0 l 526 381 q 500 453 525 425 q 422 483 475 482 q 299 422 349 483 q 250 265 250 361 l 250 0 l 110 0 l 110 581 l 236 581 m 496 649 q 421 669 450 649 q 367 711 392 689 q 335 739 351 726 q 299 751 318 751 q 257 722 272 751 q 243 649 242 693 l 169 649 q 181 747 165 703 q 228 817 196 792 q 306 843 261 843 q 368 824 342 843 q 417 782 394 804 q 454 750 436 764 q 492 736 472 736 q 531 766 519 736 q 540 843 542 796 l 615 843 q 607 741 622 785 q 563 673 592 697 q 496 649 533 649 z "},"o":{"ha":763,"x_min":60,"x_max":703,"o":"m 60 296 q 101 453 60 383 q 217 564 143 524 q 385 604 290 604 q 552 564 481 604 q 663 453 624 524 q 703 296 703 383 q 663 138 703 208 q 551 27 622 68 q 382 -14 479 -14 q 217 24 290 -14 q 102 131 144 61 q 60 296 60 201 m 201 294 q 225 197 201 240 q 290 127 249 153 q 381 101 331 101 q 510 157 460 101 q 561 294 561 213 q 510 433 561 376 q 381 489 460 489 q 289 463 329 489 q 225 392 249 436 q 201 294 201 347 z "},"ó":{"ha":763,"x_min":60,"x_max":703,"o":"m 60 296 q 101 453 60 383 q 217 564 143 524 q 385 604 290 604 q 552 564 481 604 q 663 453 624 524 q 703 296 703 383 q 663 138 703 208 q 551 27 622 68 q 382 -14 479 -14 q 217 24 290 -14 q 102 131 144 61 q 60 296 60 201 m 201 294 q 225 197 201 240 q 290 127 249 153 q 381 101 331 101 q 510 157 460 101 q 561 294 561 213 q 510 433 561 376 q 381 489 460 489 q 289 463 329 489 q 225 392 249 436 q 201 294 201 347 m 547 872 l 367 686 l 279 686 l 392 872 l 547 872 z "},"ŏ":{"ha":763,"x_min":60,"x_max":703,"o":"m 60 296 q 101 453 60 383 q 217 564 143 524 q 385 604 290 604 q 552 564 481 604 q 663 453 624 524 q 703 296 703 383 q 663 138 703 208 q 551 27 622 68 q 382 -14 479 -14 q 217 24 290 -14 q 102 131 144 61 q 60 296 60 201 m 201 294 q 225 197 201 240 q 290 127 249 153 q 381 101 331 101 q 510 157 460 101 q 561 294 561 213 q 510 433 561 376 q 381 489 460 489 q 289 463 329 489 q 225 392 249 436 q 201 294 201 347 m 383 668 q 240 732 294 668 q 169 915 186 796 l 264 915 q 302 807 274 850 q 383 764 331 764 q 464 807 436 764 q 500 915 492 850 l 596 915 q 526 731 581 793 q 383 668 472 668 z "},"ô":{"ha":763,"x_min":60,"x_max":703,"o":"m 60 296 q 101 453 60 383 q 217 564 143 524 q 385 604 290 604 q 552 564 481 604 q 663 453 624 524 q 703 296 703 383 q 663 138 703 208 q 551 27 622 68 q 382 -14 479 -14 q 217 24 290 -14 q 102 131 144 61 q 60 296 60 201 m 201 294 q 225 197 201 240 q 290 127 249 153 q 381 101 331 101 q 510 157 460 101 q 561 294 561 213 q 510 433 561 376 q 381 489 460 489 q 289 463 329 489 q 225 392 249 436 q 201 294 201 347 m 489 694 l 363 825 l 401 836 l 274 694 l 146 694 l 379 936 l 381 936 l 618 694 l 489 694 z "},"ố":{"ha":763,"x_min":60,"x_max":774,"o":"m 60 296 q 101 453 60 383 q 217 564 143 524 q 385 604 290 604 q 552 564 481 604 q 663 453 624 524 q 703 296 703 383 q 663 138 703 208 q 551 27 622 68 q 382 -14 479 -14 q 217 24 290 -14 q 102 131 144 61 q 60 296 60 201 m 201 294 q 225 197 201 240 q 290 127 249 153 q 381 101 331 101 q 510 157 460 101 q 561 294 561 213 q 510 433 561 376 q 381 489 460 489 q 289 463 329 489 q 225 392 249 436 q 201 294 201 347 m 493 689 l 367 819 l 406 831 l 278 689 l 150 689 l 383 931 l 385 931 l 622 689 l 493 689 m 774 1013 l 593 826 l 506 826 l 618 1013 l 774 1013 z "},"ộ":{"ha":763,"x_min":60,"x_max":703,"o":"m 60 296 q 101 453 60 383 q 217 564 143 524 q 385 604 290 604 q 552 564 481 604 q 663 453 624 524 q 703 296 703 383 q 663 138 703 208 q 551 27 622 68 q 382 -14 479 -14 q 217 24 290 -14 q 102 131 144 61 q 60 296 60 201 m 201 294 q 225 197 201 240 q 290 127 249 153 q 381 101 331 101 q 510 157 460 101 q 561 294 561 213 q 510 433 561 376 q 381 489 460 489 q 289 463 329 489 q 225 392 249 436 q 201 294 201 347 m 311 -146 q 333 -99 311 -117 q 382 -81 356 -81 q 428 -99 407 -81 q 450 -146 450 -117 q 428 -193 450 -175 q 382 -211 407 -211 q 333 -192 356 -211 q 311 -146 311 -174 m 489 694 l 363 825 l 401 836 l 274 694 l 146 694 l 379 936 l 381 936 l 618 694 l 489 694 z "},"ồ":{"ha":763,"x_min":-53,"x_max":703,"o":"m 60 296 q 101 453 60 383 q 217 564 143 524 q 385 604 290 604 q 552 564 481 604 q 663 453 624 524 q 703 296 703 383 q 663 138 703 208 q 551 27 622 68 q 382 -14 479 -14 q 217 24 290 -14 q 102 131 144 61 q 60 296 60 201 m 201 294 q 225 197 201 240 q 290 127 249 153 q 381 101 331 101 q 510 157 460 101 q 561 294 561 213 q 510 433 561 376 q 381 489 460 489 q 289 463 329 489 q 225 392 249 436 q 201 294 201 347 m 482 685 l 356 815 l 394 826 l 267 685 l 139 685 l 372 926 l 374 926 l 611 685 l 482 685 m -53 1021 l 101 1021 l 200 835 l 113 835 l -53 1021 z "},"ổ":{"ha":763,"x_min":60,"x_max":743,"o":"m 60 296 q 101 453 60 383 q 217 564 143 524 q 385 604 290 604 q 552 564 481 604 q 663 453 624 524 q 703 296 703 383 q 663 138 703 208 q 551 27 622 68 q 382 -14 479 -14 q 217 24 290 -14 q 102 131 144 61 q 60 296 60 201 m 201 294 q 225 197 201 240 q 290 127 249 153 q 381 101 331 101 q 510 157 460 101 q 561 294 561 213 q 510 433 561 376 q 381 489 460 489 q 289 463 329 489 q 225 392 249 436 q 201 294 201 347 m 488 689 l 361 819 l 400 831 l 272 689 l 144 689 l 378 931 l 379 931 l 617 689 l 488 689 m 601 835 q 646 873 629 854 q 663 917 663 892 q 651 952 663 939 q 618 965 640 965 q 581 954 596 965 q 554 924 567 943 l 503 957 q 562 1023 526 1001 q 636 1044 597 1044 q 696 1029 672 1044 q 731 989 719 1014 q 743 935 743 964 q 711 853 743 886 q 635 792 679 819 l 601 835 z "},"ỗ":{"ha":763,"x_min":60,"x_max":703,"o":"m 60 296 q 101 453 60 383 q 217 564 143 524 q 385 604 290 604 q 552 564 481 604 q 663 453 624 524 q 703 296 703 383 q 663 138 703 208 q 551 27 622 68 q 382 -14 479 -14 q 217 24 290 -14 q 102 131 144 61 q 60 296 60 201 m 201 294 q 225 197 201 240 q 290 127 249 153 q 381 101 331 101 q 510 157 460 101 q 561 294 561 213 q 510 433 561 376 q 381 489 460 489 q 289 463 329 489 q 225 392 249 436 q 201 294 201 347 m 482 681 l 356 811 l 394 822 l 267 681 l 139 681 l 372 922 l 374 922 l 611 681 l 482 681 m 483 957 q 408 977 438 957 q 354 1019 379 997 q 322 1047 339 1035 q 286 1060 306 1060 q 244 1031 260 1060 q 231 957 229 1001 l 157 957 q 168 1056 153 1011 q 216 1126 183 1100 q 293 1151 249 1151 q 356 1132 329 1151 q 404 1090 382 1113 q 442 1058 424 1072 q 479 1044 460 1044 q 518 1074 507 1044 q 528 1151 529 1104 l 603 1151 q 594 1049 610 1093 q 550 981 579 1006 q 483 957 521 957 z "},"ȍ":{"ha":763,"x_min":60,"x_max":703,"o":"m 60 296 q 101 453 60 383 q 217 564 143 524 q 385 604 290 604 q 552 564 481 604 q 663 453 624 524 q 703 296 703 383 q 663 138 703 208 q 551 27 622 68 q 382 -14 479 -14 q 217 24 290 -14 q 102 131 144 61 q 60 296 60 201 m 201 294 q 225 197 201 240 q 290 127 249 153 q 381 101 331 101 q 510 157 460 101 q 561 294 561 213 q 510 433 561 376 q 381 489 460 489 q 289 463 329 489 q 225 392 249 436 q 201 294 201 347 m 83 881 l 238 881 l 336 694 l 249 694 l 83 881 m 288 881 l 442 881 l 540 694 l 453 694 l 288 881 z "},"ö":{"ha":763,"x_min":60,"x_max":703,"o":"m 60 296 q 101 453 60 383 q 217 564 143 524 q 385 604 290 604 q 552 564 481 604 q 663 453 624 524 q 703 296 703 383 q 663 138 703 208 q 551 27 622 68 q 382 -14 479 -14 q 217 24 290 -14 q 102 131 144 61 q 60 296 60 201 m 201 294 q 225 197 201 240 q 290 127 249 153 q 381 101 331 101 q 510 157 460 101 q 561 294 561 213 q 510 433 561 376 q 381 489 460 489 q 289 463 329 489 q 225 392 249 436 q 201 294 201 347 m 172 754 q 197 810 172 788 q 250 833 221 833 q 302 810 278 833 q 326 754 326 788 q 302 698 326 719 q 250 676 278 676 q 197 698 221 676 q 172 754 172 719 l 172 754 m 435 754 q 459 810 435 788 q 513 833 483 833 q 565 810 540 833 q 589 754 589 788 q 565 698 589 719 q 513 676 540 676 q 459 698 483 676 q 435 754 435 719 l 435 754 z "},"ȫ":{"ha":763,"x_min":60,"x_max":703,"o":"m 60 296 q 101 453 60 383 q 217 564 143 524 q 385 604 290 604 q 552 564 481 604 q 663 453 624 524 q 703 296 703 383 q 663 138 703 208 q 551 27 622 68 q 382 -14 479 -14 q 217 24 290 -14 q 102 131 144 61 q 60 296 60 201 m 201 294 q 225 197 201 240 q 290 127 249 153 q 381 101 331 101 q 510 157 460 101 q 561 294 561 213 q 510 433 561 376 q 381 489 460 489 q 289 463 329 489 q 225 392 249 436 q 201 294 201 347 m 172 754 q 197 810 172 788 q 250 833 221 833 q 302 810 278 833 q 326 754 326 788 q 302 698 326 719 q 250 676 278 676 q 197 698 221 676 q 172 754 172 719 l 172 754 m 435 754 q 459 810 435 788 q 513 833 483 833 q 565 810 540 833 q 589 754 589 788 q 565 698 589 719 q 513 676 540 676 q 459 698 483 676 q 435 754 435 719 l 435 754 m 211 1013 l 554 1013 l 554 914 l 211 914 l 211 1013 z "},"ȱ":{"ha":763,"x_min":60,"x_max":703,"o":"m 60 296 q 101 453 60 383 q 217 564 143 524 q 385 604 290 604 q 552 564 481 604 q 663 453 624 524 q 703 296 703 383 q 663 138 703 208 q 551 27 622 68 q 382 -14 479 -14 q 217 24 290 -14 q 102 131 144 61 q 60 296 60 201 m 201 294 q 225 197 201 240 q 290 127 249 153 q 381 101 331 101 q 510 157 460 101 q 561 294 561 213 q 510 433 561 376 q 381 489 460 489 q 289 463 329 489 q 225 392 249 436 q 201 294 201 347 m 303 810 q 328 864 303 842 q 385 886 354 886 q 440 864 415 886 q 465 810 465 842 q 440 754 465 775 q 385 733 415 733 q 328 754 354 733 q 303 810 303 775 m 211 1064 l 554 1064 l 554 965 l 211 965 l 211 1064 z "},"ọ":{"ha":763,"x_min":60,"x_max":703,"o":"m 60 296 q 101 453 60 383 q 217 564 143 524 q 385 604 290 604 q 552 564 481 604 q 663 453 624 524 q 703 296 703 383 q 663 138 703 208 q 551 27 622 68 q 382 -14 479 -14 q 217 24 290 -14 q 102 131 144 61 q 60 296 60 201 m 201 294 q 225 197 201 240 q 290 127 249 153 q 381 101 331 101 q 510 157 460 101 q 561 294 561 213 q 510 433 561 376 q 381 489 460 489 q 289 463 329 489 q 225 392 249 436 q 201 294 201 347 m 311 -146 q 333 -99 311 -117 q 382 -81 356 -81 q 428 -99 407 -81 q 450 -146 450 -117 q 428 -193 450 -175 q 382 -211 407 -211 q 333 -192 356 -211 q 311 -146 311 -174 z "},"ò":{"ha":763,"x_min":60,"x_max":703,"o":"m 60 296 q 101 453 60 383 q 217 564 143 524 q 385 604 290 604 q 552 564 481 604 q 663 453 624 524 q 703 296 703 383 q 663 138 703 208 q 551 27 622 68 q 382 -14 479 -14 q 217 24 290 -14 q 102 131 144 61 q 60 296 60 201 m 201 294 q 225 197 201 240 q 290 127 249 153 q 381 101 331 101 q 510 157 460 101 q 561 294 561 213 q 510 433 561 376 q 381 489 460 489 q 289 463 329 489 q 225 392 249 436 q 201 294 201 347 m 174 881 l 328 881 l 426 694 l 339 694 l 174 881 z "},"ỏ":{"ha":763,"x_min":60,"x_max":703,"o":"m 60 296 q 101 453 60 383 q 217 564 143 524 q 385 604 290 604 q 552 564 481 604 q 663 453 624 524 q 703 296 703 383 q 663 138 703 208 q 551 27 622 68 q 382 -14 479 -14 q 217 24 290 -14 q 102 131 144 61 q 60 296 60 201 m 201 294 q 225 197 201 240 q 290 127 249 153 q 381 101 331 101 q 510 157 460 101 q 561 294 561 213 q 510 433 561 376 q 381 489 460 489 q 289 463 329 489 q 225 392 249 436 q 201 294 201 347 m 351 708 q 396 747 379 728 q 413 790 413 765 q 401 826 413 813 q 368 839 390 839 q 331 828 346 839 q 304 797 317 817 l 253 831 q 312 897 276 875 q 386 918 347 918 q 446 903 422 918 q 481 863 469 888 q 493 808 493 838 q 461 726 493 760 q 385 665 429 693 l 351 708 z "},"ơ":{"ha":763,"x_min":60,"x_max":724,"o":"m 60 296 q 101 453 60 383 q 217 564 143 524 q 385 604 290 604 q 552 564 481 604 q 663 453 624 524 q 703 296 703 383 q 663 138 703 208 q 551 27 622 68 q 382 -14 479 -14 q 217 24 290 -14 q 102 131 144 61 q 60 296 60 201 m 201 294 q 225 197 201 240 q 290 127 249 153 q 381 101 331 101 q 510 157 460 101 q 561 294 561 213 q 510 433 561 376 q 381 489 460 489 q 289 463 329 489 q 225 392 249 436 q 201 294 201 347 m 493 581 q 580 610 550 581 q 618 708 610 640 l 724 708 q 682 578 714 624 q 601 514 650 532 q 493 496 553 496 l 493 581 z "},"ớ":{"ha":763,"x_min":60,"x_max":724,"o":"m 60 296 q 101 453 60 383 q 217 564 143 524 q 385 604 290 604 q 552 564 481 604 q 663 453 624 524 q 703 296 703 383 q 663 138 703 208 q 551 27 622 68 q 382 -14 479 -14 q 217 24 290 -14 q 102 131 144 61 q 60 296 60 201 m 201 294 q 225 197 201 240 q 290 127 249 153 q 381 101 331 101 q 510 157 460 101 q 561 294 561 213 q 510 433 561 376 q 381 489 460 489 q 289 463 329 489 q 225 392 249 436 q 201 294 201 347 m 493 581 q 580 610 550 581 q 618 708 610 640 l 724 708 q 682 578 714 624 q 601 514 650 532 q 493 496 553 496 l 493 581 m 547 856 l 367 669 l 279 669 l 392 856 l 547 856 z "},"ợ":{"ha":763,"x_min":60,"x_max":724,"o":"m 60 296 q 101 453 60 383 q 217 564 143 524 q 385 604 290 604 q 552 564 481 604 q 663 453 624 524 q 703 296 703 383 q 663 138 703 208 q 551 27 622 68 q 382 -14 479 -14 q 217 24 290 -14 q 102 131 144 61 q 60 296 60 201 m 201 294 q 225 197 201 240 q 290 127 249 153 q 381 101 331 101 q 510 157 460 101 q 561 294 561 213 q 510 433 561 376 q 381 489 460 489 q 289 463 329 489 q 225 392 249 436 q 201 294 201 347 m 493 581 q 580 610 550 581 q 618 708 610 640 l 724 708 q 682 578 714 624 q 601 514 650 532 q 493 496 553 496 l 493 581 m 311 -146 q 333 -99 311 -117 q 382 -81 356 -81 q 428 -99 407 -81 q 450 -146 450 -117 q 428 -193 450 -175 q 382 -211 407 -211 q 333 -192 356 -211 q 311 -146 311 -174 z "},"ờ":{"ha":763,"x_min":60,"x_max":724,"o":"m 60 296 q 101 453 60 383 q 217 564 143 524 q 385 604 290 604 q 552 564 481 604 q 663 453 624 524 q 703 296 703 383 q 663 138 703 208 q 551 27 622 68 q 382 -14 479 -14 q 217 24 290 -14 q 102 131 144 61 q 60 296 60 201 m 201 294 q 225 197 201 240 q 290 127 249 153 q 381 101 331 101 q 510 157 460 101 q 561 294 561 213 q 510 433 561 376 q 381 489 460 489 q 289 463 329 489 q 225 392 249 436 q 201 294 201 347 m 493 581 q 580 610 550 581 q 618 708 610 640 l 724 708 q 682 578 714 624 q 601 514 650 532 q 493 496 553 496 l 493 581 m 174 881 l 328 881 l 426 694 l 339 694 l 174 881 z "}}}
